<ttFont>
          <CharString index="0">
            rmoveto
            3 -2 rlineto
            -13 -23 -6 -17 -17 vvcurveto
            -29 14 -22 48 -32 callsubr
            71 444 rlineto
            -50 hlineto
            -28 -36 rlineto
            8 -16 -52 24 -103 callgsubr
            return
          </CharString>
          <CharString index="1">
            rmoveto
            156 88 157 193 114 -48 59 -100 -151 -94 -152 -201 -111 52 -59 97 hvcurveto
            36 63 rmoveto
            -70 -18 34 110 119 39 103 14 15 hvcurveto
            -92 callgsubr
            -56 callsubr
            return
          </CharString>
          <CharString index="2">
            rmoveto
            227 108 192 221 152 -78 106 -168 -199 -127 -180 -232 -165 92 -94 145 hvcurveto
            26 55 rmoveto
            -112 -43 62 157 216 58 126 141 108 48 -56 -151 -222 -52 -132 -148 hvcurveto
            return
          </CharString>
          <CharString index="3">
            rmoveto
            -83 callsubr
            -35 callgsubr
            vhcurveto
            3 -2 rlineto
            -16 -22 -8 -18 -16 vvcurveto
            -37 20 -15 44 49 47 27 5 8 vhcurveto
            44 callgsubr
            -25 -26 -60 -53 -44 hhcurveto
            -27 -9 14 25 21 4 21 3 15 hvcurveto
            42 268 rlineto
            74 -72 callsubr
            -45 vlineto
            return
          </CharString>
          <CharString index="4">
            rmoveto
            57 2 1 12 3 6 24 8 rlinecurve
            40 13 31 24 37 vvcurveto
            41 -47 22 -74 -56 -15 -18 -17 -7 2 -11 6 -12 vhcurveto
            5 21 22 3 20 hhcurveto
            29 13 -8 -11 -11 -10 -11 -27 -11 hvcurveto
            -34 -12 -10 -11 -16 vvcurveto
            -5 2 -6 2 -6 vhcurveto
            return
          </CharString>
          <CharString index="5">
            rmoveto
            54 6 rlineto
            20 4 4 27 12 vhcurveto
            42 19 27 21 38 vvcurveto
            48 -44 24 -75 -53 -17 -12 -27 -8 1 -8 6 -11 vhcurveto
            5 21 23 3 18 hhcurveto
            30 12 -7 -16 -17 -12 -9 -25 -12 hvcurveto
            -33 -15 -12 -12 -19 vvcurveto
            -8 3 -8 3 -11 vhcurveto
            return
          </CharString>
          <CharString index="6">
            rmoveto
            -7 -48 86 -16 -38 -279 rlineto
            -30 -38 -42 -18 -50 hhcurveto
            -86 -24 51 73 24 4 33 4 34 hvcurveto
            16 113 80 15 7 48 rlineto
            -258 hlineto
            -7 -48 77 -15 -17 -125 rlineto
            -5 -32 -2 -30 -26 vvcurveto
            -105 42 -73 144 54 45 11 26 45 vhcurveto
            -114 -17 -44 -75 -108 hhcurveto
            -44 -41 11 21 -37 hvcurveto
            -13 115 rlineto
            -55 hlineto
            -20 -154 rlineto
            -32 59 72 -17 75 hhcurveto
            165 86 77 189 26 hvcurveto
            46 333 74 15 7 48 rlineto
            endchar
          </CharString>
          <CharString index="7">
            -3 callgsubr
            83 490 -88 -12 -55 -313 rlineto
            -26 -26 -59 -51 -44 hhcurveto
            -27 -9 14 25 21 5 21 2 15 hvcurveto
            35 228 rlineto
            74 -72 callsubr
            -45 vlineto
            78 -17 -41 -231 rlineto
            -4 -19 -5 -26 -34 vvcurveto
            -59 29 -25 49 90 71 79 32 26 vhcurveto
            3 -2 -22 -29 -1 -18 -17 -82 rlinecurve
            -100 -20 -27 -23 -76 hhcurveto
            -52 -34 24 5 -7 hvcurveto
            92 -40 vlineto
            -25 -16 -23 -34 -35 vvcurveto
            -62 56 -32 95 vhcurveto
            endchar
          </CharString>
          <CharString index="8">
            rmoveto
            135 91 70 120 19 hvcurveto
            82 495 rlineto
            -48 hlineto
            -28 -36 rlineto
            20 -37 -46 12 -38 hhcurveto
            -105 -112 -166 -158 -102 41 -55 74 54 75 56 63 30 hvcurveto
            3 -2 -16 -34 -6 -28 -15 -74 rlinecurve
            -92 -19 -22 -31 -83 hhcurveto
            -33 -40 12 17 -20 hvcurveto
            92 -39 vlineto
            -23 -10 -25 -44 -31 vvcurveto
            -61 53 -33 98 vhcurveto
            60 271 rmoveto
            -30 -20 38 62 78 29 113 30 43 hvcurveto
            6 4 5 1 17 hhcurveto
            36 51 -18 -28 40 hvcurveto
            -36 -207 rlineto
            -53 -45 -50 -35 -31 hhcurveto
            endchar
          </CharString>
          <CharString index="9">
            rmoveto
            134 36 136 0 hvcurveto
            -27 17 rlineto
            0 -46 -84 -75 -62 -13 46 38 -4 vhcurveto
            -15 -32 -9 -12 -12 hvcurveto
            -6 -6 -3 -6 -12 vvcurveto
            -43 40 -65 85 vhcurveto
            return
          </CharString>
          <CharString index="10">
            rmoveto
            41 -22 13 -10 8 vhcurveto
            -61 -42 rlineto
            -15 vlineto
            12 -8 7 -8 -16 vvcurveto
            -31 -24 -31 -31 -26 vhcurveto
            82 -13 -48 42 -84 hhcurveto
            -151 -94 -152 -201 -111 52 -59 97 156 88 157 193 hvcurveto
            10 vlineto
            96 62 30 54 38 vvcurveto
            -273 -438 rmoveto
            -56 callsubr
            -70 -18 34 110 119 39 103 14 15 hvcurveto
            -92 callgsubr
            return
          </CharString>
          <CharString index="11">
            rmoveto
            61 55 60 55 34 hvcurveto
            -78 callsubr
            hvcurveto
            29 71 rmoveto
            -39 -10 43 67 106 26 103 37 58 hvcurveto
            5 4 9 4 17 hhcurveto
            43 42 -21 -28 35 hvcurveto
            -30 callgsubr
            endchar
          </CharString>
          <CharString index="12">
            rmoveto
            -22 callsubr
            10 15 58 35 52 hhcurveto
            35 9 -16 -26 -17 -3 -20 -2 -12 hvcurveto
            -48 -265 rlineto
            -2 -10 -2 -13 -11 57 callgsubr
            49 56 47 8 callsubr
            45 5 callsubr
            7 0 callsubr
            -70 -58 -1 callgsubr
            return
          </CharString>
          <CharString index="13">
            rmoveto
            20 -26 rlineto
            50 56 callgsubr
            106 -18 -26 -186 rlineto
            -11 -22 47 callsubr
            86 101 113 65 42 -24 -5 8 hvcurveto
            6 -93 rlineto
            50 hlineto
            22 156 rlineto
            2 -10 -73 19 -89 hhcurveto
            -213 -114 -202 -217 -169 83 -83 139 82 30 38 callgsubr
          </CharString>
          <CharString index="14">
            rmoveto
            -4 27 callgsubr
            4 41 -69 14 26 190 188 348 52 14 5 41 rlineto
            -193 hlineto
            -5 -41 69 -14 rlineto
            -15 vlineto
            -136 -269 rlineto
            -9 hlineto
            -89 261 rlineto
            22 vlineto
            70 15 5 41 rlineto
            -228 hlineto
            -4 -41 54 -12 126 16 callsubr
            return
          </CharString>
          <CharString index="15">
            rmoveto
            64 hlineto
            196 422 64 -422 rlineto
            64 hlineto
            257 601 52 14 6 41 rlineto
            -196 hlineto
            -6 -41 72 -15 -2 -17 -165 -417 -12 -33 -3 -4 -4 39 -55 412 rlineto
            20 vlineto
            72 15 5 41 rlineto
            -232 hlineto
            -4 -41 56 -12 14 -78 -161 -364 -12 -29 -2 -3 -3 32 -43 417 rlineto
            22 vlineto
            72 15 5 41 rlineto
            -231 hlineto
            -5 -41 57 -12 rlineto
            endchar
          </CharString>
          <CharString index="16">
            rmoveto
            -64 -343 rlineto
            -2 -10 -2 -13 -12 vvcurveto
            -34 17 -19 44 58 49 32 0 vhcurveto
            33 callgsubr
            endchar
          </CharString>
          <CharString index="17">
            -44 -313 rlineto
            -6 -42 -3 -38 -33 vvcurveto
            -103 53 -73 137 return
          </CharString>
          <CharString index="18">
            42 -17 31 -32 19 rlinecurve
            111 29 73 75 1 101 rrcurveto
            99 -67 46 -107 vhcurveto
            -236 -28 callgsubr
            rlineto
            204 287 rmoveto
            38 260 rlineto
            0 18 4 36 76 19 -44 -63 -93 -61 -64 -126 vhcurveto
            return
          </CharString>
          <CharString index="19">
            589 rmoveto
            -36 callsubr
            -21 23 -73 -36 -77 26 rlineto
            7 -22 -23 8 -18 hhcurveto
            -22 -16 -13 -25 -18 hvcurveto
            -39 -47 22 -23 72 35 72 -24 rlineto
            -8 21 25 -9 21 hhcurveto
            return
          </CharString>
          <CharString index="20">
            109 92 73 133 19 hvcurveto
            58 393 rlineto
            80 vlineto
            -164 52 callgsubr
            77 -17 -64 -415 -9 -57 -19 -24 -6 -8 rlinecurve
            -5 -4 -23 -6 -28 hhcurveto
            return
          </CharString>
          <CharString index="21">
            rmoveto
            99 60 rlineto
            30 17 33 22 -71 callsubr
            rlineto
            return
          </CharString>
          <CharString index="22">
            -54 callgsubr
            75 534 -68 callsubr
            return
          </CharString>
          <CharString index="23">
            hlineto
            -4 -43 67 -15 -43 -312 rlineto
            -156 -22 -41 -74 -107 hhcurveto
            -106 -24 46 83 24 3 37 6 40 hvcurveto
            44 313 72 -24 callgsubr
            -42 callsubr
            68 -14 -90 callsubr
            return
          </CharString>
          <CharString index="24">
            -49 -271 rlineto
            -4 -19 -4 -26 -34 vvcurveto
            -59 29 -25 49 return
          </CharString>
          <CharString index="25">
            rmoveto
            139 87 76 124 76 -65 58 -64 55 hvcurveto
            -67 57 -46 41 48 -61 callsubr
            -79 63 -51 79 -67 hvcurveto
            65 -55 35 -37 -52 vvcurveto
            -59 -35 -42 -89 -40 -40 12 17 -17 vhcurveto
            -11 114 rlineto
            -55 hlineto
            -17 -152 rlineto
            -18 20 70 -29 76 hhcurveto
            return
          </CharString>
          <CharString index="26">
            -49 callgsubr
            -21 -40 -34 -27 19 -69 callsubr
            return
          </CharString>
          <CharString index="27">
            673 rmoveto
            39 27 -61 139 rlineto
            -33 -4 -37 -23 -29 vvcurveto
            -19 18 -22 14 -14 vhcurveto
            224 -55 rmoveto
            38 27 -60 139 rlineto
            -33 -4 -37 -23 -29 vvcurveto
            -19 18 -22 14 -14 vhcurveto
            return
          </CharString>
          <CharString index="28">
            rmoveto
            3 -2 rlineto
            -12 -24 -7 -17 -20 vvcurveto
            -36 20 -11 44 54 21 callgsubr
            -72 vlineto
            87 550 4 callsubr
            -43 vlineto
            80 -16 -24 -135 rlineto
            11 -23 -38 14 -43 hhcurveto
            -150 -80 -236 -127 -97 39 -63 80 67 53 52 63 35 hvcurveto
            return
          </CharString>
          <CharString index="29">
            3 -2 rlineto
            -13 -23 -6 -17 -17 vvcurveto
            -29 14 -22 48 -32 callsubr
            71 444 rlineto
            -50 hlineto
            -28 -36 rlineto
            9 -17 -51 23 -49 hhcurveto
            -155 -68 -256 -107 -102 36 -58 81 return
          </CharString>
          <CharString index="30">
            rmoveto
            40 21 33 34 35 -22 23 -32 51 callsubr
            21 -25 33 hvcurveto
            215 hmoveto
            39 22 33 34 -52 callgsubr
            return
          </CharString>
          <CharString index="31">
            -45 -69 callgsubr
            return
          </CharString>
          <CharString index="32">
            -60 28 34 -142 145 rlineto
            -38 -10 -10 -24 -21 vvcurveto
            -25 return
          </CharString>
          <CharString index="33">
            566 rmoveto
            0 46 85 75 62 13 -46 -39 4 vhcurveto
            15 34 9 14 12 hvcurveto
            4 6 3 5 11 vvcurveto
            43 -40 65 -85 -134 -36 -135 0 vhcurveto
            return
          </CharString>
          <CharString index="34">
            30 callsubr
            232 hlineto
            215 5 callgsubr
            155 -94 86 -170 hvcurveto
            -243 -52 callsubr
            96 -1 rmoveto
            75 536 rlineto
            1 7 19 1 23 hhcurveto
            137 55 -63 -154 hvcurveto
            -205 -2 -90 -120 -154 hhcurveto
            -21 -29 2 2 -20 hvcurveto
            return
          </CharString>
          <CharString index="35">
            vlineto
            -165 -19 rlineto
            return
          </CharString>
          <CharString index="36">
            25 vvcurveto
            21 -10 24 -37 -42 callgsubr
            return
          </CharString>
          <CharString index="37">
            rmoveto
            21 -51 rlineto
            421 hlineto
            21 158 rlineto
            -49 hlineto
            -40 -106 57 callsubr
            -4 11 396 533 -32 52 rlineto
            -397 hlineto
            -23 -22 callgsubr
            return
          </CharString>
          <CharString index="38">
            -11 callgsubr
            43 24 -71 callgsubr
            return
          </CharString>
          <CharString index="39">
            71 -24 callgsubr
            -235 hlineto
            -6 -43 69 -14 return
          </CharString>
          <CharString index="40">
            352 rlineto
            81 -65 callsubr
            return
          </CharString>
          <CharString index="41">
            rmoveto
            109 61 77 0 19 callsubr
            0 -56 -43 -50 -72 -25 28 99 vhcurveto
            20 vlineto
            140 28 117 25 156 vvcurveto
            47 -37 53 -82 -160 -73 -219 -149 -118 46 -36 102 vhcurveto
            -48 259 rmoveto
            8 70 22 82 23 35 rrcurveto
            7 5 22 -13 callsubr
          </CharString>
          <CharString index="42">
            -72 callsubr
            -44 vlineto
            return
          </CharString>
          <CharString index="43">
            vhcurveto
            9 -105 rlineto
            51 hlineto
            17 159 rlineto
            11 -31 -62 12 -65 hhcurveto
            -128 -83 -60 -113 return
          </CharString>
          <CharString index="44">
            hlineto
            -6 -43 69 -15 callsubr
            return
          </CharString>
          <CharString index="45">
            rmoveto
            -44 -241 rlineto
            -39 -28 -50 -57 -48 hhcurveto
            -40 -11 47 63 119 35 99 30 47 hvcurveto
            4 3 12 7 14 hhcurveto
            49 44 -21 -28 34 hvcurveto
            return
          </CharString>
          <CharString index="46">
            vvcurveto
            49 28 32 74 35 43 -9 -13 24 -64 callsubr
            return
          </CharString>
          <CharString index="47">
            rmoveto
            29 68 rlineto
            -3 12 11 -1 13 hhcurveto
            156 88 157 193 73 -21 50 -40 27 hvcurveto
            25 59 -50 23 -27 -62 rlineto
            2 -11 -12 1 -12 hhcurveto
            -151 -94 -152 -201 -70 20 -50 40 -26 hvcurveto
            -28 -63 rlineto
            73 163 rmoveto
            -6 19 -2 27 37 vvcurveto
            119 39 103 14 15 vhcurveto
            10 11 27 5 21 hhcurveto
            16 14 -1 -5 12 hvcurveto
            -66 -390 rmoveto
            -17 -13 2 5 -12 hvcurveto
            145 330 rlineto
            5 -20 3 -27 -36 vvcurveto
            -116 -33 -102 -17 -23 vhcurveto
            -56 callsubr
            endchar
          </CharString>
          <CharString index="48">
            rmoveto
            -6 -43 rlineto
            202 -24 callsubr
            -70 14 rlineto
            14 vlineto
            138 207 rlineto
            161 hlineto
            -31 -221 -71 -14 23 callsubr
            -34 1 -34 3 -21 2 31 220 rcurveline
            129 hlineto
            4 -61 rlineto
            42 hlineto
            23 172 rlineto
            -43 hlineto
            -22 -61 rlineto
            -126 hlineto
            38 262 73 5 rlineto
            103 -111 54 hlineto
            24 164 rlineto
            -378 hlineto
            -390 -590 rlineto
            381 270 rmoveto
            -137 hlineto
            170 263 rlineto
            5 hlineto
            endchar
          </CharString>
          <CharString index="49">
            -67 callsubr
            endchar
          </CharString>
          <CharString index="50">
            rmoveto
            -112 -43 62 157 216 58 126 141 108 48 -56 -151 -222 -52 -132 -148 hvcurveto
            endchar
          </CharString>
          <CharString index="51">
            -10 -10 -28 -3 -23 hhcurveto
            return
          </CharString>
          <CharString index="52">
            -20 82 -172 rmoveto
            32 23 21 13 7 hvcurveto
            -37 53 -7 58 28 vvcurveto
            -9 7 2 4 rlineto
            -11 13 16 -8 22 hhcurveto
            94 64 82 30 23 hvcurveto
            3 -2 rlineto
            -17 -22 -7 -18 -16 vvcurveto
            -37 20 -15 44 49 46 27 5 8 -11 callsubr
            75 439 -92 -12 -62 -355 rlineto
            -25 -24 -53 -50 -46 hhcurveto
            -21 -23 4 32 20 6 25 2 15 hvcurveto
            55 344 rlineto
            -12 hlineto
            -88 -14 rlineto
            -69 vlineto
            -48 -274 rlineto
            -15 -85 -15 -67 -102 vvcurveto
            -39 7 -32 38 vhcurveto
            endchar
          </CharString>
          <CharString index="53">
            41 43 18 51 47 -24 34 0 hvcurveto
            -38 hlineto
            -26 -92 -149 52 rlineto
            11 vlineto
            291 375 -32 25 -56 -40 -106 25 rlineto
            10 -41 -34 7 -33 hhcurveto
            -46 -37 -20 -51 -47 24 -32 0 hvcurveto
            39 hlineto
            26 93 139 -60 rlineto
            return
          </CharString>
          <CharString index="54">
            rmoveto
            -95 -541 -19 callsubr
            56 45 31 22 callgsubr
            87 551 4 callsubr
            -43 vlineto
            return
          </CharString>
          <CharString index="55">
            -62 callgsubr
            rlineto
            return
          </CharString>
          <CharString index="56">
            rmoveto
            -21 callgsubr
            47 -4 15 -59 callgsubr
            -61 139 -19 -30 callsubr
          </CharString>
          <CharString index="57">
            97 hlineto
            56 371 rlineto
            18 15 28 27 63 hhcurveto
            43 hlineto
            8 9 11 21 24 vvcurveto
            31 -15 12 -25 -54 -52 -60 -41 -17 vhcurveto
            -4 hlineto
            5 11 5 21 13 vvcurveto
            49 -65 callsubr
            return
          </CharString>
          <CharString index="58">
            -12 callsubr
            -24 23 -33 -45 -21 return
          </CharString>
          <CharString index="59">
            236 -15 callgsubr
            return
          </CharString>
          <CharString index="60">
            rmoveto
            47 21 17 46 29 hvcurveto
            61 98 rlineto
            151 176 105 205 88 vvcurveto
            37 -61 19 -54 -7 -6 0 -1 -6 vhcurveto
            -21 -40 71 -46 -23 -122 -47 -92 -93 -135 rlinecurve
            -5 hlineto
            1 58 -25 371 -163 -16 rlineto
            -44 vlineto
            74 -19 30 -319 rlineto
            -119 vlineto
            -62 -87 rlineto
            -106 hlineto
            -1 -47 rlineto
            -21 29 31 -7 30 hhcurveto
            endchar
          </CharString>
          <CharString index="61">
            422 hlineto
            21 158 rlineto
            -50 hlineto
            -40 -106 57 callsubr
            -4 11 396 533 -32 52 rlineto
            -396 hlineto
            -24 -44 callsubr
            return
          </CharString>
          <CharString index="62">
            rmoveto
            138 54 rlineto
            return
          </CharString>
          <CharString index="63">
            -160 rlineto
            49 hlineto
            42 106 rlineto
            223 hlineto
            11 -20 return
          </CharString>
          <CharString index="64">
            5 43 -69 14 75 535 rlineto
            115 hlineto
            -5 -114 rlineto
            57 41 callsubr
            -20 -170 rlineto
            52 hlineto
            37 114 rlineto
            119 hlineto
            -75 -535 return
          </CharString>
          <CharString index="65">
            -236 -25 callgsubr
            return
          </CharString>
          <CharString index="66">
            20 callsubr
            35 245 rlineto
            244 hlineto
            -34 -245 -71 -14 -85 callsubr
            -32 -230 rlineto
            -245 hlineto
            32 230 1 callsubr
            return
          </CharString>
          <CharString index="67">
            700 rmoveto
            36 -33 101 87 rlineto
            21 17 11 15 16 vvcurveto
            24 -23 26 -31 4 vhcurveto
            return
          </CharString>
          <CharString index="68">
            15 callsubr
            -142 -145 rlineto
            return
          </CharString>
          <CharString index="69">
            93 -37 callgsubr
            return
          </CharString>
          <CharString index="70">
            -63 callgsubr
            68 -14 -75 -534 rlineto
            return
          </CharString>
          <CharString index="71">
            20 18 17 23 19 hvcurveto
            39 46 return
          </CharString>
          <CharString index="72">
            vhcurveto
            -174 -119 return
          </CharString>
          <CharString index="73">
            rlineto
            -21 vlineto
            50 -26 rlineto
            14 -7 9 -8 -10 vvcurveto
            -14 -11 -6 -25 -35 -14 7 9 -16 vhcurveto
            endchar
          </CharString>
          <CharString index="74">
            575 rmoveto
            18 -19 rlineto
            12 5 75 44 -6 callgsubr
            6 -14 -21 vvcurveto
            -50 -26 -34 0 vhcurveto
            return
          </CharString>
          <CharString index="75">
            58 49 8 callsubr
            return
          </CharString>
          <CharString index="76">
            rmoveto
            67 36 50 51 46 -31 24 -55 -66 -38 -50 -50 -44 29 -27 58 hvcurveto
            8 45 rmoveto
            -27 -9 9 23 34 9 15 27 23 return
          </CharString>
          <CharString index="77">
            -89 callsubr
            endchar
          </CharString>
          <CharString index="78">
            -18 -16 callsubr
            -27 -13 14 25 return
          </CharString>
          <CharString index="79">
            11 5 86 43 68 vvcurveto
            39 return
          </CharString>
          <CharString index="80">
            5 vhcurveto
            -91 -165 rlineto
            193 -24 rmoveto
            74 72 rlineto
            22 22 24 26 22 vvcurveto
            23 -19 18 -44 6 vhcurveto
            -91 -165 rlineto
            return
          </CharString>
          <CharString index="81">
            17 70 25 -17 16 -21 12 hvcurveto
            -34 20 rlineto
            return
          </CharString>
          <CharString index="82">
            -126 rmoveto
            -21 -35 rlineto
            -14 20 -19 callgsubr
            29 -43 vlineto
            -35 -50 -34 callsubr
          </CharString>
          <CharString index="83">
            hlineto
            5 43 return
          </CharString>
          <CharString index="84">
            -63 93 43 30 callsubr
            236 hlineto
            4 43 -68 14 74 535 rlineto
            115 hlineto
            -4 -114 rlineto
            56 41 callsubr
            -19 -170 rlineto
            51 hlineto
            37 114 rlineto
            120 hlineto
            -76 -535 rlineto
            return
          </CharString>
          <CharString index="85">
            9 callsubr
            62 393 rlineto
            return
          </CharString>
          <CharString index="86">
            rlineto
            -2 -10 -2 -12 -12 vvcurveto
            -34 return
          </CharString>
          <CharString index="87">
            71 19 callgsubr
            return
          </CharString>
          <CharString index="88">
            -21 callsubr
            17 -19 49 return
          </CharString>
          <CharString index="89">
            673 rmoveto
            75 55 20 15 27 27 1 21 rlinecurve
            21 -18 22 -37 5 vhcurveto
            -99 -139 rlineto
            194 -27 rmoveto
            76 55 19 15 28 27 1 21 rlinecurve
            21 -19 22 -37 5 vhcurveto
            -99 -139 rlineto
            return
          </CharString>
          <CharString index="90">
            679 49 callsubr
            15 14 23 vvcurveto
            24 -16 20 return
          </CharString>
          <CharString index="91">
            27 rlineto
            -3 -5 -27 -17 -23 hhcurveto
            return
          </CharString>
          <CharString index="92">
            -14 -75 -534 return
          </CharString>
          <CharString index="93">
            46 -131 42 callgsubr
            8 61 rlineto
            -122 hlineto
            20 117 -86 -12 return
          </CharString>
          <CharString index="94">
            5 25 hhcurveto
            46 11 -28 -28 -66 -13 -40 -149 -37 hvcurveto
            endchar
          </CharString>
          <CharString index="95">
            rmoveto
            -10 callsubr
            return
          </CharString>
          <CharString index="96">
            vhcurveto
            -23 callgsubr
            return
          </CharString>
          <CharString index="97">
            45 -55 callgsubr
            return
          </CharString>
          <CharString index="98">
            11 callgsubr
            44 23 -71 callgsubr
            return
          </CharString>
          <CharString index="99">
            -131 rmoveto
            -29 callsubr
            61 76 39 0 hvcurveto
            -45 hlineto
            -57 -26 -48 -46 -58 vvcurveto
            -49 36 -16 45 63 43 49 0 vhcurveto
            endchar
          </CharString>
          <CharString index="100">
            rmoveto
            42 callsubr
            43 callgsubr
            hvcurveto
            endchar
          </CharString>
          <CharString index="101">
            hhcurveto
            49 57 -26 callsubr
            return
          </CharString>
          <CharString index="102">
            rmoveto
            19 -20 rlineto
            -28 callsubr
            return
          </CharString>
          <CharString index="103">
            787 rmoveto
            -8 36 callsubr
            return
          </CharString>
          <CharString index="104">
            -69 rlineto
            9 callgsubr
            return
          </CharString>
          <CharString index="105">
            77 vvcurveto
            28 -15 20 -31 -26 -13 -16 -10 return
          </CharString>
          <CharString index="106">
            589 -49 callgsubr
            return
          </CharString>
          <CharString index="107">
            37 26 vvcurveto
            49 -22 40 return
          </CharString>
          <CharString index="108">
            -68 callsubr
            -75 -534 rlineto
            return
          </CharString>
          <CharString index="109">
            vhcurveto
            -142 -145 return
          </CharString>
          <CharString index="110">
            rmoveto
            104 100 rlineto
            19 18 38 42 7 vvcurveto
            11 -30 39 -12 18 vhcurveto
            -82 106 -38 -23 68 -149 -96 -146 rlineto
            return
          </CharString>
          <CharString index="111">
            rlineto
            78 vlineto
            -162 -19 rlineto
            return
          </CharString>
          <CharString index="112">
            268 rlineto
            3 20 return
          </CharString>
          <CharString index="113">
            rmoveto
            38 23 -67 150 95 145 -28 23 -104 -100 rlineto
            -19 -18 -38 -42 -7 vvcurveto
            -11 29 -39 12 -18 vhcurveto
            return
          </CharString>
          <CharString index="114">
            rmoveto
            44 hlineto
            48 141 rlineto
            6 19 8 24 15 vvcurveto
            14 -7 13 -27 -18 -23 -7 -7 -15 vhcurveto
            endchar
          </CharString>
          <CharString index="115">
            32 22 callgsubr
            return
          </CharString>
          <CharString index="116">
            -78 27 callsubr
            return
          </CharString>
          <CharString index="117">
            557 rmoveto
            99 60 rlineto
            24 29 callsubr
            return
          </CharString>
          <CharString index="118">
            44 49 0 vhcurveto
            -19 -16 callsubr
            -27 -12 14 25 39 29 29 22 17 hvcurveto
            return
          </CharString>
          <CharString index="119">
            698 rmoveto
            16 callgsubr
            12 return
          </CharString>
          <CharString index="120">
            28 170 rlineto
            -478 hlineto
            return
          </CharString>
          <CharString index="121">
            rlineto
            -21 vlineto
            51 -26 rlineto
            14 -7 9 -8 -10 vvcurveto
            -14 -12 -6 -24 -35 -15 7 9 -15 vhcurveto
            return
          </CharString>
          <CharString index="122">
            25 25 vvcurveto
            21 -10 24 -38 10 vhcurveto
            return
          </CharString>
          <CharString index="123">
            21 callsubr
            rlineto
            return
          </CharString>
          <CharString index="124">
            vhcurveto
            10 11 25 2 18 hhcurveto
            42 23 -8 0 hvcurveto
            8 -99 rlineto
            32 hlineto
            0 45 31 return
          </CharString>
          <CharString index="125">
            -231 314 695 rmoveto
            -365 -835 69 -30 363 835 rlineto
            endchar
          </CharString>
          <CharString index="126">
            hvcurveto
            -20 32 rlineto
            return
          </CharString>
          <CharString index="127">
            35 callgsubr
            -69 14 return
          </CharString>
          <CharString index="128">
            -352 -26 -188 return
          </CharString>
          <CharString index="129">
            -26 rlineto
            0 28 23 39 42 13 -13 -24 -34 -34 -15 -61 -10 vhcurveto
            -24 vlineto
            return
          </CharString>
          <CharString index="130">
            -6 -43 rlineto
            427 hlineto
            20 160 rlineto
            -48 hlineto
            -38 -108 rlineto
            -100 hlineto
            return
          </CharString>
          <CharString index="131">
            698 rmoveto
            -18 callgsubr
            return
          </CharString>
          <CharString index="132">
            -7 -8 -78 rlineto
            49 hlineto
            28 138 rlineto
            -157 hlineto
            41 175 rlineto
            return
          </CharString>
          <CharString index="133">
            51 -83 -113 51 callgsubr
            44 return
          </CharString>
          <CharString index="134">
            -426 rlineto
            97 hlineto
            return
          </CharString>
          <CharString index="135">
            14 -63 callgsubr
            69 -14 return
          </CharString>
          <CharString index="136">
            14 40 -39 callsubr
            return
          </CharString>
          <CharString index="137">
            rmoveto
            -5 -43 rlineto
            return
          </CharString>
          <CharString index="138">
            39 41 31 -22 21 -31 -45 -27 -39 -40 -32 21 -21 31 hvcurveto
            return
          </CharString>
          <CharString index="139">
            hlineto
            -109 -10 -7 -46 rlineto
            93 hlineto
            -34 -231 -90 -13 rlineto
            return
          </CharString>
          <CharString index="140">
            -65 callsubr
            78 -17 return
          </CharString>
          <CharString index="141">
            51 callsubr
            22 -25 33 hvcurveto
            return
          </CharString>
          <CharString index="142">
            63 76 61 vvcurveto
            38 -19 26 return
          </CharString>
          <CharString index="143">
            -69 rlineto
            302 hlineto
            return
          </CharString>
          <CharString index="144">
            -705 rlineto
            -86 323 rmoveto
            253 hlineto
            4 39 -84 14 return
          </CharString>
          <CharString index="145">
            22 18 hvcurveto
            41 return
          </CharString>
          <CharString index="146">
            23 vvcurveto
            24 -16 21 -19 9 -35 callsubr
            rlineto
            return
          </CharString>
          <CharString index="147">
            -16 -49 -108 -28 -33 -59 hvcurveto
            371 -299 rmoveto
            return
          </CharString>
          <CharString index="148">
            hlineto
            13 callsubr
            return
          </CharString>
          <CharString index="149">
            -76 callsubr
            35 return
          </CharString>
          <CharString index="150">
            35 -108 -68 return
          </CharString>
          <CharString index="151">
            43 rmoveto
            -54 callgsubr
            return
          </CharString>
          <CharString index="152">
            rmoveto
            -8 -65 rlineto
            400 hlineto
            8 65 rlineto
            endchar
          </CharString>
          <CharString index="153">
            rmoveto
            -12 -108 55 -9 28 120 rlineto
            83 return
          </CharString>
          <CharString index="154">
            -34 -19 -52 hhcurveto
            -97 -45 61 151 248 return
          </CharString>
          <CharString index="155">
            108 -65 35 43 -68 62 return
          </CharString>
          <CharString index="156">
            -45 callsubr
            34 13 return
          </CharString>
          <CharString index="157">
            -32 22 -25 34 hvcurveto
            return
          </CharString>
          <CharString index="158">
            -38 -23 -33 -33 -34 return
          </CharString>
          <CharString index="159">
            46 hvcurveto
            73 65 -25 35 -109 -68 -102 return
          </CharString>
          <CharString index="160">
            -58 -341 14 callgsubr
            return
          </CharString>
          <CharString index="161">
            -170 hvcurveto
            -243 -25 callgsubr
            69 -14 return
          </CharString>
          <CharString index="162">
            7 59 27 55 vvcurveto
            46 -45 29 -60 -84 return
          </CharString>
          <CharString index="163">
            10 18 10 43 47 hvcurveto
            72 65 -25 35 return
          </CharString>
          <CharString index="164">
            rlineto
            -248 hlineto
            return
          </CharString>
          <CharString index="165">
            rlineto
            3 20 7 return
          </CharString>
        <CharString name=".notdef">
          -373 endchar
        </CharString>
        <CharString name="A">
          -26 -47 43 -107 callgsubr
          endchar
        </CharString>
        <CharString name="AE">
          170 -89 43 -59 callsubr
        </CharString>
        <CharString name="AEacute">
          170 417 679 -90 callgsubr
          -484 -675 -59 callsubr
        </CharString>
        <CharString name="Aacute">
          -26 231 678 -90 callgsubr
          -256 -674 -107 callgsubr
          endchar
        </CharString>
        <CharString name="Abreve">
          -26 474 811 rmoveto
          -24 21 rlineto
          -12 -12 -53 -57 -79 hhcurveto
          -55 -23 52 14 -7 hvcurveto
          -27 -11 -26 25 callgsubr
          49 -52 74 115 63 112 9 5 vhcurveto
          -521 -768 -107 callgsubr
          endchar
        </CharString>
        <CharString name="Acircumflex">
          -26 170 724 rmoveto
          26 -35 113 61 108 -65 34 43 -68 62 rlineto
          11 -13 -37 34 -11 hhcurveto
          -10 -15 -13 -39 -50 hvcurveto
          -294 -740 -107 callgsubr
          endchar
        </CharString>
        <CharString name="Adieresis">
          -26 203 698 rmoveto
          39 22 33 34 -52 callgsubr
          215 hmoveto
          39 22 33 34 35 -23 23 -32 34 callsubr
          -465 -655 -107 callgsubr
          endchar
        </CharString>
        <CharString name="Agrave">
          -26 244 7 callgsubr
          -291 -690 -107 callgsubr
          endchar
        </CharString>
        <CharString name="Amacron">
          -26 163 -4 callsubr
          8 69 rlineto
          -512 -744 -107 callgsubr
          endchar
        </CharString>
        <CharString name="Aogonek">
          -26 411 hmoveto
          98 hlineto
          4 43 -61 13 -114 598 rlineto
          -57 hlineto
          -272 -596 -56 -15 -6 -43 rlineto
          197 -24 callsubr
          -71 14 rlineto
          14 vlineto
          51 113 rlineto
          204 hlineto
          19 -108 rlineto
          -19 vlineto
          -68 -14 -4 -43 rlineto
          82 hlineto
          -44 -26 -33 -41 -48 vvcurveto
          -49 36 -16 45 63 11 callsubr
          -255 243 rmoveto
          107 240 11 26 2 2 3 -26 43 -242 rlineto
          endchar
        </CharString>
        <CharString name="Aring">
          -26 308 662 rmoveto
          68 35 50 51 46 -31 24 -55 -66 -37 -50 -50 -44 28 -27 58 hvcurveto
          8 45 rmoveto
          -26 -10 9 23 34 9 15 27 23 13 -7 -23 -35 -10 -16 -26 hvcurveto
          -363 -664 -107 callgsubr
          endchar
        </CharString>
        <CharString name="Aringacute">
          -26 309 864 -90 callgsubr
          35 -241 -31 callsubr
          13 -7 -23 -35 -10 -16 -26 hvcurveto
          -377 -664 -107 callgsubr
          endchar
        </CharString>
        <CharString name="Atilde">
          -26 129 733 rmoveto
          25 -28 80 38 78 -27 rlineto
          -9 24 28 -10 21 hhcurveto
          22 19 15 38 callsubr
          51 -25 28 -81 -38 -77 27 rlineto
          9 -25 -28 9 -21 hhcurveto
          -21 17 callgsubr
          -217 -740 -107 callgsubr
          endchar
        </CharString>
        <CharString name="B">
          1 13 43 rmoveto
          -6 -43 rlineto
          219 hlineto
          163 88 95 111 80 -63 37 -70 15 hvcurveto
          97 33 56 68 76 vvcurveto
          89 -68 44 -128 vhcurveto
          -205 34 callgsubr
          136 297 rmoveto
          34 236 rlineto
          0 16 4 23 66 39 -21 -70 -86 -59 -50 -119 -13 vhcurveto
          -41 -298 rmoveto
          35 253 rlineto
          113 -3 44 -39 -77 vvcurveto
          -85 -44 -55 -93 -37 -14 5 1 -4 vhcurveto
          endchar
        </CharString>
        <CharString name="C">
          -7 433 179 -83 callgsubr
        </CharString>
        <CharString name="Cacute">
          -7 293 679 -45 callsubr
          35 14 14 14 22 vvcurveto
          22 -14 21 -21 11 -35 callsubr
          rlineto
          162 -539 rmoveto
          -31 -105 rlineto
          -18 -22 -43 -11 -41 hhcurveto
          -106 -42 61 157 220 73 122 130 38 41 -9 -15 25 hvcurveto
          7 -97 rlineto
          50 hlineto
          23 156 rlineto
          13 -48 -59 7 -59 hhcurveto
          -191 -138 -174 -242 -169 79 -86 156 66 71 14 27 57 hvcurveto
          14 149 rlineto
          endchar
        </CharString>
        <CharString name="Cacute.loclPLK">
          -7 356 -40 callsubr
          -38 -677 -83 callgsubr
        </CharString>
        <CharString name="Ccaron">
          -7 238 795 rmoveto
          39 callgsubr
          12 34 -33 12 hhcurveto
          10 18 10 43 47 hvcurveto
          73 65 -26 43 callsubr
          -103 66 rlineto
          159 -657 -83 callgsubr
        </CharString>
        <CharString name="Ccedilla">
          -7 192 36 callgsubr
          20 30 -14 44 hhcurveto
          48 57 -26 callsubr
          18 vlineto
          73 4 60 19 39 18 14 149 rcurveline
          -50 hlineto
          -31 -105 rlineto
          -5 -7 -38 -24 -61 hhcurveto
          -108 -40 63 155 221 74 121 129 42 40 -11 -13 22 hvcurveto
          7 -97 rlineto
          50 hlineto
          23 156 rlineto
          9 -36 -57 11 -73 hhcurveto
          -195 -134 -179 -237 -143 55 -100 152 -11 hvcurveto
          -28 -40 rlineto
          -21 vlineto
          51 -26 rlineto
          13 -7 10 -8 -10 vvcurveto
          -14 -12 -6 -25 -34 -15 7 9 -15 vhcurveto
          endchar
        </CharString>
        <CharString name="Ccircumflex">
          -7 253 724 -101 callgsubr
          103 -604 -83 callgsubr
        </CharString>
        <CharString name="Cdotaccent">
          -7 388 -39 callgsubr
          45 -515 -83 callgsubr
        </CharString>
        <CharString name="D">
          -38 callsubr
          endchar
        </CharString>
        <CharString name="Dcaron">
          88 252 836 rmoveto
          -36 -41 67 -65 rlineto
          -25 25 24 -20 9 hhcurveto
          12 25 18 35 38 hvcurveto
          73 65 -26 43 callsubr
          rlineto
          -346 -727 32 callgsubr
          155 -94 86 54 callsubr
          -75 -534 rlineto
          95 -1 rmoveto
          76 536 rlineto
          1 7 19 1 23 hhcurveto
          136 56 -63 -154 hvcurveto
          -205 -2 -91 -120 -153 hhcurveto
          -21 -30 2 2 -20 hvcurveto
          endchar
        </CharString>
        <CharString name="Dcroat">
          88 9 43 32 callgsubr
          156 -94 85 54 callsubr
          -32 -227 rlineto
          -82 hlineto
          -9 -57 rlineto
          82 hlineto
          -34 -250 rlineto
          95 -1 rmoveto
          35 251 rlineto
          139 hlineto
          8 57 rlineto
          -139 hlineto
          33 228 rlineto
          1 7 19 1 23 hhcurveto
          129 63 -55 -162 hvcurveto
          -209 -2 -94 -116 -150 hhcurveto
          -21 -30 2 2 -20 hvcurveto
          endchar
        </CharString>
        <CharString name="E">
          -29 13 43 -106 callgsubr
          endchar
        </CharString>
        <CharString name="Eacute">
          -33 249 -17 callsubr
          -20 -47 callgsubr
          rlineto
          -213 -675 -106 callgsubr
          endchar
        </CharString>
        <CharString name="Ebreve">
          -29 485 811 -95 callgsubr
          -472 -768 -106 callgsubr
          endchar
        </CharString>
        <CharString name="Ecaron">
          -33 197 797 rmoveto
          67 -65 rlineto
          -13 13 33 -33 13 hhcurveto
          9 19 11 42 52 callsubr
          67 rlineto
          -221 -795 -106 callgsubr
          endchar
        </CharString>
        <CharString name="Ecircumflex">
          -33 189 724 rmoveto
          26 -35 112 61 48 callsubr
          rlineto
          11 -13 -37 34 -11 hhcurveto
          -10 -15 -13 -39 -50 hvcurveto
          -253 -740 -106 callgsubr
          endchar
        </CharString>
        <CharString name="Edieresis">
          -33 219 691 rmoveto
          40 21 32 35 -52 callgsubr
          215 hmoveto
          39 22 32 35 35 -22 23 -33 34 callsubr
          -421 -648 -106 callgsubr
          endchar
        </CharString>
        <CharString name="Edotaccent">
          -33 326 694 rmoveto
          44 22 35 34 36 -24 22 -33 -44 -21 -38 -33 -31 22 -25 34 hvcurveto
          -313 -651 -106 callgsubr
          endchar
        </CharString>
        <CharString name="Egrave">
          -33 248 733 rmoveto
          138 -54 23 41 callgsubr
          14 -14 34 -13 vhcurveto
          -235 -690 -106 callgsubr
          endchar
        </CharString>
        <CharString name="Emacron">
          -33 184 -4 callsubr
          9 69 rlineto
          -474 -744 -106 callgsubr
          endchar
        </CharString>
        <CharString name="Eng">
          54 callgsubr
          -60 -424 -3 -23 rlineto
          -5 hlineto
          -8 23 -195 481 rlineto
          -159 -28 callgsubr
          -5 -43 rlineto
          204 hlineto
          4 43 -69 14 63 445 rlineto
          5 hlineto
          5 -16 197 -479 -9 -51 -18 -23 -6 -7 rlinecurve
          -5 -5 -22 -6 -28 hhcurveto
          -73 hlineto
          -1 -14 -14 -27 vvcurveto
          -31 16 -10 33 108 94 74 133 18 vhcurveto
          77 552 -20 callsubr
          endchar
        </CharString>
        <CharString name="Eogonek">
          -33 485 484 rmoveto
          23 164 rlineto
          -412 -63 callsubr
          -71 -14 -6 -43 rlineto
          348 hlineto
          -44 -26 -33 -41 -48 vvcurveto
          -49 36 -16 46 62 11 callsubr
          30 hlineto
          20 160 rlineto
          -48 hlineto
          -38 -108 rlineto
          -100 hlineto
          -33 1 -35 2 -20 3 35 252 rcurveline
          129 hlineto
          3 -61 rlineto
          43 hlineto
          22 172 rlineto
          -43 hlineto
          -21 -61 rlineto
          -126 hlineto
          33 230 73 5 rlineto
          103 -111 hlineto
          endchar
        </CharString>
        <CharString name="Eth">
          92 11 43 30 callsubr
          233 hlineto
          214 5 callgsubr
          156 -95 85 -169 hvcurveto
          -243 -25 callgsubr
          68 -14 -32 -227 rlineto
          -81 hlineto
          -9 -57 rlineto
          82 hlineto
          -35 -250 rlineto
          96 -1 rmoveto
          35 251 rlineto
          138 hlineto
          9 57 rlineto
          -139 hlineto
          32 228 rlineto
          1 7 19 1 23 hhcurveto
          130 63 -55 -162 hvcurveto
          -209 -3 -93 -116 -150 hhcurveto
          -22 -29 2 2 -20 hvcurveto
          endchar
        </CharString>
        <CharString name="Euro">
          10 389 660 rmoveto
          -158 -92 -102 -150 -43 hvcurveto
          -50 hlineto
          -29 -63 rlineto
          343 hlineto
          29 63 rlineto
          -199 hlineto
          105 23 49 92 101 hhcurveto
          34 37 -11 -13 19 hvcurveto
          6 -97 rlineto
          51 hlineto
          23 156 rlineto
          10 -35 -63 10 -46 hhcurveto
          6 -586 rmoveto
          -20 -25 -34 -9 -31 hhcurveto
          -94 -31 85 104 -5 hvcurveto
          138 hlineto
          29 63 rlineto
          -311 hlineto
          -29 -63 rlineto
          74 hlineto
          -146 7 69 -99 138 hhcurveto
          64 68 21 20 40 hvcurveto
          15 149 rlineto
          -50 hlineto
          endchar
        </CharString>
        <CharString name="Euro.osf">
          -2 81 341 rmoveto
          -29 -63 rlineto
          318 hlineto
          29 63 rlineto
          -194 hlineto
          88 23 47 40 94 hhcurveto
          49 33 -12 -1 5 hvcurveto
          7 -91 rlineto
          50 hlineto
          17 139 rlineto
          14 -36 -39 14 -82 hhcurveto
          -137 -88 -82 -109 -38 hvcurveto
          -73 -111 rmoveto
          -29 -63 rlineto
          78 hlineto
          -131 2 75 -47 132 hhcurveto
          91 55 22 14 36 hvcurveto
          18 142 rlineto
          -50 hlineto
          -30 -94 rlineto
          -3 -4 -35 -20 -60 hhcurveto
          -73 -54 26 91 hvcurveto
          130 hlineto
          29 63 rlineto
          endchar
        </CharString>
        <CharString name="F">
          -57 13 43 rmoveto
          -6 -43 rlineto
          265 hlineto
          4 43 -97 14 33 228 rlineto
          138 hlineto
          3 -63 rlineto
          41 hlineto
          26 180 rlineto
          -43 hlineto
          -19 -61 rlineto
          -139 hlineto
          35 244 77 7 rlineto
          104 -103 55 hlineto
          25 159 rlineto
          -419 34 callgsubr
          endchar
        </CharString>
        <CharString name="G">
          28 408 26 -94 callsubr
        </CharString>
        <CharString name="G_tilde.loclGUA">
          28 217 -86 callgsubr
          150 -757 -94 callsubr
        </CharString>
        <CharString name="Gbreve">
          22 531 811 rmoveto
          -25 21 rlineto
          -12 -11 -54 -57 -79 hhcurveto
          -55 -23 52 14 -7 hvcurveto
          -26 -11 -27 25 callgsubr
          49 -52 74 115 63 112 9 6 vhcurveto
          -129 -785 -44 callgsubr
          endchar
        </CharString>
        <CharString name="Gcaron">
          28 384 685 -73 callgsubr
          24 -659 -94 callsubr
        </CharString>
        <CharString name="Gcircumflex">
          28 255 724 -101 callgsubr
          76 -757 -94 callsubr
        </CharString>
        <CharString name="Gcommaaccent">
          22 402 26 -44 callgsubr
          -190 -211 -5 callsubr
          -22 20 -32 -34 callgsubr
        </CharString>
        <CharString name="Gdotaccent">
          28 390 -39 callgsubr
          18 -668 -94 callsubr
        </CharString>
        <CharString name="H">
          -43 callgsubr
          endchar
        </CharString>
        <CharString name="Hbar">
          123 664 605 rmoveto
          6 43 rlineto
          -235 hlineto
          -6 -43 69 -14 -15 -104 rlineto
          -244 hlineto
          14 104 -68 callsubr
          -15 -104 rlineto
          -66 hlineto
          -8 -56 rlineto
          67 hlineto
          -53 -374 -71 -14 -5 -43 rlineto
          235 -15 callgsubr
          29 209 rlineto
          245 hlineto
          -29 -209 45 callgsubr
          53 374 rlineto
          66 hlineto
          9 56 rlineto
          -67 hlineto
          14 104 rlineto
          -133 -266 rmoveto
          -244 hlineto
          15 106 rlineto
          245 hlineto
          endchar
        </CharString>
        <CharString name="Hcircumflex">
          123 257 724 -101 callgsubr
          -322 -740 -41 callsubr
          endchar
        </CharString>
        <CharString name="I">
          -217 13 43 rmoveto
          -85 callsubr
          -75 -534 rlineto
          endchar
        </CharString>
        <CharString name="IJ">
          188 13 43 rmoveto
          -85 callsubr
          -75 -534 rlineto
          254 111 -81 callgsubr
        </CharString>
        <CharString name="Iacute">
          -217 153 -17 callsubr
          -19 10 vhcurveto
          -174 -119 rlineto
          -119 -675 rmoveto
          -5 -43 rlineto
          235 -50 callgsubr
        </CharString>
        <CharString name="Iacute_J.loclNLD">
          188 194 679 -90 callgsubr
          444 -39 -90 callgsubr
          -581 -675 rmoveto
          -85 callsubr
          -75 -534 rlineto
          254 111 -81 callgsubr
        </CharString>
        <CharString name="Ibreve">
          -217 388 811 -95 callgsubr
          -375 -768 rmoveto
          -85 callsubr
          -75 -534 rlineto
          endchar
        </CharString>
        <CharString name="Icircumflex">
          -227 72 724 rmoveto
          25 -35 113 61 48 callsubr
          rlineto
          11 -14 -36 34 -12 hhcurveto
          -10 -14 -13 -39 -50 hvcurveto
          -147 -740 30 callsubr
          236 hlineto
          4 43 -68 28 callsubr
          -76 -534 rlineto
          endchar
        </CharString>
        <CharString name="Idieresis">
          -217 123 691 rmoveto
          40 21 32 35 40 callgsubr
          201 hmoveto
          39 22 32 35 -52 callgsubr
          -312 -648 rmoveto
          -5 -43 rlineto
          235 -50 callgsubr
        </CharString>
        <CharString name="Idotaccent">
          -220 223 694 rmoveto
          45 21 35 34 36 -23 22 -33 -44 -21 -38 -33 -31 22 -25 33 hvcurveto
          -214 -651 rmoveto
          -6 -43 rlineto
          236 hlineto
          5 43 -69 28 callsubr
          -75 -534 rlineto
          endchar
        </CharString>
        <CharString name="Igrave">
          -217 156 7 callgsubr
          -144 -690 rmoveto
          -5 -43 rlineto
          235 -50 callgsubr
        </CharString>
        <CharString name="Imacron">
          -217 96 787 rmoveto
          -10 -69 rlineto
          267 hlineto
          10 69 rlineto
          -351 -744 rmoveto
          -5 -43 rlineto
          235 -50 callgsubr
        </CharString>
        <CharString name="Iogonek">
          -217 12 43 30 callsubr
          96 hlineto
          -44 -27 -33 -40 -48 vvcurveto
          -49 36 -16 45 63 43 49 0 vhcurveto
          -29 callsubr
          40 30 29 23 16 hvcurveto
          89 -50 callgsubr
        </CharString>
        <CharString name="Itilde">
          -217 55 -86 callgsubr
          -83 -740 rmoveto
          -85 callsubr
          -75 -534 rlineto
          endchar
        </CharString>
        <CharString name="J">
          -141 9 168 -81 callgsubr
        </CharString>
        <CharString name="Jcircumflex">
          -141 186 724 -101 callgsubr
          -254 -615 -81 callgsubr
        </CharString>
        <CharString name="K">
          -13 13 29 callgsubr
          31 hlineto
          134 -273 rlineto
          -25 13 11 -9 28 hhcurveto
          102 -24 callsubr
          -64 16 -153 298 204 234 56 -24 callgsubr
          -189 hlineto
          -6 -43 53 -13 rlineto
          -8 vlineto
          -196 -226 rlineto
          -29 hlineto
          33 233 1 callsubr
          endchar
        </CharString>
        <CharString name="Kcommaaccent">
          -13 9 29 callgsubr
          25 hlineto
          137 -273 rlineto
          -25 13 11 -9 28 hhcurveto
          105 hlineto
          4 43 -65 16 -151 298 204 234 56 19 callgsubr
          -189 -25 callgsubr
          53 -13 rlineto
          -8 vlineto
          -196 -226 rlineto
          -29 hlineto
          33 233 -20 callsubr
          -235 -25 callgsubr
          69 -15 callsubr
          rlineto
          117 -242 rmoveto
          19 -20 rlineto
          -67 callgsubr
        </CharString>
        <CharString name="L">
          -100 -14 callgsubr
          endchar
        </CharString>
        <CharString name="Lacute">
          -100 150 -17 callsubr
          -20 -47 callgsubr
          rlineto
          -118 -675 rmoveto
          -6 -43 rlineto
          398 hlineto
          22 -61 callgsubr
          69 -15 callsubr
          rlineto
          endchar
        </CharString>
        <CharString name="Lcaron">
          -100 371 568 rmoveto
          18 -19 rlineto
          12 5 75 44 -6 callgsubr
          7 -14 -21 vvcurveto
          -50 -27 -34 0 vhcurveto
          -362 -525 rmoveto
          -6 -43 rlineto
          398 hlineto
          22 -61 callgsubr
          69 -15 callsubr
          rlineto
          endchar
        </CharString>
        <CharString name="Lcommaaccent">
          -100 9 43 rmoveto
          -6 -43 rlineto
          398 hlineto
          22 -61 callgsubr
          69 -15 callsubr
          rlineto
          66 -242 -5 callsubr
          -22 20 -32 -34 callgsubr
        </CharString>
        <CharString name="Ldot">
          -100 -14 callgsubr
          277 243 rmoveto
          46 27 -38 callgsubr
        </CharString>
        <CharString name="Lslash">
          -101 9 43 rmoveto
          -6 -43 rlineto
          398 hlineto
          22 160 rlineto
          -48 hlineto
          -41 -108 rlineto
          -117 hlineto
          -42 5 35 248 109 43 rlineto
          59 vlineto
          -100 -40 31 224 -20 callsubr
          -235 -25 callgsubr
          69 -14 -37 -265 -95 -37 rlineto
          -56 vlineto
          86 33 -29 -209 rlineto
          endchar
        </CharString>
        <CharString name="M">
          219 13 43 rmoveto
          -6 -43 rlineto
          205 hlineto
          4 43 -69 14 62 439 2 24 rlineto
          4 hlineto
          82 -520 rlineto
          52 hlineto
          231 522 rlineto
          5 hlineto
          -6 -33 -61 -432 45 callgsubr
          76 534 71 14 4 43 rlineto
          -191 hlineto
          -201 -452 -16 -43 -2 -3 -2 46 -66 452 rlineto
          -190 34 callgsubr
          endchar
        </CharString>
        <CharString name="N">
          104 -36 callgsubr
          endchar
        </CharString>
        <CharString name="Nacute">
          104 329 681 12 callgsubr
          21 -38 9 vhcurveto
          -156 -119 rlineto
          -295 -677 -98 callgsubr
          endchar
        </CharString>
        <CharString name="Nacute.loclPLK">
          104 359 -40 callsubr
          -463 -813 -98 callgsubr
          endchar
        </CharString>
        <CharString name="Ncaron">
          104 260 795 rmoveto
          39 callgsubr
          12 34 -33 12 hhcurveto
          56 callsubr
          -108 -68 -103 66 rlineto
          -285 -793 -98 callgsubr
          endchar
        </CharString>
        <CharString name="Ncommaaccent">
          104 -36 callgsubr
          143 -242 rmoveto
          19 -20 rlineto
          -67 callgsubr
        </CharString>
        <CharString name="Ntilde">
          104 226 733 rmoveto
          25 -28 81 38 77 -27 rlineto
          -9 24 28 -10 22 hhcurveto
          21 19 15 38 callsubr
          51 -25 28 -80 -38 -78 27 rlineto
          9 -24 -28 9 -21 hhcurveto
          -21 -20 -14 -23 -18 hvcurveto
          -256 -740 -98 callgsubr
          endchar
        </CharString>
        <CharString name="O">
          105 277 -11 -105 callsubr
          endchar
        </CharString>
        <CharString name="OE">
          241 266 hmoveto
          444 hlineto
          20 160 rlineto
          -48 hlineto
          -39 -108 rlineto
          -99 hlineto
          -34 1 -35 3 -20 2 36 252 rcurveline
          128 hlineto
          4 -61 rlineto
          43 hlineto
          22 172 rlineto
          -43 hlineto
          -21 -61 rlineto
          -126 hlineto
          33 230 73 5 rlineto
          103 -111 54 hlineto
          23 164 rlineto
          -421 hlineto
          -204 -128 -181 -219 -165 90 -83 145 hvcurveto
          30 53 rmoveto
          -125 -32 80 130 hvcurveto
          216 3 68 119 137 hhcurveto
          34 28 -3 -6 25 hvcurveto
          -74 -532 rlineto
          -3 -19 -20 -1 -25 hhcurveto
          endchar
        </CharString>
        <CharString name="Oacute">
          105 286 730 rmoveto
          22 -38 138 54 rlineto
          34 13 15 13 23 vvcurveto
          25 -16 20 -19 10 vhcurveto
          -183 -861 -105 callsubr
          endchar
        </CharString>
        <CharString name="Oacute.loclPLK">
          105 345 -40 callsubr
          -183 -867 -105 callsubr
          endchar
        </CharString>
        <CharString name="Obreve">
          105 537 811 -95 callgsubr
          -260 -822 -105 callsubr
          endchar
        </CharString>
        <CharString name="Ocircumflex">
          105 247 737 rmoveto
          26 -35 112 60 48 callsubr
          -13 12 -37 33 -11 1 rlinecurve
          -10 -15 -12 -40 -50 hvcurveto
          -47 -807 -105 callsubr
          endchar
        </CharString>
        <CharString name="Odieresis">
          105 281 704 rmoveto
          39 22 32 35 35 -22 22 -33 -38 -22 -32 -34 -33 21 -25 33 hvcurveto
          215 hmoveto
          39 22 32 35 35 -23 22 -32 -38 -23 -32 -34 -33 22 -25 33 hvcurveto
          -219 -715 -105 callsubr
          endchar
        </CharString>
        <CharString name="Ograve">
          105 314 746 rmoveto
          138 -54 23 38 -174 120 rlineto
          -20 -10 -15 -20 -25 vvcurveto
          -23 14 -13 34 -13 vhcurveto
          -37 -757 -105 callsubr
          endchar
        </CharString>
        <CharString name="Ohorn">
          105 763 658 -93 callgsubr
        </CharString>
        <CharString name="Ohungarumlaut">
          105 261 -18 callsubr
          -116 -711 -105 callsubr
          endchar
        </CharString>
        <CharString name="Omacron">
          105 237 -4 callsubr
          8 69 rlineto
          -262 -798 -105 callsubr
          endchar
        </CharString>
        <CharString name="Oslash">
          105 170 -93 -57 callgsubr
        </CharString>
        <CharString name="Oslashacute">
          105 276 679 -90 callgsubr
          -84 -811 -57 callgsubr
        </CharString>
        <CharString name="Otilde">
          105 212 746 rmoveto
          25 -28 80 37 78 -27 rlineto
          -8 24 28 -10 21 hhcurveto
          22 18 15 22 19 hvcurveto
          41 50 -25 28 -81 -37 -77 27 rlineto
          8 -25 -28 10 -21 hhcurveto
          -21 -19 -15 -22 -18 hvcurveto
          24 -807 -105 callsubr
          endchar
        </CharString>
        <CharString name="P">
          -33 7 hmoveto
          252 hlineto
          4 43 -83 14 75 533 rlineto
          3 12 19 1 12 hhcurveto
          77 40 -27 -89 -93 -36 -76 -136 -5 hvcurveto
          -38 14 vlineto
          175 1 87 90 129 vvcurveto
          110 -72 52 -136 vhcurveto
          -215 -28 callgsubr
          rlineto
          endchar
        </CharString>
        <CharString name="Q">
          105 165 -112 rmoveto
          25 -32 55 25 175 -39 rlineto
          -6 27 25 -7 17 hhcurveto
          19 19 5 16 12 hvcurveto
          44 57 -23 24 -58 -29 -174 40 -17 4 -18 4 -15 2 rlinecurve
          36 39 rlineto
          201 19 97 183 209 vvcurveto
          152 -78 106 -168 -199 -127 -180 -232 -159 84 -94 138 -6 vhcurveto
          41 55 -57 callsubr
        </CharString>
        <CharString name="R">
          -12 7 hmoveto
          -21 callgsubr
          45 -4 17 -59 callgsubr
          -62 139 -18 -30 callsubr
        </CharString>
        <CharString name="Racute">
          -14 253 679 12 callgsubr
          20 -20 -47 callgsubr
          rlineto
          -224 -718 -51 callsubr
        </CharString>
        <CharString name="Rcaron">
          -14 309 685 rmoveto
          9 19 10 43 52 callsubr
          66 -37 -41 39 callgsubr
          13 33 -33 13 hhcurveto
          -303 -685 -51 callsubr
        </CharString>
        <CharString name="Rcommaaccent">
          -14 6 hmoveto
          -21 callgsubr
          47 -4 15 -59 callgsubr
          -61 139 -19 -89 callsubr
          7 -535 rmoveto
          11 5 87 43 68 vvcurveto
          39 -22 20 -33 -34 callgsubr
        </CharString>
        <CharString name="S">
          -97 171 -11 -82 callsubr
          endchar
        </CharString>
        <CharString name="Sacute">
          -97 220 678 rmoveto
          138 55 rlineto
          35 13 14 13 39 callsubr
          -27 -728 rmoveto
          139 87 76 124 74 -63 57 -63 55 hvcurveto
          -67 58 -49 41 50 vvcurveto
          49 28 32 74 55 42 -19 -3 5 -64 callsubr
          -78 63 -51 78 -66 hvcurveto
          65 -56 36 -37 -53 6 callgsubr
          endchar
        </CharString>
        <CharString name="Sacute.loclPLK">
          -97 258 -40 callsubr
          -202 -867 -82 callsubr
          endchar
        </CharString>
        <CharString name="Scaron">
          -97 287 685 rmoveto
          10 18 11 43 47 hvcurveto
          72 65 -25 34 -108 -68 -103 67 -36 -41 39 callgsubr
          12 34 -34 12 hhcurveto
          -116 -696 rmoveto
          139 87 76 124 79 -70 59 -67 58 hvcurveto
          -64 53 -41 40 46 -61 callsubr
          -76 59 -50 76 -65 hvcurveto
          68 -57 39 -38 -55 vvcurveto
          -59 -35 -42 -89 -40 -40 12 17 -17 vhcurveto
          -11 114 rlineto
          -55 hlineto
          -17 -152 rlineto
          -18 20 70 -29 76 hhcurveto
          endchar
        </CharString>
        <CharString name="Scedilla">
          -97 162 -189 rmoveto
          49 56 -26 callsubr
          19 vlineto
          125 9 77 74 116 vvcurveto
          73 -58 55 -61 53 vhcurveto
          -69 59 -54 43 52 vvcurveto
          49 28 32 74 55 42 -19 -3 5 -64 callsubr
          -81 67 -52 80 -68 hvcurveto
          63 -54 32 -36 -50 vvcurveto
          -59 -35 -42 -89 -68 -29 29 0 vhcurveto
          -11 114 rlineto
          -55 hlineto
          -17 -152 18 -16 57 -25 65 -5 rlinecurve
          -28 -40 14 callsubr
          -22 -35 rlineto
          -14 20 30 -14 44 hhcurveto
          endchar
        </CharString>
        <CharString name="Scircumflex">
          -97 155 724 -101 callgsubr
          -61 -794 -82 callsubr
          endchar
        </CharString>
        <CharString name="Scommaaccent">
          -97 171 -11 rmoveto
          139 87 76 124 74 -62 56 -62 55 hvcurveto
          -68 58 -50 42 50 vvcurveto
          49 28 32 74 55 42 -19 -3 5 -64 callsubr
          -80 66 -51 78 -68 hvcurveto
          64 -54 34 -36 -52 6 callgsubr
          -48 -194 rmoveto
          -67 callgsubr
        </CharString>
        <CharString name="T">
          -23 callsubr
          endchar
        </CharString>
        <CharString name="Tbar">
          -63 501 478 rmoveto
          13 callsubr
          -19 -170 rlineto
          51 hlineto
          37 114 rlineto
          120 hlineto
          -32 -228 rlineto
          -167 hlineto
          -8 -57 rlineto
          167 hlineto
          -36 -250 -71 -14 -5 -43 rlineto
          236 hlineto
          4 43 -68 14 35 250 rlineto
          173 hlineto
          8 57 rlineto
          -174 hlineto
          32 228 rlineto
          115 hlineto
          -4 -114 rlineto
          endchar
        </CharString>
        <CharString name="Tcaron">
          -63 297 685 rmoveto
          56 callsubr
          -109 -68 -102 66 -36 -41 66 -65 rlineto
          -12 13 34 -33 12 hhcurveto
          -210 -685 rmoveto
          235 hlineto
          -43 callsubr
          -71 -14 rlineto
          endchar
        </CharString>
        <CharString name="Thorn">
          -51 6 hmoveto
          -48 callsubr
          14 101 rlineto
          -3 14 19 -1 26 hhcurveto
          140 96 71 133 107 -75 43 -117 hvcurveto
          -54 hlineto
          12 83 -20 callsubr
          -235 -25 callgsubr
          69 -15 callsubr
          -71 -14 rlineto
          224 156 rmoveto
          -14 -13 2 3 -11 hvcurveto
          35 246 rlineto
          3 13 15 1 17 hhcurveto
          62 44 -18 -89 -93 -39 -55 -109 hvcurveto
          endchar
        </CharString>
        <CharString name="U">
          79 124 591 -104 callgsubr
          endchar
        </CharString>
        <CharString name="Uacute">
          73 312 686 49 callsubr
          15 14 39 callsubr
          -29 -736 -66 callgsubr
        </CharString>
        <CharString name="Ubreve">
          79 538 811 -95 callgsubr
          -414 -220 -104 callgsubr
          endchar
        </CharString>
        <CharString name="Ucircumflex">
          73 234 731 rmoveto
          25 -35 113 61 48 callsubr
          -14 11 -36 34 -12 1 rlinecurve
          -10 -14 -14 -39 -51 hvcurveto
          -186 -199 -104 callgsubr
          endchar
        </CharString>
        <CharString name="Udieresis">
          73 270 698 rmoveto
          40 21 33 34 40 callgsubr
          215 hmoveto
          40 21 33 34 -52 callgsubr
          -361 -107 -104 callgsubr
          endchar
        </CharString>
        <CharString name="Ugrave">
          73 294 740 rmoveto
          138 -54 23 41 callgsubr
          14 -14 34 -13 vhcurveto
          -170 -149 -104 callgsubr
          endchar
        </CharString>
        <CharString name="Uhorn">
          79 714 715 -97 callgsubr
          endchar
        </CharString>
        <CharString name="Uhungarumlaut">
          73 265 673 rmoveto
          76 55 19 15 28 27 1 21 rlinecurve
          21 -18 22 -38 5 vhcurveto
          -99 -139 rlineto
          195 -27 rmoveto
          76 55 rlineto
          19 15 28 27 21 vvcurveto
          21 -18 22 -37 5 vhcurveto
          -99 -139 rlineto
          -137 -711 -66 callgsubr
        </CharString>
        <CharString name="Umacron">
          73 232 787 rmoveto
          -9 36 callsubr
          9 69 rlineto
          -410 -196 -104 callgsubr
          endchar
        </CharString>
        <CharString name="Uogonek">
          73 317 -180 rmoveto
          63 43 49 0 hvcurveto
          -29 callsubr
          42 34 31 23 15 hvcurveto
          104 33 44 91 20 152 43 311 rcurveline
          72 15 5 43 rlineto
          -209 -84 callsubr
          12 12 2 1 10 vhcurveto
          1 -3 rlineto
          -35 -26 -25 -36 -42 vvcurveto
          -49 36 -16 45 vhcurveto
          endchar
        </CharString>
        <CharString name="Uring">
          73 375 662 -31 callsubr
          12 -7 -23 -35 -9 -16 -26 hvcurveto
          -122 -718 -66 callgsubr
        </CharString>
        <CharString name="Utilde">
          79 205 -86 callgsubr
          -122 -192 -104 callgsubr
          endchar
        </CharString>
        <CharString name="V">
          -37 187 -9 rmoveto
          57 hlineto
          270 599 53 15 6 43 rlineto
          -197 -25 callgsubr
          74 -14 rlineto
          -14 vlineto
          -181 -411 -10 -27 -2 -2 -4 31 -71 405 rlineto
          18 vlineto
          70 14 4 43 rlineto
          -228 hlineto
          -4 -43 57 -13 rlineto
          endchar
        </CharString>
        <CharString name="W">
          227 146 -8 -92 callsubr
        </CharString>
        <CharString name="Wacute">
          227 419 679 -90 callgsubr
          -251 -726 -92 callsubr
        </CharString>
        <CharString name="Wcircumflex">
          227 318 724 -101 callgsubr
          -249 -791 -92 callsubr
        </CharString>
        <CharString name="Wdieresis">
          227 348 698 -77 callsubr
          -417 -706 -92 callsubr
        </CharString>
        <CharString name="Wgrave">
          227 359 733 -80 callgsubr
          -213 -741 -92 callsubr
        </CharString>
        <CharString name="X">
          -11 -47 41 rmoveto
          -5 -41 rlineto
          207 hlineto
          5 41 -61 14 1 14 150 194 85 -185 rlineto
          -22 vlineto
          -63 -15 -4 -41 rlineto
          234 hlineto
          3 41 -58 13 -129 290 193 248 52 14 5 42 rlineto
          -194 hlineto
          -6 -42 61 -13 rlineto
          -14 vlineto
          -137 -177 -76 173 rlineto
          17 vlineto
          70 15 4 41 rlineto
          -240 hlineto
          -4 -41 54 -12 123 -272 -207 -267 rlineto
          endchar
        </CharString>
        <CharString name="Y">
          -60 103 41 -93 callsubr
          endchar
        </CharString>
        <CharString name="Y.loclGUA">
          92 399 648 -101 callsubr
        </CharString>
        <CharString name="Yacute">
          -60 239 686 12 callgsubr
          21 -20 9 -35 callsubr
          rlineto
          -120 -725 rmoveto
          -31 callgsubr
          -73 -14 rlineto
          endchar
        </CharString>
        <CharString name="Yacute.loclGUA">
          92 344 679 -90 callgsubr
          77 -70 -101 callsubr
        </CharString>
        <CharString name="Ycircumflex">
          -60 175 724 -101 callgsubr
          -149 -742 -93 callsubr
          endchar
        </CharString>
        <CharString name="Ycircumflex.loclGUA">
          92 243 724 -101 callgsubr
          79 -135 -101 callsubr
        </CharString>
        <CharString name="Ydieresis">
          -60 198 698 rmoveto
          39 22 33 34 35 -22 23 -33 34 callsubr
          214 hmoveto
          40 21 33 34 35 -22 23 -32 51 callsubr
          21 -25 33 hvcurveto
          -313 -657 rmoveto
          -3 -41 rlineto
          -31 callgsubr
          rlineto
          endchar
        </CharString>
        <CharString name="Ydieresis.loclGUA">
          92 273 698 -77 callsubr
          -89 -50 -101 callsubr
        </CharString>
        <CharString name="Ygrave">
          -60 216 733 -80 callgsubr
          -113 -692 -93 callsubr
          endchar
        </CharString>
        <CharString name="Ygrave.loclGUA">
          92 284 733 -80 callgsubr
          115 -85 -101 callsubr
        </CharString>
        <CharString name="Z">
          -44 -9 51 -70 callsubr
          endchar
        </CharString>
        <CharString name="Zacute">
          -44 232 -17 callsubr
          -20 10 vhcurveto
          -173 -119 rlineto
          -201 -718 rmoveto
          -46 callsubr
          -391 -523 rlineto
          endchar
        </CharString>
        <CharString name="Zacute.loclPLK">
          -44 285 -40 callsubr
          -409 -805 -70 callsubr
          endchar
        </CharString>
        <CharString name="Zcaron">
          -44 298 685 -73 callgsubr
          -289 -685 rmoveto
          -46 callsubr
          -391 -523 rlineto
          endchar
        </CharString>
        <CharString name="Zdotaccent">
          -44 287 -39 callgsubr
          -299 -643 rmoveto
          21 -51 rlineto
          -46 callsubr
          rlineto
          endchar
        </CharString>
        <CharString name="a">
          -44 303 105 -107 callsubr
          endchar
        </CharString>
        <CharString name="aacute">
          -39 265 10 callsubr
          -85 -601 -96 callsubr
        </CharString>
        <CharString name="abreve">
          -40 288 565 rmoveto
          134 36 136 0 hvcurveto
          -27 17 rlineto
          0 -46 -84 -75 -62 -13 46 38 -4 vhcurveto
          -14 -32 -8 -12 -12 hvcurveto
          -6 -5 -4 -8 -12 vvcurveto
          -43 40 -65 85 vhcurveto
          -135 -575 -96 callsubr
        </CharString>
        <CharString name="acircumflex">
          -40 401 559 rmoveto
          33 36 -79 103 rlineto
          20 -17 -11 16 -12 hhcurveto
          -13 -24 -26 -20 -21 hvcurveto
          -100 -96 30 -29 115 72 rlineto
          -149 -645 -96 callsubr
        </CharString>
        <CharString name="acute">
          -344 87 557 -86 callsubr
          endchar
        </CharString>
        <CharString name="acutecomb">
          -115 557 -86 callsubr
          endchar
        </CharString>
        <CharString name="acutecomb.case">
          -113 679 -90 callgsubr
          endchar
        </CharString>
        <CharString name="adieresis">
          -40 198 -9 callgsubr
          -237 -599 -96 callsubr
        </CharString>
        <CharString name="ae">
          106 479 57 -64 callgsubr
        </CharString>
        <CharString name="aeacute">
          106 497 -13 callgsubr
          81 -500 -64 callgsubr
        </CharString>
        <CharString name="agrave">
          -40 263 617 -72 callgsubr
          40 -25 24 -14 vhcurveto
          40 -512 rmoveto
          3 -2 rlineto
          -13 -23 -6 -17 -17 vvcurveto
          -29 14 -22 48 58 49 32 0 vhcurveto
          46 -73 vlineto
          71 444 rlineto
          -50 hlineto
          -28 -36 rlineto
          9 -17 -51 23 -103 callgsubr
          endchar
        </CharString>
        <CharString name="amacron">
          -40 162 681 rmoveto
          -8 -3 callsubr
          -156 -576 rmoveto
          3 -2 rlineto
          -13 -23 -6 -17 -17 vvcurveto
          -29 14 -22 48 58 49 32 0 vhcurveto
          46 -73 vlineto
          71 444 rlineto
          -50 hlineto
          -28 -36 rlineto
          9 -17 -51 23 -103 callgsubr
          endchar
        </CharString>
        <CharString name="ampersand">
          68 646 441 rmoveto
          -76 -37 -116 22 -9 2 -16 4 -10 1 rlinecurve
          16 26 8 29 33 vvcurveto
          76 -64 52 -92 -103 -87 -78 -94 -48 13 -29 52 -65 vhcurveto
          -82 -44 -55 -82 -77 vvcurveto
          -93 68 -50 126 70 60 21 40 48 vhcurveto
          53 -64 7 -84 rlineto
          47 hlineto
          10 79 rlineto
          3 24 0 4 3 vvcurveto
          22 -4 13 -13 19 vhcurveto
          -44 52 rlineto
          36 57 20 71 73 vvcurveto
          21 vlineto
          -5 20 8 -1 19 hhcurveto
          26 22 10 21 18 hvcurveto
          42 47 rlineto
          -251 -244 rmoveto
          -180 222 rlineto
          -42 52 -13 28 34 vvcurveto
          52 40 38 57 57 30 -29 -55 -62 -8 -16 -66 -67 vhcurveto
          21 -29 76 36 50 -13 rlineto
          2 -22 0 -24 -20 vvcurveto
          -48 -8 -42 -16 -35 vhcurveto
          -176 -124 rmoveto
          -82 -40 37 72 60 28 57 44 31 hvcurveto
          172 -209 rlineto
          -31 -34 -43 -17 -45 hhcurveto
          endchar
        </CharString>
        <CharString name="aogonek">
          -43 452 -104 rmoveto
          -3 -6 -27 -17 -23 hhcurveto
          -26 -14 14 25 52 55 36 16 8 hvcurveto
          15 8 14 7 1 vvcurveto
          -23 callgsubr
          71 444 rlineto
          -50 hlineto
          -28 -36 rlineto
          9 -17 -51 23 -84 callgsubr
          3 -2 rlineto
          -13 -23 -6 -17 -17 vvcurveto
          -30 14 -21 50 vhcurveto
          1 hlineto
          -41 -26 -29 -38 -46 vvcurveto
          -49 36 -16 46 62 44 49 0 vhcurveto
          -164 292 rmoveto
          -29 callgsubr
        </CharString>
        <CharString name="approxequal">
          -22 373 294 rmoveto
          20 19 9 19 18 hvcurveto
          35 41 -7 callgsubr
          -151 vmoveto
          20 19 9 20 18 hvcurveto
          35 40 -7 callgsubr
          endchar
        </CharString>
        <CharString name="aring">
          -43 309 562 rmoveto
          68 36 53 55 49 -31 26 -55 -67 -38 -54 -55 -47 28 -27 59 hvcurveto
          8 45 rmoveto
          -26 -10 12 24 37 9 18 27 24 12 -9 -25 -38 -9 -19 -27 hvcurveto
          -164 -617 -96 callsubr
        </CharString>
        <CharString name="aringacute">
          -44 304 808 -86 callsubr
          23 -280 -40 callgsubr
          -5 -502 -107 callsubr
          endchar
        </CharString>
        <CharString name="asciicircum">
          -16 283 649 rmoveto
          -238 -387 rlineto
          79 hlineto
          182 296 102 -296 rlineto
          80 hlineto
          -143 387 rlineto
          endchar
        </CharString>
        <CharString name="asciitilde">
          -44 56 256 rmoveto
          24 -28 77 35 102 -27 rlineto
          -8 30 20 -6 32 hhcurveto
          22 22 12 22 19 hvcurveto
          40 49 -23 30 -78 -36 -102 26 rlineto
          8 -30 -29 6 -25 hhcurveto
          -24 -20 -12 -22 -17 hvcurveto
          endchar
        </CharString>
        <CharString name="asterisk">
          -162 161 347 rmoveto
          34 7 45 23 7 hvcurveto
          21 77 96 -101 rlineto
          35 22 14 16 16 vvcurveto
          26 -29 12 -20 12 vhcurveto
          -66 36 135 68 rlineto
          45 -11 -9 15 -21 hhcurveto
          -22 -17 -19 -14 -16 hvcurveto
          -65 -56 -6 143 rlineto
          -25 hlineto
          -47 -7 -21 -20 -15 7 -16 6 -15 hvcurveto
          26 -72 -141 23 rlineto
          -11 -24 -6 -17 -11 vvcurveto
          -26 23 -5 16 9 19 2 1 9 vhcurveto
          79 9 -75 -131 rlineto
          -19 23 15 -9 13 hhcurveto
          66 154 rmoveto
          -34 10 3 37 35 13 20 -30 rlineto
          endchar
        </CharString>
        <CharString name="at">
          216 358 -109 rmoveto
          73 158 46 22 hvcurveto
          -17 33 rlineto
          -6 -17 -94 -31 -84 hhcurveto
          -172 -94 93 171 212 127 136 194 144 84 -87 -148 -140 -39 -79 -67 -29 -18 18 28 9 1 14 2 7 hvcurveto
          44 264 rlineto
          -42 hlineto
          -9 -10 -10 -9 -9 -11 rrcurveto
          11 -26 -37 8 -26 hhcurveto
          -99 -85 -113 -130 -85 39 -52 66 38 48 26 38 34 hvcurveto
          -44 12 43 -28 54 hhcurveto
          121 78 116 179 166 -122 114 -180 -230 -188 -188 -232 -197 126 -121 208 hvcurveto
          -11 243 rmoveto
          -38 -17 28 60 59 18 66 19 21 hvcurveto
          6 6 19 4 23 hhcurveto
          26 34 -10 -13 20 hvcurveto
          -29 -187 rlineto
          -20 -22 -34 -14 -25 hhcurveto
          endchar
        </CharString>
        <CharString name="atilde">
          -40 385 589 rmoveto
          -36 callsubr
          -22 23 -73 -36 -76 26 rlineto
          7 -22 -23 8 -18 hhcurveto
          -22 -16 -13 -25 -18 hvcurveto
          -39 -47 21 -23 73 35 72 -24 rlineto
          -8 21 25 -9 21 hhcurveto
          -232 -599 -96 callsubr
        </CharString>
        <CharString name="b">
          -69 137 622 rmoveto
          -103 -587 90 -30 rlineto
          0 43 -15 54 171 57 263 105 103 -39 52 -80 -67 -57 -62 -33 -25 vhcurveto
          -2 3 4 7 10 12 2 10 rlinecurve
          27 173 rlineto
          78 vlineto
          -163 58 callgsubr
          77 -549 rmoveto
          46 291 rlineto
          21 23 47 37 41 hhcurveto
          42 19 -24 -83 -108 -31 -107 -33 -53 hvcurveto
          -5 -3 -5 -2 -27 hhcurveto
          -59 -38 19 14 -22 hvcurveto
          endchar
        </CharString>
        <CharString name="backslash">
          -231 296 -167 rmoveto
          68 30 -363 832 -67 -30 rlineto
          endchar
        </CharString>
        <CharString name="bar">
          -185 146 699 rmoveto
          -855 68 855 vlineto
          endchar
        </CharString>
        <CharString name="braceleft">
          -326 127 -152 rmoveto
          24 47 rlineto
          -39 23 -14 16 35 vvcurveto
          9 0 11 3 12 vhcurveto
          43 210 rlineto
          1 4 1 10 4 vvcurveto
          37 -29 12 -7 4 vhcurveto
          8 5 39 14 6 48 14 199 rcurveline
          7 58 16 19 59 30 -13 45 rcurveline
          -85 -15 -71 -64 -87 vvcurveto
          -206 vlineto
          -65 -27 rlineto
          -41 vlineto
          17 -7 18 -8 17 -9 -58 -216 rcurveline
          -2 -10 -4 -21 -9 vvcurveto
          -68 48 -47 66 -17 vhcurveto
          endchar
        </CharString>
        <CharString name="braceright">
          -326 -25 -152 rmoveto
          86 15 70 64 87 vvcurveto
          206 vlineto
          65 27 rlineto
          41 vlineto
          -16 7 -19 8 -17 9 58 216 rcurveline
          2 10 4 21 9 vvcurveto
          68 -48 47 -66 17 vhcurveto
          -24 -47 rlineto
          39 -23 14 -16 -35 vvcurveto
          -9 0 -11 -3 -12 vhcurveto
          -43 -210 rlineto
          -1 -4 -1 -10 -4 vvcurveto
          -37 28 -13 9 -3 vhcurveto
          -10 -5 -38 -14 -6 -48 -13 -199 rcurveline
          -8 -58 -15 -19 -60 -30 rrcurveto
          endchar
        </CharString>
        <CharString name="bracketleft">
          -312 125 700 rmoveto
          -120 -851 rlineto
          157 hlineto
          23 49 -92 15 102 723 96 15 7 49 rlineto
          endchar
        </CharString>
        <CharString name="bracketright">
          -312 -58 -101 rmoveto
          -6 -50 rlineto
          172 hlineto
          120 851 rlineto
          -172 hlineto
          -7 -49 91 -14 -103 -724 rlineto
          endchar
        </CharString>
        <CharString name="breve">
          -243 191 565 -58 callgsubr
        </CharString>
        <CharString name="brokenbar">
          -185 146 699 rmoveto
          -365 68 365 vlineto
          -68 -490 rmoveto
          -365 68 365 vlineto
          endchar
        </CharString>
        <CharString name="bullet">
          -133 90 305 rmoveto
          -63 50 -50 63 63 51 50 63 63 -51 51 -63 -63 -50 -51 -63 vhcurveto
          endchar
        </CharString>
        <CharString name="c">
          -160 342 66 rmoveto
          -87 callgsubr
          -111 41 -50 97 119 56 76 0 vhcurveto
          endchar
        </CharString>
        <CharString name="cacute">
          -160 208 4 callgsubr
          -37 10 vhcurveto
          -142 -145 rlineto
          -14 -601 rmoveto
          119 56 76 0 hvcurveto
          -87 callgsubr
          -111 41 -50 97 vhcurveto
          endchar
        </CharString>
        <CharString name="cacute.loclPLK">
          -160 274 -48 callgsubr
          104 -506 rmoveto
          -87 callgsubr
          -111 41 -50 97 119 56 76 0 vhcurveto
          endchar
        </CharString>
        <CharString name="caron">
          -262 67 698 -76 callgsubr
          endchar
        </CharString>
        <CharString name="ccaron">
          -160 130 24 callsubr
          11 -16 12 hhcurveto
          13 23 -20 callgsubr
          -28 31 -115 -76 -97 79 rlineto
          176 -667 rmoveto
          -87 callgsubr
          -111 41 -50 97 119 56 76 0 vhcurveto
          endchar
        </CharString>
        <CharString name="ccedilla">
          -160 82 36 callgsubr
          21 -19 callgsubr
          21 vlineto
          104 7 50 67 0 vvcurveto
          -87 callgsubr
          -99 33 -51 77 -9 vhcurveto
          -29 -42 -34 callsubr
        </CharString>
        <CharString name="ccircumflex">
          -160 377 559 -102 callgsubr
          65 -569 rmoveto
          -87 callgsubr
          -111 41 -50 97 119 56 76 0 vhcurveto
          endchar
        </CharString>
        <CharString name="cdotaccent">
          -160 276 -26 callgsubr
          66 -518 rmoveto
          -87 callgsubr
          -111 41 -50 97 119 56 76 0 vhcurveto
          endchar
        </CharString>
        <CharString name="cedilla">
          -342 -30 -25 callsubr
        </CharString>
        <CharString name="cent">
          -126 153 56 46 callsubr
          16 49 57 0 vvcurveto
          -22 32 rlineto
          0 -59 -41 -44 -65 -27 25 118 119 67 117 10 15 17 callsubr
          56 vvcurveto
          52 -32 26 37 callgsubr
          -32 -83 -192 48 callgsubr
        </CharString>
        <CharString name="cent.osf">
          -126 145 -8 46 callsubr
          17 49 56 0 vvcurveto
          -22 33 rlineto
          0 -59 -41 -44 -65 -27 24 118 120 67 117 10 14 17 callsubr
          57 vvcurveto
          52 -32 25 37 callgsubr
          -31 -83 -193 48 callgsubr
        </CharString>
        <CharString name="circumflex">
          -263 296 559 -102 callgsubr
          endchar
        </CharString>
        <CharString name="colon">
          -338 108 315 rmoveto
          46 26 39 41 30 -21 22 -32 -44 -27 -39 -40 -31 21 -22 31 hvcurveto
          -43 -326 rmoveto
          46 27 -38 callgsubr
        </CharString>
        <CharString name="comma">
          -367 1 -127 rmoveto
          47 35 70 76 73 vvcurveto
          37 -19 25 -39 -43 -26 -39 -39 -29 19 -18 21 -1 vhcurveto
          5 -1 6 1 4 3 1 -3 rcurveline
          -70 -101 rlineto
          endchar
        </CharString>
        <CharString name="copyright">
          104 7 325 rmoveto
          -180 146 -146 180 180 146 146 180 181 -146 146 -180 -180 -146 -146 -181 vhcurveto
          326 -270 rmoveto
          -151 -109 120 149 149 109 120 151 149 114 -120 -149 -149 -114 -120 -149 hvcurveto
          81 220 rmoveto
          -10 -55 rlineto
          -2 -3 -13 -10 -42 hhcurveto
          -63 -34 26 88 94 27 25 69 33 19 -6 -1 3 hvcurveto
          10 -52 rlineto
          37 99 hlineto
          8 -22 -45 6 -46 hhcurveto
          -102 -64 -78 -94 -108 51 -60 107 63 39 13 9 21 hvcurveto
          98 vlineto
          endchar
        </CharString>
        <CharString name="currency">
          -16 99 190 rmoveto
          -85 -89 44 -44 91 85 rlineto
          -22 32 40 -12 43 hhcurveto
          45 42 14 25 34 hvcurveto
          95 -91 44 44 -92 95 rlineto
          23 33 15 41 44 vvcurveto
          42 -14 40 -22 32 vhcurveto
          90 93 -44 44 -94 -87 rlineto
          25 -33 -43 16 -46 hhcurveto
          -44 -40 -14 -23 -33 hvcurveto
          -88 84 -44 -44 82 -88 rlineto
          -24 -33 -14 -42 -45 vvcurveto
          -46 15 -43 25 -34 vhcurveto
          44 123 rmoveto
          65 56 57 65 65 57 -57 -65 -65 -57 -55 -65 -65 -56 55 65 vhcurveto
          endchar
        </CharString>
        <CharString name="d">
          -41 310 105 -79 callsubr
          43 293 -62 callsubr
          endchar
        </CharString>
        <CharString name="dagger">
          -120 111 -110 rmoveto
          61 hlineto
          78 422 rlineto
          129 vlineto
          100 25 callsubr
          -102 -175 -166 hlineto
          -11 -138 rlineto
          50 hlineto
          17 78 96 6 -34 -129 rlineto
          endchar
        </CharString>
        <CharString name="daggerdbl">
          -112 110 -111 rmoveto
          108 175 160 hlineto
          11 138 rlineto
          -50 hlineto
          -15 -78 -97 -6 45 162 rlineto
          161 vlineto
          96 25 callsubr
          -107 -175 -162 hlineto
          -10 -138 rlineto
          50 hlineto
          17 78 96 6 -45 -161 rlineto
          -162 vlineto
          -95 7 7 78 rlineto
          -50 hlineto
          -29 -138 rlineto
          159 hlineto
          endchar
        </CharString>
        <CharString name="dcaron">
          -39 498 570 rmoveto
          20 -19 rlineto
          11 5 76 49 -2 callsubr
          -6 vhcurveto
          7 -10 6 -14 -21 vvcurveto
          -50 -29 -39 0 vhcurveto
          -188 -465 -79 callsubr
          43 293 -62 callsubr
          endchar
        </CharString>
        <CharString name="dcroat">
          -39 155 -10 rmoveto
          67 53 52 63 35 hvcurveto
          3 -2 rlineto
          -12 -24 -7 -17 -20 vvcurveto
          -36 20 -11 44 54 21 callgsubr
          -72 vlineto
          77 485 rlineto
          59 57 -50 hlineto
          2 15 3 71 -139 -16 rlineto
          -27 vlineto
          55 -27 -4 -16 rlineto
          -174 -57 165 hlineto
          -14 -74 rlineto
          10 -22 -39 14 -43 hhcurveto
          -150 -79 -231 -127 -97 39 -63 80 hvcurveto
          28 71 rmoveto
          -40 -11 47 63 119 34 94 30 46 hvcurveto
          5 3 12 7 14 hhcurveto
          50 43 -20 -27 35 hvcurveto
          -44 -238 rlineto
          -39 -28 -50 -57 -48 hhcurveto
          endchar
        </CharString>
        <CharString name="degree">
          -290 119 479 rmoveto
          60 50 49 61 53 -39 41 -54 -60 -51 -50 -61 -53 38 -40 56 hvcurveto
          4 52 rmoveto
          -26 -18 20 24 30 24 23 29 25 18 -18 -25 -29 -21 -25 -31 hvcurveto
          endchar
        </CharString>
        <CharString name="dieresis">
          -229 110 589 -81 callsubr
          endchar
        </CharString>
        <CharString name="divide">
          -25 275 369 rmoveto
          47 25 40 38 33 -22 22 -33 -45 -26 -40 -39 -31 22 -23 32 hvcurveto
          -221 -132 rmoveto
          400 hlineto
          8 65 rlineto
          -400 hlineto
          166 -271 rmoveto
          47 25 40 39 33 -23 22 -33 -44 -27 -40 -39 -31 22 -24 33 hvcurveto
          endchar
        </CharString>
        <CharString name="dollar">
          -66 279 591 rmoveto
          36 43 -9 -13 25 hvcurveto
          8 -105 rlineto
          51 hlineto
          18 159 -29 10 -44 8 -44 3 rlinecurve
          8 101 -61 3 -17 -103 rlineto
          -112 -10 -70 -62 -91 vvcurveto
          -88 63 -45 85 -71 vhcurveto
          59 -47 33 -33 -56 vvcurveto
          -58 -48 -38 -73 -44 -42 12 18 -15 vhcurveto
          -11 113 rlineto
          -55 hlineto
          -17 -152 27 -23 63 -19 59 -4 rlinecurve
          -9 -110 60 -2 18 115 rlineto
          104 17 70 72 97 vvcurveto
          77 -53 52 -74 61 vhcurveto
          -65 54 -48 36 53 vvcurveto
          51 36 27 65 vhcurveto
          endchar
        </CharString>
        <CharString name="dollar.osf">
          -66 181 -9 rmoveto
          -9 -111 59 -3 19 118 rlineto
          79 11 84 39 116 158 -246 -35 109 vvcurveto
          48 23 21 83 55 31 -14 0 vhcurveto
          8 -73 rlineto
          49 hlineto
          17 135 -15 6 -51 12 -51 3 rlinecurve
          9 109 -61 2 -19 -114 rlineto
          -99 -15 -68 -56 -93 -160 243 31 -102 vvcurveto
          -64 -22 -15 -85 -57 -37 22 3 -6 vhcurveto
          -3 84 rlineto
          -53 hlineto
          -17 -134 20 -17 61 -18 59 -3 rlinecurve
          endchar
        </CharString>
        <CharString name="dotaccent">
          -416 116 -26 callgsubr
          endchar
        </CharString>
        <CharString name="dotbelowcomb">
          -120 -174 -100 callgsubr
          endchar
        </CharString>
        <CharString name="dotlessi">
          -254 129 426 -91 callsubr
        </CharString>
        <CharString name="e">
          -148 186 -9 rmoveto
          -105 callgsubr
          endchar
        </CharString>
        <CharString name="eacute">
          -148 213 10 callgsubr
          -600 vmoveto
          -105 callgsubr
          endchar
        </CharString>
        <CharString name="ebreve">
          -148 252 565 -98 callsubr
          -66 -574 rmoveto
          -105 callgsubr
          endchar
        </CharString>
        <CharString name="ecaron">
          -148 258 559 rmoveto
          12 23 -20 callgsubr
          -28 31 -115 -76 -97 79 -35 -35 16 callgsubr
          -74 -568 -66 callsubr
        </CharString>
        <CharString name="ecircumflex">
          -148 366 559 rmoveto
          32 36 -79 103 rlineto
          20 -16 -11 16 -13 hhcurveto
          -12 -24 -26 -20 -21 hvcurveto
          -100 -96 29 -29 115 72 rlineto
          -80 -644 rmoveto
          -105 callgsubr
          endchar
        </CharString>
        <CharString name="edieresis">
          -148 159 589 rmoveto
          43 24 36 33 34 -21 20 -31 -44 -22 -40 -34 -27 20 -69 callsubr
          -165 -598 rmoveto
          -105 callgsubr
          endchar
        </CharString>
        <CharString name="edotaccent">
          -148 270 584 -49 callsubr
          -39 -34 50 callsubr
          -86 -593 -66 callsubr
        </CharString>
        <CharString name="egrave">
          -148 327 557 rmoveto
          28 34 -142 145 rlineto
          -38 -10 -10 -24 -21 vvcurveto
          -25 39 -25 24 -14 vhcurveto
          -42 -626 rmoveto
          -105 callgsubr
          endchar
        </CharString>
        <CharString name="eight">
          -67 -11 56 559 56 hstemhm
          22 95 -35 90 162 88 -77 85 hintmask 11100100
          199 -11 rmoveto
          hintmask 11101000
          149 74 100 86 78 -39 38 -76 62 hvcurveto
          70 38 68 61 84 vvcurveto
          70 -56 54 -109 vhcurveto
          hintmask 11010100
          -100 -98 -66 -97 -64 39 -51 64 -53 hvcurveto
          hintmask 11100100
          -86 -43 -77 -73 -88 vvcurveto
          -67 52 -69 125 vhcurveto
          76 389 rmoveto
          hintmask 11010100
          -67 56 -36 39 51 vvcurveto
          55 37 25 60 70 21 -35 -49 -61 -38 -52 -47 -29 vhcurveto
          -54 -333 rmoveto
          hintmask 11100100
          -79 -25 42 51 55 19 63 80 49 hvcurveto
          hintmask 11101000
          74 -65 44 -32 -56 vvcurveto
          -70 -39 -37 -74 vhcurveto
          endchar
        </CharString>
        <CharString name="eight.osf">
          -60 198 332 rmoveto
          -83 -39 -82 -74 -90 vvcurveto
          -80 50 -59 133 149 72 92 108 61 -50 49 -65 53 vhcurveto
          72 33 63 51 94 vvcurveto
          72 -49 58 -121 -96 -94 -60 -113 -62 37 -42 64 -52 vhcurveto
          91 47 rmoveto
          -2 1 -3 2 -2 3 rrcurveto
          -68 53 -27 30 51 vvcurveto
          59 42 25 54 63 29 -41 -49 -71 -40 -33 -46 -30 vhcurveto
          -59 -74 rmoveto
          53 -42 68 -48 -53 vvcurveto
          -76 -45 -41 -68 -77 -33 32 67 52 21 60 81 49 vhcurveto
          endchar
        </CharString>
        <CharString name="ellipsis">
          -1 45 -10 rmoveto
          46 27 31 callsubr
          182 hmoveto
          46 27 39 41 31 -22 21 -32 -44 -28 -39 -40 -32 22 -21 31 hvcurveto
          181 hmoveto
          47 26 31 callsubr
          endchar
        </CharString>
        <CharString name="emacron">
          -148 116 612 rmoveto
          9 callgsubr
          -297 hlineto
          60 -690 -66 callsubr
        </CharString>
        <CharString name="emdash">
          427 10 303 rmoveto
          -73 954 73 vlineto
          endchar
        </CharString>
        <CharString name="endash">
          -59 6 302 rmoveto
          -72 475 72 vlineto
          endchar
        </CharString>
        <CharString name="eng">
          -22 197 -168 rmoveto
          115 87 81 125 18 hvcurveto
          45 303 rlineto
          8 51 2 16 16 vvcurveto
          59 -32 30 -60 -41 -62 -29 -46 -59 vhcurveto
          68 -65 callsubr
          77 -17 -22 callsubr
          23 36 53 22 36 hhcurveto
          31 13 -12 -30 -12 -1 -14 -4 -21 hvcurveto
          -51 -334 -6 -39 -13 -33 -15 -17 rlinecurve
          -6 -6 -24 -5 -25 hhcurveto
          -73 hlineto
          -7 -9 -6 -17 -16 vvcurveto
          -30 13 -11 35 vhcurveto
          endchar
        </CharString>
        <CharString name="eogonek">
          -148 216 -180 rmoveto
          63 43 49 0 hvcurveto
          -18 27 rlineto
          -3 -5 -27 -17 -24 hhcurveto
          -26 -13 14 25 52 55 36 15 8 hvcurveto
          47 23 28 34 0 vvcurveto
          -20 32 rlineto
          0 -56 -43 -50 -72 -25 28 99 vhcurveto
          20 vlineto
          140 28 117 25 156 vvcurveto
          47 -37 53 -82 -160 -73 -219 -149 -118 46 -36 102 5 5 0 1 4 vhcurveto
          -37 -27 -26 -37 -43 vvcurveto
          -49 36 -16 45 vhcurveto
          -80 430 rmoveto
          8 70 22 82 23 35 rrcurveto
          7 5 22 -13 callsubr
        </CharString>
        <CharString name="equal">
          -25 70 368 rmoveto
          -9 -66 rlineto
          399 hlineto
          9 66 rlineto
          -419 -157 rmoveto
          -9 -66 rlineto
          400 hlineto
          8 66 rlineto
          endchar
        </CharString>
        <CharString name="estimated">
          224 389 -14 rmoveto
          117 101 65 77 63 hvcurveto
          -61 hlineto
          -60 -56 -68 -38 -94 hhcurveto
          -80 -61 29 47 -46 hvcurveto
          206 520 vlineto
          203 -6 -130 144 -200 hhcurveto
          -188 -148 -151 -187 -186 149 -149 188 hvcurveto
          -185 370 rmoveto
          185 vlineto
          46 47 59 27 79 hhcurveto
          77 62 -28 -43 44 hvcurveto
          -187 vlineto
          endchar
        </CharString>
        <CharString name="eth">
          -80 184 -10 rmoveto
          153 94 144 232 128 -40 91 -80 55 hvcurveto
          61 40 -29 44 -86 -56 rlineto
          16 -39 -45 7 -49 hhcurveto
          -27 -29 -2 -4 -14 hvcurveto
          -46 vlineto
          52 41 -4 -13 39 hvcurveto
          -83 -53 30 -44 110 71 29 -19 18 -24 21 -46 rlinecurve
          4 -12 -16 2 -10 hhcurveto
          -135 -102 -151 -200 -112 51 -60 97 hvcurveto
          37 63 rmoveto
          -67 -21 31 95 97 26 128 27 30 hvcurveto
          6 5 23 6 17 hhcurveto
          38 32 -7 -14 26 hvcurveto
          4 -24 2 -40 -46 vvcurveto
          -97 -25 -118 -27 -34 vhcurveto
          -8 -8 -22 -5 -30 hhcurveto
          endchar
        </CharString>
        <CharString name="exclam">
          -345 132 667 rmoveto
          -53 -507 rlineto
          56 hlineto
          64 289 19 87 11 42 rrcurveto
          11 43 1 11 12 vvcurveto
          19 -10 16 -40 -42 -17 -12 0 vhcurveto
          -53 -681 rmoveto
          45 26 38 40 30 -21 21 -30 -44 -26 -39 -39 -30 20 -21 30 hvcurveto
          endchar
        </CharString>
        <CharString name="exclamdown">
          -345 134 397 rmoveto
          44 26 39 39 30 -20 21 -30 -45 -26 -38 -40 -30 21 -21 30 hvcurveto
          -92 -564 rmoveto
          42 17 12 0 hvcurveto
          53 507 rlineto
          -56 hlineto
          -64 -289 -19 -87 -11 -42 rrcurveto
          -11 -43 -1 -11 -12 vvcurveto
          -19 10 -16 40 vhcurveto
          endchar
        </CharString>
        <CharString name="f">
          -268 28 -178 rmoveto
          94 11 87 613 rlineto
          100 hlineto
          16 28 rlineto
          33 -107 vlineto
          4 27 8 52 17 22 5 5 rlinecurve
          7 7 24 6 36 hhcurveto
          68 hlineto
          0 17 17 27 13 callgsubr
          -72 50 callgsubr
          75 vlineto
          endchar
        </CharString>
        <CharString name="f_f">
          4 28 -178 rmoveto
          94 11 87 613 rlineto
          187 hlineto
          -72 -457 94 11 63 446 rlineto
          100 hlineto
          16 28 rlineto
          33 -107 vlineto
          46 callgsubr
          25 6 35 hhcurveto
          68 hlineto
          5 6 12 18 20 13 callgsubr
          -191 hlineto
          46 callgsubr
          24 6 36 hhcurveto
          68 hlineto
          5 6 12 16 22 13 callgsubr
          -72 50 callgsubr
          75 vlineto
          endchar
        </CharString>
        <CharString name="fi">
          -38 55 callgsubr
          85 hlineto
          75 -18 -63 -346 8 callgsubr
          44 59 48 31 0 vhcurveto
          46 -72 vlineto
          59 353 rlineto
          82 -238 vlineto
          4 31 8 49 19 27 5 4 rlinecurve
          6 6 21 3 22 hhcurveto
          43 14 -10 -11 67 hvcurveto
          12 28 16 36 38 -21 16 -61 -136 -85 -83 -122 -25 hvcurveto
          -74 50 callgsubr
          77 vlineto
          endchar
        </CharString>
        <CharString name="five">
          -88 -10 55 338 92 88 100 hstem
          76 93 vstem
          160 -10 rmoveto
          136 111 86 154 115 -94 56 -163 21 hvcurveto
          22 141 rlineto
          259 hlineto
          18 127 rlineto
          -52 hlineto
          -18 -42 rlineto
          -252 hlineto
          -53 -278 rlineto
          184 -22 47 -53 -96 vvcurveto
          -107 -45 -47 -84 -77 -24 27 0 vhcurveto
          -8 93 rlineto
          -31 hlineto
          -1 -46 -33 -49 -65 67 -28 104 hvcurveto
          endchar
        </CharString>
        <CharString name="five.osf">
          -99 94 -166 rmoveto
          166 124 107 160 140 -132 27 -125 12 hvcurveto
          31 158 rlineto
          253 hlineto
          18 127 rlineto
          -52 hlineto
          -18 -43 rlineto
          -245 hlineto
          -65 -298 rlineto
          181 -10 47 -33 -100 vvcurveto
          -150 -109 -45 -181 vhcurveto
          -43 vlineto
          -5 19 45 -4 43 hhcurveto
          endchar
        </CharString>
        <CharString name="fl">
          -14 55 callgsubr
          91 hlineto
          16 28 rlineto
          33 -99 vlineto
          5 29 8 50 20 28 5 4 rlinecurve
          6 5 25 5 39 hhcurveto
          39 12 -3 -3 39 hvcurveto
          -94 -541 rlineto
          -2 -10 -1 -12 -12 vvcurveto
          -34 16 -19 49 56 46 31 22 callgsubr
          84 551 rlineto
          78 vlineto
          0 -47 10 -52 -147 -86 -82 -122 -25 vhcurveto
          -73 50 callgsubr
          77 vlineto
          endchar
        </CharString>
        <CharString name="florin">
          -142 156 397 rmoveto
          -29 -354 rlineto
          -51 -4 -9 -37 -51 hhcurveto
          -28 -25 10 9 -20 hvcurveto
          0 -39 -8 -42 vvcurveto
          -35 28 -14 50 117 66 79 122 10 vhcurveto
          24 321 rlineto
          111 hlineto
          7 61 rlineto
          -112 hlineto
          9 62 rlineto
          42 8 15 18 38 hhcurveto
          36 28 -10 -9 19 hvcurveto
          0 41 7 42 vvcurveto
          36 -30 14 -49 -123 -62 -86 -116 -15 vhcurveto
          -82 -17 -7 -44 rlineto
          endchar
        </CharString>
        <CharString name="four">
          -53 0 70 102 67 438 -20 hstem
          241 hmoveto
          93 hlineto
          23 172 rlineto
          88 hlineto
          8 68 rlineto
          -87 hlineto
          55 416 -64 21 -374 -445 20 -60 rlineto
          261 hlineto
          -187 68 rmoveto
          -3 7 229 280 8 12 rlineto
          3 hlineto
          -3 -13 -38 -286 rlineto
          endchar
        </CharString>
        <CharString name="four.osf">
          -31 247 -164 rmoveto
          95 hlineto
          26 179 rlineto
          88 hlineto
          10 68 rlineto
          -87 hlineto
          65 430 -65 21 -386 -460 19 -59 rlineto
          261 hlineto
          12 68 rmoveto
          -199 hlineto
          -1 7 236 292 9 13 5 -2 -3 -11 rlineto
          endchar
        </CharString>
        <CharString name="fraction">
          -161 419 691 rmoveto
          -490 -705 53 -34 487 706 rlineto
          endchar
        </CharString>
        <CharString name="g">
          -63 134 -168 -99 callsubr
        </CharString>
        <CharString name="g_tilde.loclGUA">
          -63 367 -88 callsubr
          -233 -757 -99 callsubr
        </CharString>
        <CharString name="gbreve">
          -63 301 565 rmoveto
          133 37 136 0 hvcurveto
          -27 17 rlineto
          0 -46 -84 -76 -61 -13 46 38 -5 vhcurveto
          -14 -33 -9 -13 -12 hvcurveto
          -5 -6 -4 -6 -11 vvcurveto
          -43 41 -65 85 vhcurveto
          -167 -733 -56 callgsubr
        </CharString>
        <CharString name="gcaron">
          -63 161 698 -76 callgsubr
          -62 -901 -99 callsubr
        </CharString>
        <CharString name="gcircumflex">
          -63 395 559 -102 callgsubr
          -161 -803 -99 callsubr
        </CharString>
        <CharString name="gcommaaccent">
          -63 314 557 rmoveto
          26 15 15 11 7 hvcurveto
          -7 6 -16 18 30 vvcurveto
          40 34 33 2 1 vhcurveto
          -18 21 rlineto
          -11 -5 -86 -43 -69 vvcurveto
          -38 22 -20 32 vhcurveto
          -180 -725 -56 callgsubr
        </CharString>
        <CharString name="gdotaccent">
          -63 294 -26 callgsubr
          -160 -752 -99 callsubr
        </CharString>
        <CharString name="germandbls">
          1 106 471 rmoveto
          -98 -649 95 11 97 685 rlineto
          72 10 20 48 86 hhcurveto
          58 31 -35 -47 -91 -36 -30 -90 -49 hvcurveto
          -13 -85 rlineto
          139 -92 32 -27 -56 vvcurveto
          -66 -49 -11 -34 -52 -24 16 0 vhcurveto
          -9 98 rlineto
          -31 hlineto
          -1 -46 -35 -48 -72 70 -18 76 95 88 49 118 80 -44 31 -128 93 hvcurveto
          71 37 81 47 114 vvcurveto
          88 -67 54 -101 -121 -84 -87 -143 -21 vhcurveto
          endchar
        </CharString>
        <CharString name="grave">
          -341 126 617 -82 callgsubr
          endchar
        </CharString>
        <CharString name="gravecomb">
          -79 617 -82 callgsubr
          endchar
        </CharString>
        <CharString name="gravecomb.case">
          -96 733 -80 callgsubr
          endchar
        </CharString>
        <CharString name="greater">
          -16 31 74 rmoveto
          27 -72 463 222 8 62 -405 216 -43 -72 342 -175 rlineto
          endchar
        </CharString>
        <CharString name="greaterequal">
          -16 33 144 rmoveto
          -15 -85 492 189 7 62 -438 215 -12 -84 344 -164 rlineto
          -394 -223 rmoveto
          -8 -65 rlineto
          468 hlineto
          8 65 rlineto
          endchar
        </CharString>
        <CharString name="guillemotleft">
          -172 145 70 6 callsubr
          243 -106 6 callsubr
          endchar
        </CharString>
        <CharString name="guillemotright">
          -172 28 69 3 callsubr
          190 -23 3 callsubr
          endchar
        </CharString>
        <CharString name="guilsinglleft">
          -320 158 68 rmoveto
          36 21 -64 150 94 147 -28 25 -105 -102 rlineto
          -19 -18 -38 -42 -7 vvcurveto
          -11 30 -39 12 -18 vhcurveto
          endchar
        </CharString>
        <CharString name="guilsinglright">
          -320 50 69 rmoveto
          104 100 rlineto
          19 18 37 42 7 vvcurveto
          11 -29 39 -12 18 vhcurveto
          -82 106 -38 -23 66 -149 -94 -146 rlineto
          endchar
        </CharString>
        <CharString name="h">
          -18 153 623 -68 callgsubr
          endchar
        </CharString>
        <CharString name="hbar">
          -18 376 -5 rmoveto
          56 49 32 0 hvcurveto
          46 -74 vlineto
          43 263 rlineto
          3 19 6 36 27 vvcurveto
          49 -20 41 -71 -56 -69 -46 -28 -36 vhcurveto
          18 121 rlineto
          154 57 -146 hlineto
          3 16 3 73 -139 -16 rlineto
          -27 vlineto
          55 -27 -4 -19 rlineto
          -78 -57 69 hlineto
          -97 -555 rlineto
          95 hlineto
          60 389 rlineto
          11 19 56 33 50 hhcurveto
          35 7 -18 -26 -12 -2 -24 -3 -11 hvcurveto
          -45 -260 -21 callsubr
          14 -19 49 vhcurveto
          endchar
        </CharString>
        <CharString name="hcircumflex">
          -18 315 713 -102 callgsubr
          -62 -166 -68 callgsubr
          endchar
        </CharString>
        <CharString name="hookabovecomb">
          -117 536 -102 callsubr
          endchar
        </CharString>
        <CharString name="hookabovecomb.case">
          -106 676 -103 callsubr
          endchar
        </CharString>
        <CharString name="hungarumlaut">
          -232 89 556 rmoveto
          73 15 callgsubr
          -20 19 -43 -27 callsubr
          endchar
        </CharString>
        <CharString name="hyphen">
          26 callgsubr
        </CharString>
        <CharString name="i">
          -32 callgsubr
          endchar
        </CharString>
        <CharString name="i.loclTRK">
          -254 198 -26 callgsubr
          -69 -158 -91 callsubr
        </CharString>
        <CharString name="iacute">
          -254 105 557 rmoveto
          98 60 rlineto
          24 29 callsubr
          45 -596 rmoveto
          58 48 32 0 hvcurveto
          46 -72 vlineto
          59 -67 callsubr
          78 -17 -63 -343 rlineto
          -2 -10 -2 -13 -12 vvcurveto
          -34 16 -19 45 vhcurveto
          endchar
        </CharString>
        <CharString name="iacute_j.loclNLD">
          20 175 557 -86 callsubr
          319 -34 -86 callsubr
          -162 -676 rmoveto
          -33 callgsubr
          -87 callsubr
          -149 511 -91 callsubr
        </CharString>
        <CharString name="ibreve">
          -254 179 565 -98 callsubr
          -50 -139 -91 callsubr
        </CharString>
        <CharString name="icircumflex">
          -254 257 563 rmoveto
          32 35 -72 100 rlineto
          21 -17 -10 16 -13 hhcurveto
          -12 -24 -25 -22 -22 hvcurveto
          -92 -92 29 -30 108 70 rlineto
          -42 -641 -8 callgsubr
        </CharString>
        <CharString name="idieresis">
          -254 73 -9 callsubr
          -143 -594 -8 callgsubr
        </CharString>
        <CharString name="igrave">
          -254 124 617 rmoveto
          99 -75 callsubr
          40 -25 23 -14 vhcurveto
          5 -191 -91 callsubr
        </CharString>
        <CharString name="ij">
          -3 181 584 -49 callsubr
          -39 -34 50 callsubr
          270 -6 -49 callsubr
          -38 -35 50 callsubr
          -234 -746 rmoveto
          -87 callsubr
          -33 callgsubr
          hvcurveto
          -86 594 rmoveto
          -63 -344 8 callgsubr
          45 58 48 32 0 vhcurveto
          46 -72 vlineto
          59 -58 callsubr
        </CharString>
        <CharString name="imacron">
          -254 34 678 rmoveto
          -10 -69 rlineto
          264 hlineto
          10 69 rlineto
          -169 -252 -91 callsubr
        </CharString>
        <CharString name="infinity">
          254 382 185 rmoveto
          -88 55 45 -29 70 hhcurveto
          107 98 85 132 97 -65 61 -90 -71 -50 -28 -89 -81 hvcurveto
          89 -55 -47 28 -70 hhcurveto
          -107 -98 -86 -133 -97 65 -59 90 70 56 29 88 78 hvcurveto
          -40 70 rmoveto
          -55 -45 -53 -61 -55 hhcurveto
          -48 -36 39 56 82 40 54 66 61 41 -61 -54 29 hvcurveto
          99 hmoveto
          54 41 48 59 62 hhcurveto
          53 30 -34 -56 -84 -55 -51 -57 -1 hvcurveto
          -55 -37 59 54 -30 hvcurveto
          endchar
        </CharString>
        <CharString name="integral">
          -210 159 530 rmoveto
          -78 -574 rlineto
          -24 -4 -8 -16 -24 hhcurveto
          -40 -9 18 5 -22 hvcurveto
          -7 -6 -26 -17 -34 vvcurveto
          -29 30 -16 37 91 63 79 104 15 vhcurveto
          78 574 rlineto
          24 3 7 16 25 hhcurveto
          38 11 -18 -5 22 hvcurveto
          7 7 26 15 36 vvcurveto
          29 -29 15 -38 -85 -70 -81 -102 -13 vhcurveto
          endchar
        </CharString>
        <CharString name="iogonek">
          -254 178 584 rmoveto
          46 -55 callgsubr
          -25 -85 callgsubr
          34 hvcurveto
          -7 -708 rmoveto
          -27 -12 14 25 54 50 32 17 10 hvcurveto
          16 7 12 8 2 1 rrcurveto
          33 callgsubr
          78 -17 -64 -344 rlineto
          -2 -9 -2 -13 -12 vvcurveto
          -35 17 -19 46 vhcurveto
          1 hlineto
          -40 -27 -28 -37 -45 vvcurveto
          -49 36 -16 46 62 44 49 0 vhcurveto
          -19 -16 callsubr
          endchar
        </CharString>
        <CharString name="itilde">
          -254 271 -88 callsubr
          -142 -163 -91 callsubr
        </CharString>
        <CharString name="j">
          -272 182 578 -49 callsubr
          -38 -35 50 callsubr
          -234 -746 rmoveto
          -87 callsubr
          -33 callgsubr
          hvcurveto
          endchar
        </CharString>
        <CharString name="jcircumflex">
          -272 299 559 -102 callgsubr
          -213 -720 rmoveto
          -33 callgsubr
          -87 callsubr
          endchar
        </CharString>
        <CharString name="k">
          -66 146 623 rmoveto
          -108 -623 rlineto
          94 hlineto
          61 395 rlineto
          11 19 57 32 48 hhcurveto
          33 15 -15 -28 -56 -71 -65 -78 -49 hvcurveto
          -27 vlineto
          68 -2 callgsubr
          -69 146 rlineto
          65 42 94 20 callgsubr
          -162 58 callgsubr
          endchar
        </CharString>
        <CharString name="kcommaaccent">
          -69 147 623 rmoveto
          -107 -623 rlineto
          94 hlineto
          60 395 rlineto
          11 20 57 32 48 hhcurveto
          32 15 -15 -28 -56 -70 -65 -79 -49 hvcurveto
          -27 vlineto
          69 -2 callgsubr
          -70 146 rlineto
          65 42 95 20 callgsubr
          -163 58 callgsubr
          93 -823 -5 callsubr
          -22 20 -32 -34 callgsubr
        </CharString>
        <CharString name="kgreenlandic">
          -52 313 219 rmoveto
          65 42 94 62 94 vvcurveto
          59 -35 37 -60 -62 -68 -51 -23 -29 vhcurveto
          67 -65 callsubr
          77 -17 -78 -426 rlineto
          94 hlineto
          65 392 rlineto
          14 21 53 32 46 hhcurveto
          30 18 -14 -28 -55 -72 -67 -77 -49 hvcurveto
          -27 vlineto
          68 -2 callgsubr
          endchar
        </CharString>
        <CharString name="l">
          -270 155 623 -53 callsubr
          endchar
        </CharString>
        <CharString name="lacute">
          -273 86 702 rmoveto
          161 47 rlineto
          36 11 14 9 30 vvcurveto
          19 -12 20 -18 11 vhcurveto
          -198 -107 rlineto
          50 -747 rmoveto
          56 45 31 0 hvcurveto
          46 -72 vlineto
          86 551 rlineto
          82 vlineto
          -162 -23 rlineto
          -43 vlineto
          80 -16 -95 -541 -19 callsubr
          vhcurveto
          endchar
        </CharString>
        <CharString name="lcaron">
          -273 259 -33 callsubr
          -107 48 rmoveto
          -95 -541 -19 callsubr
          56 45 31 0 vhcurveto
          46 -72 vlineto
          86 551 4 callsubr
          -43 vlineto
          endchar
        </CharString>
        <CharString name="lcommaaccent">
          -273 149 623 -53 callsubr
          -31 -824 rmoveto
          19 -20 rlineto
          -67 callgsubr
        </CharString>
        <CharString name="ldot">
          -270 155 623 -53 callsubr
          202 -339 rmoveto
          46 27 -38 callgsubr
        </CharString>
        <CharString name="less">
          -16 53 274 rmoveto
          -8 -62 407 -210 41 72 -342 172 392 183 -27 73 rlineto
          endchar
        </CharString>
        <CharString name="lessequal">
          -25 488 62 rmoveto
          12 83 -344 164 376 132 16 85 -490 -188 -8 -62 rlineto
          -31 -286 rmoveto
          460 hlineto
          8 65 rlineto
          -460 hlineto
          endchar
        </CharString>
        <CharString name="logicalnot">
          -16 39 364 rmoveto
          -69 363 -176 61 245 vlineto
          endchar
        </CharString>
        <CharString name="longs">
          -268 28 -178 rmoveto
          94 11 99 697 6 38 12 32 13 13 rlinecurve
          8 8 27 5 32 hhcurveto
          68 hlineto
          4 4 13 16 24 vvcurveto
          29 -14 12 -32 -109 -85 -79 -125 -27 vhcurveto
          -72 50 callgsubr
          75 vlineto
          endchar
        </CharString>
        <CharString name="lozenge">
          -37 49 328 rmoveto
          124 -328 rlineto
          62 hlineto
          229 328 -128 321 rlineto
          -62 hlineto
          100 -322 rmoveto
          -154 -242 -81 243 152 229 rlineto
          endchar
        </CharString>
        <CharString name="lslash">
          -275 91 280 rmoveto
          -34 -198 -19 callsubr
          56 45 31 0 vhcurveto
          46 -72 vlineto
          38 245 104 41 rlineto
          59 vlineto
          -94 -38 38 244 4 callsubr
          -43 vlineto
          80 -16 -50 -281 -108 -43 rlineto
          -56 vlineto
          endchar
        </CharString>
        <CharString name="m">
          245 133 426 rmoveto
          -80 -426 rlineto
          99 hlineto
          61 393 rlineto
          3 6 66 42 52 hhcurveto
          32 7 -21 -18 -15 -2 -22 -4 -21 hvcurveto
          -60 -341 rlineto
          95 hlineto
          57 354 5 39 rlineto
          14 22 56 31 45 hhcurveto
          32 8 -21 -18 -15 -2 -22 -4 -21 hvcurveto
          -47 -259 -21 callsubr
          15 -19 52 56 46 8 callsubr
          46 281 58 callsubr
          42 19 vvcurveto
          41 -21 37 -66 -62 -77 -55 -22 -29 vhcurveto
          40 -1 -19 37 -67 hhcurveto
          -65 -80 -62 -13 -17 hvcurveto
          68 -65 callsubr
          endchar
        </CharString>
        <CharString name="macron">
          -226 72 -12 callgsubr
          endchar
        </CharString>
        <CharString name="minus">
          -25 79 298 45 callsubr
        </CharString>
        <CharString name="multiply">
          -25 67 151 rmoveto
          48 -54 132 117 102 -117 57 49 -103 118 134 117 -47 55 -135 -118 -100 115 -55 -49 100 -116 rlineto
          endchar
        </CharString>
        <CharString name="n">
          -6 130 426 -95 callsubr
          -165 -19 rlineto
          -44 vlineto
          endchar
        </CharString>
        <CharString name="nacute">
          -6 282 23 callgsubr
          -142 -145 rlineto
          134 -596 rmoveto
          56 47 32 0 hvcurveto
          -23 callgsubr
          45 5 callsubr
          7 0 callsubr
          -70 -58 -1 callgsubr
          -166 58 callgsubr
          78 -17 -22 callsubr
          10 15 58 35 52 hhcurveto
          35 9 -16 -26 -17 -3 -20 -2 -12 hvcurveto
          -48 -265 rlineto
          -2 -10 -2 -13 -11 57 callgsubr
          49 vhcurveto
          endchar
        </CharString>
        <CharString name="nacute.loclPLK">
          -6 321 -48 callgsubr
          -155 -146 -95 callsubr
          -165 -19 rlineto
          -44 vlineto
          endchar
        </CharString>
        <CharString name="napostrophe">
          54 61 -33 callsubr
          69 -149 -95 callsubr
          -165 -19 rlineto
          -44 vlineto
          endchar
        </CharString>
        <CharString name="ncaron">
          -6 191 2 callgsubr
          22 hvcurveto
          99 93 -27 31 -116 -76 -97 79 rlineto
          -95 -307 -95 callsubr
          -166 58 callgsubr
          endchar
        </CharString>
        <CharString name="ncommaaccent">
          -6 131 426 -95 callsubr
          -166 58 callgsubr
          136 -628 rmoveto
          19 -20 rlineto
          -67 callgsubr
        </CharString>
        <CharString name="nine">
          -44 -10 43 198 64 310 55 hstem
          48 104 214 106 vstem
          121 -10 rmoveto
          206 145 182 245 158 -74 85 -131 -121 -98 -111 -135 -113 70 -70 96 54 46 24 23 26 hvcurveto
          4 3 3 4 2 4 2 -1 rcurveline
          -171 -31 -94 -83 -141 hhcurveto
          -14 -15 1 2 -15 hvcurveto
          -6 -40 rlineto
          -4 22 32 -3 32 hhcurveto
          137 306 rmoveto
          -67 -39 42 93 114 40 60 67 74 33 -40 -105 -50 -3 -43 -6 -31 hvcurveto
          -19 -19 -40 -21 -40 hhcurveto
          endchar
        </CharString>
        <CharString name="nine.osf">
          -38 98 -167 rmoveto
          217 148 196 290 138 -65 75 -119 -142 -96 -113 -165 -90 62 -63 87 58 63 24 33 30 hvcurveto
          -194 -33 -92 -81 -187 hhcurveto
          -3 -43 rlineto
          -5 21 23 -2 28 hhcurveto
          140 332 rmoveto
          -62 -31 43 84 122 32 55 73 73 36 -42 -86 -54 -4 -43 -8 -38 hvcurveto
          -24 -26 -46 -17 -37 hhcurveto
          endchar
        </CharString>
        <CharString name="notequal">
          -25 161 145 rmoveto
          -79 -122 53 -34 101 156 rlineto
          232 hlineto
          8 66 rlineto
          -199 hlineto
          59 91 rlineto
          151 hlineto
          9 66 rlineto
          -117 hlineto
          74 115 -50 33 -97 -148 rlineto
          -210 hlineto
          -9 -66 rlineto
          177 hlineto
          -60 -91 rlineto
          -128 hlineto
          -8 -66 rlineto
          endchar
        </CharString>
        <CharString name="ntilde">
          -5 386 592 rmoveto
          -36 callsubr
          -21 22 -73 -35 -77 26 rlineto
          7 -21 -24 8 -18 hhcurveto
          -22 -16 -14 -24 -18 hvcurveto
          -39 -48 22 -22 72 35 72 -25 rlineto
          -8 21 25 -8 21 hhcurveto
          2 -597 rmoveto
          55 48 32 0 hvcurveto
          46 -74 vlineto
          46 5 callsubr
          6 0 callsubr
          -69 -59 -69 -48 -27 -35 vhcurveto
          68 33 callsubr
          9 callsubr
          61 393 rlineto
          10 16 57 35 53 hhcurveto
          35 9 -16 -26 -17 -3 -20 -2 -12 hvcurveto
          -49 -265 rlineto
          -1 -10 -2 -13 -11 vvcurveto
          -34 14 -19 50 vhcurveto
          endchar
        </CharString>
        <CharString name="numbersign">
          -16 102 121 rmoveto
          53 callgsubr
          122 hlineto
          53 callgsubr
          125 69 -112 hlineto
          23 122 rlineto
          111 69 -97 hlineto
          26 138 rlineto
          -70 hlineto
          -26 -138 rlineto
          -122 hlineto
          27 138 rlineto
          -71 hlineto
          -26 -138 rlineto
          -131 -69 117 hlineto
          -23 -122 rlineto
          -117 -69 hlineto
          309 69 rmoveto
          -122 hlineto
          23 122 rlineto
          122 hlineto
          endchar
        </CharString>
        <CharString name="o">
          -82 185 -10 -106 callsubr
          endchar
        </CharString>
        <CharString name="oacute">
          -82 220 10 callsubr
          -8 -601 -106 callsubr
          endchar
        </CharString>
        <CharString name="oacute.loclPLK">
          -82 294 -48 callgsubr
          -73 -582 -106 callsubr
          endchar
        </CharString>
        <CharString name="obreve">
          -82 277 565 -98 callsubr
          -92 -575 -106 callsubr
          endchar
        </CharString>
        <CharString name="ocircumflex">
          -82 383 559 -102 callgsubr
          -98 -645 -106 callsubr
          endchar
        </CharString>
        <CharString name="odieresis">
          -82 181 589 rmoveto
          43 24 36 33 34 -21 20 -30 -45 -22 -40 -34 -27 20 -69 callsubr
          -188 -599 -106 callsubr
          endchar
        </CharString>
        <CharString name="oe">
          139 185 -10 rmoveto
          62 52 25 46 40 hvcurveto
          -48 21 42 -22 74 hhcurveto
          61 71 30 42 36 hvcurveto
          -20 31 rlineto
          -22 -32 -43 -15 -29 hhcurveto
          -75 -26 32 95 hvcurveto
          1 20 rlineto
          186 37 70 57 115 vvcurveto
          58 -50 42 -69 -57 -51 -27 -54 -40 vhcurveto
          55 -20 -42 26 -66 hhcurveto
          -145 -100 -144 -209 -111 51 -59 98 hvcurveto
          36 63 rmoveto
          -69 -19 32 112 84 29 128 24 25 hvcurveto
          8 10 26 7 23 hhcurveto
          68 19 -31 -111 -90 -26 -119 -24 -32 hvcurveto
          -8 -8 -22 -5 -31 hhcurveto
          204 197 rmoveto
          10 78 21 78 21 31 rrcurveto
          7 6 20 5 26 hhcurveto
          37 20 -20 -36 -80 -36 -32 -125 -31 hvcurveto
          endchar
        </CharString>
        <CharString name="ogonek">
          -356 136 -8 callsubr
        </CharString>
        <CharString name="ograve">
          -82 343 556 rmoveto
          28 34 -142 145 rlineto
          -38 -10 -10 -23 -21 vvcurveto
          -26 39 -25 24 -14 vhcurveto
          -59 -626 -106 callsubr
          endchar
        </CharString>
        <CharString name="ohorn">
          -82 555 504 -97 callsubr
          endchar
        </CharString>
        <CharString name="ohungarumlaut">
          -82 172 556 rmoveto
          74 15 callgsubr
          -21 19 -42 5 vhcurveto
          -92 -165 rlineto
          194 -24 rmoveto
          74 72 rlineto
          22 22 24 26 22 vvcurveto
          23 -20 19 -43 5 vhcurveto
          -91 -165 rlineto
          -113 -590 rmoveto
          152 92 150 200 112 -46 61 -102 -151 -94 -152 -201 -110 50 -60 99 hvcurveto
          36 63 rmoveto
          -69 -19 32 112 106 36 113 17 18 hvcurveto
          10 11 27 5 21 hhcurveto
          69 18 -32 -110 -110 -32 -105 -18 -26 hvcurveto
          -10 -10 -27 -3 -24 hhcurveto
          endchar
        </CharString>
        <CharString name="omacron">
          -82 124 612 rmoveto
          297 hlineto
          8 69 rlineto
          -296 hlineto
          52 -691 -106 callsubr
          endchar
        </CharString>
        <CharString name="one">
          -160 21 -21 651 -20 hstem
          128 61 rmoveto
          -123 -16 -6 -45 rlineto
          340 hlineto
          6 46 -123 15 83 590 rlineto
          -53 hlineto
          -200 -37 rlineto
          -48 147 vlineto
          endchar
        </CharString>
        <CharString name="one.osf">
          -160 32 48 rmoveto
          -6 -48 rlineto
          300 hlineto
          6 48 -102 11 67 464 rlineto
          -54 hlineto
          -168 -35 rlineto
          -51 114 vlineto
          -53 -378 rlineto
          endchar
        </CharString>
        <CharString name="onehalf">
          216 156 -48 rmoveto
          487 706 -52 35 -489 37 callsubr
          42 288 rlineto
          -63 32 callsubr
          422 -351 rmoveto
          251 hlineto
          15 106 rlineto
          -43 hlineto
          -20 -49 rlineto
          -116 4 hlineto
          75 53 rlineto
          76 55 26 32 52 vvcurveto
          68 -53 25 -61 -91 -45 -66 0 vhcurveto
          28 -25 rlineto
          0 36 33 42 41 17 -17 -28 -31 -19 -20 -42 -37 vhcurveto
          -133 -115 rlineto
          endchar
        </CharString>
        <CharString name="onequarter">
          229 157 -48 rmoveto
          487 706 -55 35 -487 37 callsubr
          43 288 rlineto
          -64 32 callsubr
          534 -356 rmoveto
          77 hlineto
          16 98 rlineto
          57 hlineto
          9 53 rlineto
          -58 hlineto
          28 193 -51 18 -220 -218 13 -46 rlineto
          143 30 callgsubr
        </CharString>
        <CharString name="ordfeminine">
          -205 201 433 rmoveto
          3 -2 rlineto
          -10 -16 -5 -11 -12 vvcurveto
          -19 14 -15 34 38 37 24 0 vhcurveto
          41 -45 vlineto
          46 287 rlineto
          -44 hlineto
          -19 -24 rlineto
          5 -11 -33 16 -36 hhcurveto
          -111 -40 -167 -76 -69 25 -40 54 42 37 40 38 24 hvcurveto
          28 189 rmoveto
          -24 -142 rlineto
          -23 -18 -33 -36 -28 hhcurveto
          -22 -10 23 32 67 15 68 17 30 hvcurveto
          2 2 23 2 7 hhcurveto
          29 18 -6 -17 24 hvcurveto
          endchar
        </CharString>
        <CharString name="ordmasculine">
          -215 143 355 rmoveto
          105 61 106 120 87 -49 39 -65 -104 -69 -103 -123 -87 56 -39 65 hvcurveto
          20 57 rmoveto
          -35 -28 16 74 65 19 65 8 9 hvcurveto
          5 4 27 2 11 hhcurveto
          35 27 -15 -71 -65 -13 -63 -9 -15 hvcurveto
          -5 -6 -28 -2 -12 hhcurveto
          endchar
        </CharString>
        <CharString name="oslash">
          -82 120 -74 -60 callsubr
        </CharString>
        <CharString name="oslashacute">
          -82 237 557 -86 callsubr
          -90 -665 -60 callsubr
        </CharString>
        <CharString name="otilde">
          -82 348 589 rmoveto
          19 19 17 23 19 hvcurveto
          38 46 -21 23 -73 -36 -76 26 rlineto
          7 -22 -24 8 -17 hhcurveto
          -22 -16 -13 -25 -19 hvcurveto
          -38 -47 21 -23 73 35 71 -24 rlineto
          -8 22 24 -9 22 hhcurveto
          -163 -599 -106 callsubr
          endchar
        </CharString>
        <CharString name="p">
          -46 120 426 rmoveto
          -109 -604 98 11 29 182 rlineto
          -7 25 41 -8 40 hhcurveto
          159 65 260 103 100 -41 50 -79 -69 -68 -77 -21 -16 hvcurveto
          -2 3 rlineto
          6 8 6 11 12 vvcurveto
          57 vlineto
          -163 58 callgsubr
          110 -338 rmoveto
          44 273 rlineto
          20 23 52 40 42 hhcurveto
          43 16 -30 -67 -107 -35 -125 -28 -36 hvcurveto
          -6 -4 -23 -3 -17 hhcurveto
          -50 -42 26 15 -21 hvcurveto
          endchar
        </CharString>
        <CharString name="paragraph">
          42 279 196 rmoveto
          63 452 rlineto
          -110 -153 -85 -170 -130 107 -64 93 -3 hvcurveto
          -190 -361 rmoveto
          154 hlineto
          107 54 66 68 10 hvcurveto
          87 616 86 16 6 47 rlineto
          -174 hlineto
          -90 -652 -9 -58 -18 -24 -75 -10 rlinecurve
          -135 -17 rlineto
          endchar
        </CharString>
        <CharString name="parenleft">
          -331 143 -151 rmoveto
          24 42 rlineto
          -56 31 -23 21 149 vvcurveto
          211 58 299 158 53 vhcurveto
          -12 44 rlineto
          -222 -64 -72 -351 -186 vvcurveto
          -121 33 -105 112 -23 vhcurveto
          endchar
        </CharString>
        <CharString name="parenright">
          -331 -83 -107 rmoveto
          12 -44 rlineto
          223 65 71 350 186 vvcurveto
          121 -33 105 -112 23 vhcurveto
          -24 -42 rlineto
          55 -31 23 -21 -149 vvcurveto
          -211 -57 -299 -158 -53 vhcurveto
          endchar
        </CharString>
        <CharString name="partialdiff">
          -16 227 -10 rmoveto
          179 116 173 269 168 -75 93 -137 -60 -70 -28 -37 -42 hvcurveto
          21 -33 rlineto
          20 41 45 13 32 hhcurveto
          91 50 -63 -118 2 hvcurveto
          -15 -1 -15 -1 -15 vhcurveto
          16 -24 -47 12 -41 hhcurveto
          -156 -111 -110 -154 -109 70 -67 118 hvcurveto
          17 63 rmoveto
          -63 -36 45 80 125 50 57 109 41 46 -8 -12 22 hvcurveto
          -200 -20 -51 -87 -98 hhcurveto
          endchar
        </CharString>
        <CharString name="percent">
          160 178 -49 rmoveto
          394 589 -52 36 -396 -588 rlineto
          22 248 rmoveto
          111 62 78 118 69 -45 26 callsubr
          -50 85 hvcurveto
          11 55 rmoveto
          -36 -28 17 51 103 28 35 58 35 30 40 callsubr
          111 62 77 118 69 -45 26 callsubr
          -49 85 hvcurveto
          11 55 rmoveto
          -36 -28 17 50 103 28 35 58 35 30 49 callgsubr
          endchar
        </CharString>
        <CharString name="period">
          -386 45 -10 rmoveto
          47 26 -38 callgsubr
        </CharString>
        <CharString name="periodcentered">
          -354 89 199 rmoveto
          46 27 -38 callgsubr
        </CharString>
        <CharString name="perthousand">
          528 183 -49 rmoveto
          394 589 -51 36 -397 -588 rlineto
          22 248 rmoveto
          112 62 78 118 69 -45 51 -84 -112 51 callgsubr
          43 -50 85 hvcurveto
          11 55 rmoveto
          -35 -29 17 51 103 29 35 58 35 29 40 callsubr
          112 62 77 118 69 -45 51 -84 -112 51 callgsubr
          44 -49 84 hvcurveto
          342 hmoveto
          112 62 77 118 69 -46 26 callsubr
          -49 85 hvcurveto
          -331 55 rmoveto
          -35 -29 17 50 103 29 35 58 35 29 49 callgsubr
          342 hmoveto
          -35 -29 17 50 103 29 35 57 35 30 49 callgsubr
          endchar
        </CharString>
        <CharString name="pi">
          6 387 -5 rmoveto
          49 50 33 0 hvcurveto
          45 -72 vlineto
          63 363 rlineto
          3 hlineto
          31 1 27 8 30 28 43 39 rcurveline
          -28 42 -89 -39 rlineto
          -319 hlineto
          -51 -19 -13 -33 -33 hvcurveto
          -41 -37 27 -39 93 43 -71 -374 -61 -16 rlineto
          -46 110 vlineto
          25 8 7 17 4 24 71 387 rcurveline
          150 hlineto
          -53 -292 rlineto
          -5 -25 -8 -46 -22 vvcurveto
          -34 14 -22 53 vhcurveto
          endchar
        </CharString>
        <CharString name="plus">
          -33 216 233 rmoveto
          -20 -168 rlineto
          70 hlineto
          21 168 rlineto
          165 hlineto
          7 65 rlineto
          -166 hlineto
          21 167 rlineto
          -71 hlineto
          -20 -167 rlineto
          -164 hlineto
          -7 -65 rlineto
          endchar
        </CharString>
        <CharString name="plusminus">
          -25 225 302 rmoveto
          -20 -169 rlineto
          71 hlineto
          20 169 rlineto
          165 hlineto
          7 65 rlineto
          -165 hlineto
          20 166 rlineto
          -71 hlineto
          -20 -166 rlineto
          -164 hlineto
          -7 -65 rlineto
          -30 -218 45 callsubr
        </CharString>
        <CharString name="product">
          108 8 48 rmoveto
          -7 -48 rlineto
          253 hlineto
          6 48 -78 15 74 522 rlineto
          242 hlineto
          -74 -522 -81 -15 -6 -48 rlineto
          253 hlineto
          6 48 -77 15 73 522 81 15 6 48 rlineto
          -592 hlineto
          -6 -48 81 -15 -74 -522 rlineto
          endchar
        </CharString>
        <CharString name="q">
          -69 285 32 rmoveto
          -37 -210 98 11 108 689 rlineto
          -47 hlineto
          -28 -40 rlineto
          10 -19 -47 21 -52 hhcurveto
          -149 -80 -236 -127 -97 36 -62 83 68 56 56 63 35 hvcurveto
          3 -1 -10 -16 -12 -26 -6 -35 rlinecurve
          62 367 rmoveto
          -42 -246 rlineto
          -37 -26 -49 -55 -48 hhcurveto
          -42 -12 49 61 109 30 101 33 54 hvcurveto
          5 4 10 7 19 hhcurveto
          46 44 -21 -27 33 hvcurveto
          endchar
        </CharString>
        <CharString name="question">
          -185 73 159 rmoveto
          56 hlineto
          31 117 47 16 rlineto
          82 29 61 55 109 vvcurveto
          111 -70 67 -125 -78 -37 -20 -38 -29 16 -9 0 vhcurveto
          5 18 39 6 32 hhcurveto
          82 43 -42 -81 -57 -18 -29 -92 -32 hvcurveto
          -78 -27 rlineto
          -2 -324 rmoveto
          44 23 35 36 33 -22 24 -33 -40 -25 -35 -36 -37 22 -20 31 hvcurveto
          endchar
        </CharString>
        <CharString name="questiondown">
          -185 280 396 rmoveto
          40 25 35 36 37 -22 20 -33 -42 -23 -35 -36 -33 22 -24 33 hvcurveto
          -63 -549 rmoveto
          78 37 20 38 29 -16 9 0 hvcurveto
          -5 -18 -39 -6 -32 hhcurveto
          -82 -43 42 81 53 17 33 92 32 hvcurveto
          78 27 9 151 rlineto
          -55 hlineto
          -31 -117 -47 -16 rlineto
          -82 -29 -61 -55 -109 vvcurveto
          -111 70 -67 125 vhcurveto
          endchar
        </CharString>
        <CharString name="quotedbl">
          -212 55 493 rmoveto
          45 hlineto
          47 141 rlineto
          7 19 8 24 15 vvcurveto
          14 -7 13 -28 -18 -23 -7 -7 -15 vhcurveto
          121 -212 7 callsubr
        </CharString>
        <CharString name="quotedblbase">
          -196 31 -115 rmoveto
          51 32 35 callsubr
          -39 -37 -31 -38 -37 -29 21 -15 21 -3 vhcurveto
          5 5 0 2 4 hvcurveto
          1 -3 -69 -89 rlineto
          180 -21 rmoveto
          50 32 35 callsubr
          -38 -38 -30 -38 -37 -29 20 -15 22 -3 vhcurveto
          4 5 0 2 5 hvcurveto
          1 -3 -69 -89 rlineto
          endchar
        </CharString>
        <CharString name="quotedblleft">
          -234 122 480 rmoveto
          38 30 38 37 29 -20 15 -22 3 hvcurveto
          -4 -5 0 -2 -4 hvcurveto
          -1 3 68 47 callgsubr
          19 -26 38 vhcurveto
          156 hmoveto
          38 30 38 37 29 -21 15 -21 3 hvcurveto
          -5 1 -5 -1 -4 -2 -1 3 rcurveline
          69 47 callgsubr
          18 -26 39 vhcurveto
          endchar
        </CharString>
        <CharString name="quotedblright">
          -196 66 480 rmoveto
          50 33 35 callsubr
          -38 -38 -30 -38 -37 -29 21 -15 21 -3 vhcurveto
          4 -1 5 1 5 2 rrcurveto
          -3 vlineto
          -68 -89 rlineto
          180 -22 rmoveto
          50 33 35 callsubr
          -39 -37 -30 -38 -37 -29 20 -15 22 -3 vhcurveto
          4 5 0 2 4 hvcurveto
          1 -3 -69 -89 rlineto
          endchar
        </CharString>
        <CharString name="quoteleft">
          -391 102 467 rmoveto
          42 26 37 38 29 -18 17 -22 3 hvcurveto
          -4 1 -5 -1 -4 -1 -1 3 rcurveline
          70 94 -24 22 rlineto
          -47 -35 -70 -75 -68 vvcurveto
          -39 18 -25 39 vhcurveto
          endchar
        </CharString>
        <CharString name="quoteright">
          -396 70 473 rmoveto
          47 35 70 74 68 vvcurveto
          39 -18 25 -39 -42 -26 -37 -37 -30 18 -17 22 -3 vhcurveto
          4 -1 5 1 4 2 1 -3 rcurveline
          -70 -95 rlineto
          endchar
        </CharString>
        <CharString name="quotesinglbase">
          -365 29 -124 rmoveto
          46 35 71 75 68 vvcurveto
          38 -19 26 -39 -41 -26 -38 -37 -29 18 -17 21 -4 vhcurveto
          5 4 0 2 5 hvcurveto
          -3 vlineto
          -70 -94 rlineto
          endchar
        </CharString>
        <CharString name="quotesingle">
          -339 68 493 7 callsubr
        </CharString>
        <CharString name="r">
          -218 130 426 -65 callgsubr
          endchar
        </CharString>
        <CharString name="racute">
          -217 203 0 callgsubr
          23 29 callsubr
          -121 -591 rmoveto
          -50 callsubr
          78 -17 rlineto
          endchar
        </CharString>
        <CharString name="radical">
          -16 210 -6 rmoveto
          68 hlineto
          320 716 90 15 4 45 rlineto
          -131 hlineto
          -272 -613 -14 -40 -6 42 -61 336 rlineto
          -157 hlineto
          -4 -46 65 -15 rlineto
          endchar
        </CharString>
        <CharString name="rcaron">
          -217 109 2 callgsubr
          22 hvcurveto
          99 93 -27 31 -116 -76 -97 79 rlineto
          -13 -307 rmoveto
          -77 -426 rlineto
          -50 callsubr
          endchar
        </CharString>
        <CharString name="rcommaaccent">
          -217 131 426 rmoveto
          -77 -426 rlineto
          -50 callsubr
          -11 -628 rmoveto
          19 -20 rlineto
          -67 callgsubr
        </CharString>
        <CharString name="registered">
          116 355 225 rmoveto
          154 124 124 154 154 -124 124 -154 -154 -124 -124 -154 -154 124 -124 154 hvcurveto
          57 vmoveto
          -121 -94 96 125 124 94 97 121 120 95 -97 -124 -124 -95 -97 -120 hvcurveto
          -153 75 rmoveto
          153 29 hlineto
          -40 7 rlineto
          76 28 vlineto
          63 -98 rlineto
          -8 4 9 -5 11 hhcurveto
          80 29 hlineto
          -38 9 -60 86 rlineto
          37 13 25 35 41 vvcurveto
          47 -37 30 -59 vhcurveto
          -173 -34 hlineto
          37 -6 rlineto
          -215 vlineto
          -40 -7 rlineto
          113 122 rmoveto
          97 vlineto
          2 10 13 1 10 hhcurveto
          36 13 -12 -31 -39 -18 -18 -39 hvcurveto
          endchar
        </CharString>
        <CharString name="ring">
          -357 143 562 -40 callgsubr
          endchar
        </CharString>
        <CharString name="s">
          -146 159 -10 -89 callgsubr
          endchar
        </CharString>
        <CharString name="sacute">
          -143 201 0 callgsubr
          41 23 22 23 18 vvcurveto
          28 -16 19 -32 8 2 callsubr
          rlineto
          -13 -601 rmoveto
          103 85 70 83 69 -48 41 -62 45 hvcurveto
          -57 39 -40 3 callgsubr
          28 -5 -6 15 vhcurveto
          8 -91 rlineto
          31 hlineto
          26 12 21 33 30 vvcurveto
          56 -49 32 -86 -98 -84 -64 -76 -71 55 -40 70 -48 vhcurveto
          49 -34 32 -26 -35 vvcurveto
          -50 -26 -20 -67 -31 -33 7 9 -13 vhcurveto
          -9 98 rlineto
          -31 hlineto
          -14 -33 -58 -25 -61 46 -29 102 hvcurveto
          endchar
        </CharString>
        <CharString name="sacute.loclPLK">
          -146 250 -48 callgsubr
          -55 -582 -89 callgsubr
          endchar
        </CharString>
        <CharString name="scaron">
          -143 240 559 rmoveto
          12 24 -20 callgsubr
          -28 31 -115 -76 -98 79 -35 -35 16 callgsubr
          -81 -569 -89 callgsubr
          endchar
        </CharString>
        <CharString name="scedilla">
          -146 139 -189 rmoveto
          67 39 32 55 21 -12 17 -26 15 hvcurveto
          -34 20 rlineto
          19 vlineto
          97 5 79 69 79 vvcurveto
          69 -48 41 -63 45 vhcurveto
          -57 39 -39 28 37 vvcurveto
          35 26 15 61 22 28 -5 -6 15 vhcurveto
          8 -91 rlineto
          32 hlineto
          26 12 20 33 30 vvcurveto
          56 -49 32 -86 -97 -85 -64 -76 -70 53 -40 70 -48 vhcurveto
          49 -34 34 -25 -37 vvcurveto
          -50 -26 -20 -67 -31 -33 7 9 -13 vhcurveto
          -8 98 rlineto
          -32 hlineto
          -14 -33 -58 -25 -54 35 -28 77 -6 hvcurveto
          -29 -42 rlineto
          -21 vlineto
          50 -26 rlineto
          17 -9 6 -7 -9 vvcurveto
          -14 -11 -6 -25 -30 -16 5 11 -19 vhcurveto
          -21 -35 rlineto
          -19 26 31 -9 36 hhcurveto
          endchar
        </CharString>
        <CharString name="scircumflex">
          -146 353 559 -102 callgsubr
          -94 -645 -89 callgsubr
          endchar
        </CharString>
        <CharString name="scommaaccent">
          -146 160 -10 rmoveto
          103 85 70 83 68 -46 42 -63 44 hvcurveto
          -57 40 -41 3 callgsubr
          27 -5 -6 16 vhcurveto
          8 -91 rlineto
          31 hlineto
          26 12 21 33 30 vvcurveto
          56 -49 32 -86 -98 -84 -64 -76 -68 49 -39 69 -47 vhcurveto
          51 -36 37 -26 -38 vvcurveto
          -50 -26 -20 -67 -31 -33 7 9 -13 vhcurveto
          -9 98 rlineto
          -31 hlineto
          -14 -33 -58 -25 -61 46 -29 102 hvcurveto
          -48 -195 rmoveto
          52 22 45 54 40 vvcurveto
          36 -21 23 -33 -19 -19 -10 -16 -10 vhcurveto
          15 -14 8 -20 -21 vvcurveto
          -23 -16 -31 -21 -20 vhcurveto
          endchar
        </CharString>
        <CharString name="section">
          -7 431 211 rmoveto
          57 72 -161 122 rlineto
          -82 64 -40 26 47 vvcurveto
          62 35 22 69 60 45 -15 0 vhcurveto
          8 -97 rlineto
          54 hlineto
          19 157 rlineto
          7 -15 -71 18 -77 hhcurveto
          -146 -78 -76 -100 -87 77 -43 94 -68 hvcurveto
          -62 -487 rmoveto
          115 103 67 114 69 -51 48 -82 57 hvcurveto
          -183 128 -57 -70 160 -116 rlineto
          58 -44 63 -41 -53 vvcurveto
          -66 -46 -28 -72 -73 -35 32 6 -7 vhcurveto
          -7 106 rlineto
          -57 hlineto
          -20 -163 rlineto
          -14 18 81 -32 92 hhcurveto
          endchar
        </CharString>
        <CharString name="semicolon">
          -335 116 315 rmoveto
          46 26 39 41 30 -21 22 -32 -45 -27 -39 -40 -31 22 -22 31 hvcurveto
          -86 -442 rmoveto
          47 35 71 76 73 vvcurveto
          37 -19 25 -40 -42 -26 -39 -39 -28 18 -21 24 4 5 1 2 4 vhcurveto
          1 -3 -70 -100 rlineto
          endchar
        </CharString>
        <CharString name="seven">
          -104 21 -21 137 56 370 85 hstem
          393 563 rmoveto
          -11 vlineto
          -341 -509 rlineto
          -43 71 vlineto
          338 563 rlineto
          85 -412 -165 48 vlineto
          19 80 rlineto
          endchar
        </CharString>
        <CharString name="seven.osf">
          -107 357 422 rmoveto
          -349 -559 38 -26 rlineto
          56 hlineto
          326 601 8 84 rlineto
          -404 -164 49 hlineto
          18 80 rlineto
          258 hlineto
          endchar
        </CharString>
        <CharString name="six">
          -40 -10 57 282 68 257 -20 hstem
          32 105 218 102 vstem
          238 -10 rmoveto
          122 97 106 132 123 -70 46 -93 -87 -49 -48 0 hvcurveto
          35 133 112 105 172 29 -4 38 rcurveline
          -253 -11 -188 -200 -222 vvcurveto
          -168 90 -63 116 vhcurveto
          4 57 rmoveto
          -76 -29 60 96 33 2 37 6 26 hvcurveto
          12 17 34 18 53 hhcurveto
          80 26 -35 -94 -105 -34 -48 -79 hvcurveto
          endchar
        </CharString>
        <CharString name="six.osf">
          -13 248 -10 rmoveto
          125 110 90 161 99 -56 57 -103 -87 -57 -39 0 hvcurveto
          36 125 109 101 171 29 -3 39 rcurveline
          -242 -201 -223 -223 -153 86 -63 112 hvcurveto
          12 64 rmoveto
          -66 -38 49 89 34 2 34 9 46 hvcurveto
          0 42 23 70 70 33 -27 -93 -107 -35 -48 -87 vhcurveto
          endchar
        </CharString>
        <CharString name="slash">
          18 callsubr
        </CharString>
        <CharString name="space">
          -376 endchar
        </CharString>
        <CharString name="sterling">
          -41 332 597 rmoveto
          24 29 -3 -9 25 hvcurveto
          14 -89 rlineto
          55 hlineto
          16 140 rlineto
          11 -33 -59 12 -63 hhcurveto
          -135 -1 -64 -58 -22 -175 -9 -68 rcurveline
          -66 hlineto
          -8 -66 rlineto
          66 hlineto
          -13 -103 -5 -41 -10 -29 -14 -23 rlinecurve
          -18 -31 -23 -21 -14 -13 3 -15 9 -16 16 -4 23 4 32 21 23 18 198 -38 rcurveline
          -5 28 19 -3 13 hhcurveto
          24 14 9 25 17 hvcurveto
          35 50 -27 30 -65 -42 -209 44 18 26 2 46 3 20 rlinecurve
          12 91 rlineto
          158 hlineto
          8 66 rlineto
          -158 hlineto
          9 69 14 112 10 57 98 2 rlinecurve
          endchar
        </CharString>
        <CharString name="sterling.osf">
          -52 361 -7 rmoveto
          22 18 12 38 callsubr
          49 -26 30 -79 -38 -175 40 14 18 4 24 3 24 rlinecurve
          6 57 rlineto
          111 hlineto
          8 66 rlineto
          -109 hlineto
          6 47 rlineto
          80 10 11 46 71 hhcurveto
          37 25 -12 0 hvcurveto
          6 -89 rlineto
          55 hlineto
          18 140 rlineto
          1 -5 -58 22 -73 hhcurveto
          -106 -64 -45 -142 -19 hvcurveto
          -6 -48 rlineto
          -56 hlineto
          -8 -66 rlineto
          56 hlineto
          -7 -57 -5 -36 -15 -39 -20 -24 rlinecurve
          -16 -21 -16 -15 -11 -10 3 -12 9 -18 16 -3 21 4 31 17 25 22 158 -36 rcurveline
          -7 24 26 -3 21 hhcurveto
          endchar
        </CharString>
        <CharString name="summation">
          -81 -13 hmoveto
          430 hlineto
          19 178 rlineto
          -52 hlineto
          -38 -108 rlineto
          -263 hlineto
          3 15 204 276 -117 217 -2 13 rlineto
          232 hlineto
          10 -109 rlineto
          51 hlineto
          22 166 rlineto
          -410 hlineto
          -11 -53 138 -253 -216 -289 rlineto
          endchar
        </CharString>
        <CharString name="t">
          -27 callgsubr
          endchar
        </CharString>
        <CharString name="tbar">
          -224 343 446 rmoveto
          9 61 rlineto
          -122 hlineto
          19 117 -85 -12 -20 -105 rlineto
          -88 hlineto
          -9 -61 rlineto
          85 hlineto
          -19 -115 rlineto
          -76 hlineto
          -8 -54 rlineto
          75 hlineto
          -29 -172 24 callgsubr
          21 -19 64 68 72 30 0 vhcurveto
          46 -132 vlineto
          31 206 rlineto
          121 hlineto
          8 54 rlineto
          -120 hlineto
          17 115 rlineto
          endchar
        </CharString>
        <CharString name="tcaron">
          -226 290 570 rmoveto
          21 -19 rlineto
          11 5 76 49 -6 callgsubr
          6 -14 -21 vvcurveto
          -50 -29 -39 0 vhcurveto
          -160 -124 rmoveto
          53 callsubr
          -46 22 -19 63 69 71 30 0 vhcurveto
          -14 callsubr
          -20 -105 rlineto
          -88 hlineto
          -8 -61 rlineto
          endchar
        </CharString>
        <CharString name="thorn">
          -60 -63 -166 rmoveto
          231 -24 callsubr
          -68 14 19 118 rlineto
          -8 22 48 -7 31 hhcurveto
          118 111 177 188 102 -39 52 -80 -48 -59 -36 -56 -43 hvcurveto
          -2 2 7 11 5 8 1 7 rlinecurve
          26 174 rlineto
          78 vlineto
          -163 -19 rlineto
          -43 vlineto
          80 -16 -128 -732 -68 -14 rlineto
          315 183 rmoveto
          -38 -44 12 22 -38 hvcurveto
          45 282 rlineto
          38 43 43 24 30 hhcurveto
          42 17 -29 -72 -104 -26 -110 -37 -56 hvcurveto
          -6 -4 -9 -1 -24 hhcurveto
          endchar
        </CharString>
        <CharString name="three">
          -102 -9 74 245 70 205 75 hstem
          299 100 vstem
          157 -10 rmoveto
          142 100 91 129 67 -43 52 -72 22 hvcurveto
          3 vlineto
          75 28 50 67 71 vvcurveto
          87 -61 53 -103 -72 -81 -48 -66 -37 vhcurveto
          27 -18 rlineto
          39 40 41 18 50 hhcurveto
          65 34 -30 -54 -78 -67 -54 -99 -1 hvcurveto
          -25 -31 hlineto
          13 -27 rlineto
          32 hlineto
          89 44 -42 -84 -89 -47 -48 -88 -40 -40 10 15 -13 hvcurveto
          -8 93 rlineto
          -31 hlineto
          -14 -33 -57 -26 -60 60 -32 112 hvcurveto
          endchar
        </CharString>
        <CharString name="three.osf">
          -117 -18 -115 rmoveto
          -3 -44 rlineto
          0 36 -7 58 177 118 102 150 98 -56 33 -55 7 vhcurveto
          7 vlineto
          59 29 57 48 91 vvcurveto
          61 -32 69 -127 -121 -59 -94 0 vhcurveto
          29 -23 rlineto
          0 47 43 73 56 37 -18 -55 -74 -73 -54 -106 -19 vhcurveto
          -6 -30 17 -29 rlineto
          34 hlineto
          87 41 -26 -70 -136 -105 -59 -183 hvcurveto
          endchar
        </CharString>
        <CharString name="threequarters">
          233 175 -48 rmoveto
          488 706 -52 35 -490 -705 rlineto
          21 317 rmoveto
          89 66 44 72 57 -51 8 -26 3 hvcurveto
          4 vlineto
          28 55 callsubr
          -36 -53 0 vhcurveto
          24 22 callsubr
          9 -20 rlineto
          40 33 -3 -43 -36 -26 -25 -63 -31 -25 16 0 hvcurveto
          -23 -31 rlineto
          0 26 -34 69 vhcurveto
          416 -309 rmoveto
          77 hlineto
          16 98 rlineto
          58 hlineto
          8 53 rlineto
          -58 hlineto
          28 193 -50 18 -220 -218 13 -46 rlineto
          142 30 callgsubr
        </CharString>
        <CharString name="tilde">
          -210 292 -88 callsubr
          endchar
        </CharString>
        <CharString name="tildecomb">
          -44 -88 callsubr
          endchar
        </CharString>
        <CharString name="tildecomb.case">
          -281 -86 callgsubr
          endchar
        </CharString>
        <CharString name="trademark">
          349 124 395 rmoveto
          -35 178 35 vlineto
          -47 7 rlineto
          250 65 vlineto
          15 -58 rlineto
          42 107 -330 -107 42 hlineto
          15 58 rlineto
          66 -250 hlineto
          232 -10 rmoveto
          -32 144 32 vlineto
          -42 8 rlineto
          238 6 vlineto
          89 -278 rlineto
          70 hlineto
          92 276 rlineto
          6 -235 hlineto
          -43 -7 rlineto
          -34 176 34 vlineto
          -47 7 rlineto
          254 vlineto
          47 7 rlineto
          39 -175 vlineto
          -69 -215 -8 -40 -8 40 -67 215 rlineto
          -166 -39 hlineto
          42 -5 rlineto
          -257 vlineto
          endchar
        </CharString>
        <CharString name="two">
          -67 0 76 505 79 hstem
          335 102 vstem
          5 hmoveto
          393 hlineto
          30 165 -48 8 -37 -97 rlineto
          -239 hlineto
          -12 -1 -2 4 141 132 rlineto
          142 132 63 80 97 vvcurveto
          81 -58 59 -106 -116 -74 -85 -40 -24 vhcurveto
          25 -20 rlineto
          38 44 40 28 60 hhcurveto
          74 34 -35 -54 -56 -15 -50 -129 -126 hvcurveto
          -211 -206 rlineto
          endchar
        </CharString>
        <CharString name="two.osf">
          -64 28 hmoveto
          379 hlineto
          20 145 -47 9 -33 -81 rlineto
          -199 hlineto
          -20 -4 -4 10 114 84 rlineto
          106 77 82 58 97 vvcurveto
          84 -56 50 -105 -139 -69 -121 0 vhcurveto
          26 -21 rlineto
          21 26 54 45 77 hhcurveto
          53 30 -27 -41 -41 -11 -35 -100 -81 hvcurveto
          -205 -168 rlineto
          endchar
        </CharString>
        <CharString name="u">
          -16 123 427 -104 callsubr
          endchar
        </CharString>
        <CharString name="uacute">
          -16 268 10 callgsubr
          -97 -598 rmoveto
          -35 callgsubr
          hvcurveto
          3 -2 rlineto
          -16 -22 -8 -18 -16 vvcurveto
          -37 20 -15 44 49 47 27 5 8 vhcurveto
          46 -74 vlineto
          75 439 -78 callgsubr
          vhcurveto
          endchar
        </CharString>
        <CharString name="ubreve">
          -16 299 565 -98 callsubr
          -176 -138 -104 callsubr
          endchar
        </CharString>
        <CharString name="ucircumflex">
          -16 404 559 -102 callgsubr
          -160 -642 rmoveto
          -35 callgsubr
          hvcurveto
          3 -2 rlineto
          -16 -22 -8 -18 -16 vvcurveto
          -37 20 -15 44 49 47 27 5 8 vhcurveto
          46 -74 vlineto
          75 439 -78 callgsubr
          vhcurveto
          endchar
        </CharString>
        <CharString name="udieresis">
          -16 206 -9 callsubr
          -254 -598 rmoveto
          91 72 82 31 25 hvcurveto
          3 -2 rlineto
          -17 -22 -7 -18 -17 vvcurveto
          -36 20 -15 44 49 46 27 4 8 -11 callsubr
          75 439 -92 -11 -62 -353 rlineto
          -25 -25 -60 -53 -45 hhcurveto
          -27 -8 15 25 20 4 21 2 15 hvcurveto
          43 269 rlineto
          73 33 callsubr
          -49 -272 rlineto
          -4 -19 -4 -26 -33 vvcurveto
          -60 28 -25 50 vhcurveto
          endchar
        </CharString>
        <CharString name="ugrave">
          -16 263 617 rmoveto
          99 -75 callsubr
          40 -25 23 -14 vhcurveto
          -140 -190 -104 callsubr
          endchar
        </CharString>
        <CharString name="uhorn">
          -16 621 504 -99 callgsubr
          endchar
        </CharString>
        <CharString name="uhungarumlaut">
          -16 201 556 rmoveto
          74 15 callgsubr
          -21 19 -42 -27 callsubr
          -183 -587 rmoveto
          82 71 69 43 35 hvcurveto
          3 -2 rlineto
          -16 -21 -8 -18 -17 vvcurveto
          -37 20 -15 44 46 47 26 6 11 vhcurveto
          44 callgsubr
          -30 -30 -58 -48 -42 hhcurveto
          -27 -9 14 25 19 3 16 4 22 18 callgsubr
          -22 -4 -25 -32 vvcurveto
          -62 31 -22 47 vhcurveto
          endchar
        </CharString>
        <CharString name="umacron">
          -16 170 681 rmoveto
          -8 -3 callsubr
          -344 -254 -104 callsubr
          endchar
        </CharString>
        <CharString name="underscore">
          -93 3 hmoveto
          -70 447 70 vlineto
          endchar
        </CharString>
        <CharString name="uni00A0">
          -376 endchar
        </CharString>
        <CharString name="uni00AD">
          26 callgsubr
        </CharString>
        <CharString name="uni00B2">
          -230 3 401 rmoveto
          16 -40 rlineto
          251 hlineto
          15 107 rlineto
          -43 hlineto
          -20 -50 rlineto
          -116 4 hlineto
          75 54 rlineto
          76 54 26 32 53 vvcurveto
          67 -53 25 -61 -91 -45 -65 0 vhcurveto
          28 -26 rlineto
          0 36 34 42 41 17 -18 -28 -31 -19 -19 -42 -38 vhcurveto
          endchar
        </CharString>
        <CharString name="uni00B3">
          -253 32 420 rmoveto
          -23 -31 rlineto
          0 26 -34 69 89 66 44 72 57 -52 8 -26 3 vhcurveto
          4 vlineto
          29 55 callsubr
          -37 -53 0 vhcurveto
          25 22 callsubr
          8 -20 rlineto
          41 32 -3 -43 -36 -25 -25 -63 -31 -25 16 0 hvcurveto
          endchar
        </CharString>
        <CharString name="uni00B5">
          -55 callsubr
        </CharString>
        <CharString name="uni00B9">
          -246 22 402 rmoveto
          -4 -41 rlineto
          252 hlineto
          5 39 -84 14 42 288 rlineto
          -64 hlineto
          -109 -10 -6 -46 rlineto
          92 hlineto
          -33 -231 rlineto
          endchar
        </CharString>
        <CharString name="uni0162">
          -63 116 36 callgsubr
          20 30 -14 44 -6 callsubr
          29 100 vlineto
          -43 callsubr
          -71 -14 -5 -43 rlineto
          91 hlineto
          -35 -50 14 callsubr
          endchar
        </CharString>
        <CharString name="uni0163">
          -226 64 36 callgsubr
          21 -19 callgsubr
          25 vlineto
          62 4 60 25 0 vvcurveto
          -14 callsubr
          -20 -105 rlineto
          -88 hlineto
          -8 -61 rlineto
          85 hlineto
          53 callsubr
          -39 15 -19 42 -5 vhcurveto
          -32 -47 -34 callsubr
        </CharString>
        <CharString name="uni018F">
          73 261 -11 rmoveto
          216 102 194 215 167 -88 95 -173 -83 -71 -21 -20 -45 hvcurveto
          -14 -149 rlineto
          50 hlineto
          31 105 rlineto
          5 7 39 24 67 hhcurveto
          127 44 -59 -152 1 hvcurveto
          -11 0 -10 -1 -11 vhcurveto
          -419 hlineto
          -7 -36 -4 -38 -39 vvcurveto
          -165 86 -94 135 vhcurveto
          26 55 rmoveto
          -102 -39 62 157 14 0 13 1 12 hvcurveto
          320 hlineto
          -163 -13 -53 -95 -114 hhcurveto
          endchar
        </CharString>
        <CharString name="uni019D">
          54 callgsubr
          -61 -426 -2 -21 rlineto
          -5 hlineto
          -7 23 -196 481 rlineto
          -159 -25 callgsubr
          68 -14 -81 -576 -8 -49 -10 -25 -16 -13 rlinecurve
          -6 -8 -19 -7 -28 hhcurveto
          -73 hlineto
          1 -1 -15 -13 -29 vvcurveto
          -32 17 -8 34 92 83 73 133 18 vhcurveto
          64 464 rlineto
          5 hlineto
          5 -16 198 -486 rlineto
          88 hlineto
          82 591 -20 callsubr
          endchar
        </CharString>
        <CharString name="uni01C4">
          595 924 685 -73 callgsubr
          -912 -642 30 callsubr
          232 hlineto
          215 5 callgsubr
          155 -94 86 -170 hvcurveto
          -243 -52 callsubr
          547 -6 -70 callsubr
          -842 -518 -5 callgsubr
        </CharString>
        <CharString name="uni01C5">
          489 752 698 -76 callgsubr
          -775 -690 -73 callsubr
          726 330 -91 callgsubr
          endchar
        </CharString>
        <CharString name="uni01C6">
          355 625 699 -76 callgsubr
          -350 -629 -79 callsubr
          461 281 -91 callgsubr
          -418 2 -62 callsubr
          endchar
        </CharString>
        <CharString name="uni01C7">
          311 -14 callgsubr
          378 111 -81 callgsubr
        </CharString>
        <CharString name="uni01C8">
          174 628 578 -49 callsubr
          -38 -35 50 callsubr
          -616 -535 -46 callgsubr
          311 -225 rmoveto
          -87 callsubr
          -33 callgsubr
          hvcurveto
          endchar
        </CharString>
        <CharString name="uni01C9">
          4 458 578 -49 callsubr
          -38 -35 50 callsubr
          -303 45 -53 callsubr
          149 -807 rmoveto
          -87 callsubr
          -33 callgsubr
          hvcurveto
          endchar
        </CharString>
        <CharString name="uni01CA">
          509 -36 callgsubr
          577 111 -81 callgsubr
        </CharString>
        <CharString name="uni01CB">
          378 832 578 -49 callsubr
          -38 -35 50 callsubr
          -821 -535 -98 callgsubr
          516 -225 rmoveto
          -87 callsubr
          -33 callgsubr
          hvcurveto
          endchar
        </CharString>
        <CharString name="uni01CC">
          268 722 578 -49 callsubr
          -38 -35 50 callsubr
          -592 -152 -95 callsubr
          -165 -19 rlineto
          -44 vlineto
          435 -611 rmoveto
          -87 callsubr
          -33 callgsubr
          hvcurveto
          endchar
        </CharString>
        <CharString name="uni01CD">
          -26 320 685 -73 callgsubr
          -367 -642 -107 callgsubr
          endchar
        </CharString>
        <CharString name="uni01CE">
          -44 170 698 -76 callgsubr
          98 -628 -107 callsubr
          endchar
        </CharString>
        <CharString name="uni01CF">
          -217 222 685 -73 callgsubr
          -209 -642 rmoveto
          -85 callsubr
          -75 -534 rlineto
          endchar
        </CharString>
        <CharString name="uni01D0">
          -254 65 698 -76 callgsubr
          29 -307 -91 callsubr
        </CharString>
        <CharString name="uni01D1">
          105 371 685 -73 callgsubr
          -94 -696 -105 callsubr
          endchar
        </CharString>
        <CharString name="uni01D2">
          -82 163 698 -76 callgsubr
          -13 -743 -106 callsubr
          endchar
        </CharString>
        <CharString name="uni01D3">
          79 372 685 -73 callgsubr
          -248 -94 -104 callgsubr
          endchar
        </CharString>
        <CharString name="uni01D4">
          -16 185 698 -76 callgsubr
          -97 -306 -104 callsubr
          endchar
        </CharString>
        <CharString name="uni01D5">
          79 253 962 rmoveto
          -8 36 callsubr
          9 69 rlineto
          -283 -264 -77 callsubr
          -364 -107 -104 callgsubr
          endchar
        </CharString>
        <CharString name="uni01D6">
          -16 203 899 rmoveto
          -9 -3 callsubr
          -280 -310 -81 callsubr
          -288 -162 -104 callsubr
          endchar
        </CharString>
        <CharString name="uni01D7">
          79 362 854 -90 callgsubr
          -67 -195 -77 callsubr
          -364 -107 -104 callgsubr
          endchar
        </CharString>
        <CharString name="uni01D8">
          -16 319 775 -86 callsubr
          -73 -220 -81 callsubr
          -288 -162 -104 callsubr
          endchar
        </CharString>
        <CharString name="uni01D9">
          79 390 860 -73 callgsubr
          -117 -162 -77 callsubr
          -364 -107 -104 callgsubr
          endchar
        </CharString>
        <CharString name="uni01DA">
          -16 209 916 -76 callgsubr
          -25 -362 -81 callsubr
          -288 -162 -104 callsubr
          endchar
        </CharString>
        <CharString name="uni01DB">
          79 302 908 -80 callgsubr
          -29 -210 -77 callsubr
          -364 -107 -104 callgsubr
          endchar
        </CharString>
        <CharString name="uni01DC">
          -16 276 835 -82 callgsubr
          -57 -246 -81 callsubr
          -288 -162 -104 callsubr
          endchar
        </CharString>
        <CharString name="uni01EA">
          105 408 14 rmoveto
          138 59 66 156 173 vvcurveto
          152 -78 106 -168 -199 -127 -180 -232 -165 92 -94 145 16 16 1 2 14 vhcurveto
          -37 -27 -27 -37 -43 vvcurveto
          -49 36 -16 45 63 43 49 0 vhcurveto
          -29 callsubr
          56 64 38 11 5 hvcurveto
          -260 249 rmoveto
          216 58 126 141 108 48 -56 -151 -222 -52 -132 -148 -112 -43 62 157 vhcurveto
          endchar
        </CharString>
        <CharString name="uni01EB">
          -82 273 9 rmoveto
          101 47 55 131 153 vvcurveto
          114 -48 59 -100 -151 -94 -152 -201 -111 52 -59 97 vhcurveto
          10 hlineto
          -36 -26 -26 -36 -43 vvcurveto
          -49 36 -16 45 63 43 49 0 vhcurveto
          -29 callsubr
          47 45 34 21 13 hvcurveto
          -140 188 rmoveto
          119 39 103 14 15 vhcurveto
          -92 callgsubr
          -56 callsubr
          -70 -18 34 110 hvcurveto
          endchar
        </CharString>
        <CharString name="uni01F1">
          595 12 43 30 callsubr
          232 hlineto
          215 5 callgsubr
          155 -94 86 -170 hvcurveto
          -243 -52 callsubr
          547 -6 -70 callsubr
          -842 -518 -5 callgsubr
        </CharString>
        <CharString name="uni01F2">
          489 -37 callgsubr
          726 330 -91 callgsubr
          endchar
        </CharString>
        <CharString name="uni01F3">
          355 310 105 -79 callsubr
          461 281 -91 callgsubr
          -418 2 -62 callsubr
          endchar
        </CharString>
        <CharString name="uni01F4">
          28 356 679 -90 callgsubr
          74 -692 -94 callsubr
        </CharString>
        <CharString name="uni01F5">
          -63 271 557 -86 callsubr
          -110 -759 -99 callsubr
        </CharString>
        <CharString name="uni0200">
          -26 232 -80 callsubr
          -383 -685 -107 callgsubr
          endchar
        </CharString>
        <CharString name="uni0201">
          -44 216 -79 callgsubr
          -19 -523 -107 callsubr
          endchar
        </CharString>
        <CharString name="uni0202">
          -26 179 -74 callgsubr
          -226 -668 -107 callgsubr
          endchar
        </CharString>
        <CharString name="uni0203">
          -44 186 -74 callsubr
          144 -479 -107 callsubr
          endchar
        </CharString>
        <CharString name="uni0204">
          -29 231 -80 callsubr
          -322 -685 -106 callgsubr
          endchar
        </CharString>
        <CharString name="uni0205">
          -148 184 -79 callgsubr
          -104 -637 rmoveto
          -105 callgsubr
          endchar
        </CharString>
        <CharString name="uni0206">
          -29 178 -74 callgsubr
          -165 -668 -106 callgsubr
          endchar
        </CharString>
        <CharString name="uni0207">
          -148 154 -74 callsubr
          59 -593 rmoveto
          -105 callgsubr
          endchar
        </CharString>
        <CharString name="uni0208">
          -217 134 -80 callsubr
          -225 -685 rmoveto
          -85 callsubr
          -75 -534 rlineto
          endchar
        </CharString>
        <CharString name="uni0209">
          -254 111 -79 callgsubr
          -88 -202 -91 callsubr
        </CharString>
        <CharString name="uni020A">
          -217 81 -74 callgsubr
          -68 -668 rmoveto
          -85 callsubr
          -75 -534 rlineto
          endchar
        </CharString>
        <CharString name="uni020B">
          -254 81 -74 callsubr
          75 -158 -91 callsubr
        </CharString>
        <CharString name="uni020C">
          105 283 -80 callsubr
          -110 -739 -105 callsubr
          endchar
        </CharString>
        <CharString name="uni020D">
          -82 209 -79 callgsubr
          -130 -638 -106 callsubr
          endchar
        </CharString>
        <CharString name="uni020E">
          105 230 -74 callgsubr
          47 -722 -105 callsubr
          endchar
        </CharString>
        <CharString name="uni020F">
          -82 179 -74 callsubr
          33 -594 -106 callsubr
          endchar
        </CharString>
        <CharString name="uni0210">
          -12 239 -80 callsubr
          -336 -728 rmoveto
          -21 callgsubr
          45 -4 17 -59 callgsubr
          -62 139 -18 -30 callsubr
        </CharString>
        <CharString name="uni0211">
          -218 130 -79 callgsubr
          -106 -202 -65 callgsubr
          endchar
        </CharString>
        <CharString name="uni0212">
          -12 186 -74 callgsubr
          -179 -711 rmoveto
          -21 callgsubr
          45 -4 17 -59 callgsubr
          -62 139 -18 -30 callsubr
        </CharString>
        <CharString name="uni0213">
          -218 100 -74 callsubr
          57 -158 -65 callgsubr
          endchar
        </CharString>
        <CharString name="uni0214">
          79 284 -80 callsubr
          -264 -137 -104 callgsubr
          endchar
        </CharString>
        <CharString name="uni0215">
          -16 231 -79 callgsubr
          -214 -201 -104 callsubr
          endchar
        </CharString>
        <CharString name="uni0216">
          79 231 -74 callgsubr
          -107 -120 -104 callgsubr
          endchar
        </CharString>
        <CharString name="uni0217">
          -16 201 -74 callsubr
          -51 -157 -104 callsubr
          endchar
        </CharString>
        <CharString name="uni021A">
          -63 92 43 rmoveto
          -5 -43 rlineto
          235 hlineto
          -43 callsubr
          rlineto
          -34 -242 -5 callsubr
          -21 20 -33 -34 callgsubr
        </CharString>
        <CharString name="uni021B">
          -223 127 446 rmoveto
          -57 -341 24 callgsubr
          21 -19 64 68 71 30 0 vhcurveto
          -14 callsubr
          -19 -105 rlineto
          -88 hlineto
          -9 -61 rlineto
          39 -631 rmoveto
          19 -20 rlineto
          -67 callgsubr
        </CharString>
        <CharString name="uni0232">
          -60 167 -4 callsubr
          9 69 rlineto
          -367 -746 -93 callsubr
          endchar
        </CharString>
        <CharString name="uni0232.loclGUA">
          92 235 -4 callsubr
          9 69 rlineto
          -139 -139 -101 callsubr
        </CharString>
        <CharString name="uni0233">
          -133 120 -12 callgsubr
          -394 -852 -96 callgsubr
          endchar
        </CharString>
        <CharString name="uni0233.loclGUA">
          -48 180 -12 callgsubr
          -328 -849 -100 callsubr
        </CharString>
        <CharString name="uni0237">
          -272 -14 -85 rmoveto
          -33 callgsubr
          -87 callsubr
          endchar
        </CharString>
        <CharString name="uni0259">
          -148 212 503 rmoveto
          -62 -71 -32 -45 -36 hvcurveto
          20 -32 rlineto
          25 32 44 18 29 hhcurveto
          73 25 -28 -99 hvcurveto
          -20 vlineto
          -140 -28 -117 -25 -156 vvcurveto
          -47 37 -53 82 160 73 219 149 118 -47 36 -102 vhcurveto
          49 -259 rmoveto
          -8 -70 -22 -82 -23 -35 rrcurveto
          -7 -6 -21 -5 -25 hhcurveto
          -46 -11 28 28 66 13 40 149 37 hvcurveto
          endchar
        </CharString>
        <CharString name="uni0272">
          5 427 73 rmoveto
          46 5 callsubr
          6 0 callsubr
          -69 -59 -70 -48 -27 -34 vhcurveto
          68 33 callsubr
          -66 -411 -9 -57 -19 -24 -6 -8 rlinecurve
          -5 -4 -23 -6 -28 hhcurveto
          -73 hlineto
          1 -1 -14 -14 -27 vvcurveto
          -31 15 -10 33 109 92 73 133 19 vhcurveto
          53 355 rlineto
          10 16 57 35 53 hhcurveto
          35 9 -16 -26 -17 -3 -20 -3 -12 hvcurveto
          -48 -265 rlineto
          -2 -10 -1 -13 -11 vvcurveto
          -34 14 -19 49 56 48 32 0 vhcurveto
          46 vlineto
          endchar
        </CharString>
        <CharString name="uni02BC">
          -436 61 -33 callsubr
          endchar
        </CharString>
        <CharString name="uni02C9">
          -198 86 -12 callgsubr
          endchar
        </CharString>
        <CharString name="uni0302">
          13 559 -102 callgsubr
          endchar
        </CharString>
        <CharString name="uni0302.case">
          -215 724 -101 callgsubr
          endchar
        </CharString>
        <CharString name="uni03020300">
          -68 747 -82 callgsubr
          41 -188 -102 callgsubr
          endchar
        </CharString>
        <CharString name="uni03020300.case">
          -53 866 -80 callgsubr
          -162 -142 -101 callgsubr
          endchar
        </CharString>
        <CharString name="uni03020301">
          -93 687 -86 callsubr
          25 -162 -102 callgsubr
          endchar
        </CharString>
        <CharString name="uni03020301.case">
          -2 812 -90 callgsubr
          -191 -127 -101 callgsubr
          endchar
        </CharString>
        <CharString name="uni03020303">
          -20 -77 callgsubr
          endchar
        </CharString>
        <CharString name="uni03020303.case">
          -235 -75 callgsubr
          endchar
        </CharString>
        <CharString name="uni03020309">
          -89 666 -102 callsubr
          -8 -107 -102 callgsubr
          endchar
        </CharString>
        <CharString name="uni03020309.case">
          22 797 -103 callsubr
          -237 -73 -101 callgsubr
          endchar
        </CharString>
        <CharString name="uni0304">
          -248 -12 callgsubr
          endchar
        </CharString>
        <CharString name="uni0304.case">
          -228 -4 callsubr
          9 69 rlineto
          endchar
        </CharString>
        <CharString name="uni0306">
          -112 565 -58 callgsubr
        </CharString>
        <CharString name="uni0306.case">
          79 811 -53 callgsubr
        </CharString>
        <CharString name="uni03060300">
          -140 772 -82 callgsubr
          24 -207 -58 callgsubr
        </CharString>
        <CharString name="uni03060300.case">
          -155 877 -80 callgsubr
          234 -66 -53 callgsubr
        </CharString>
        <CharString name="uni03060301">
          -97 712 -86 callsubr
          8 -181 -58 callgsubr
        </CharString>
        <CharString name="uni03060301.case">
          -95 823 -90 callgsubr
          196 -51 -53 callgsubr
        </CharString>
        <CharString name="uni03060303">
          -21 758 rmoveto
          20 18 17 22 19 hvcurveto
          39 44 -21 22 -73 -35 -77 25 rlineto
          7 -22 -23 8 -18 hhcurveto
          -22 -16 -13 -24 -18 hvcurveto
          -39 -45 22 -22 72 34 72 -23 rlineto
          -8 21 25 -9 21 hhcurveto
          -115 -193 -58 callgsubr
        </CharString>
        <CharString name="uni03060303.case">
          -235 889 rmoveto
          25 -26 81 36 77 -26 rlineto
          -8 24 28 -10 22 hhcurveto
          21 19 15 20 18 hvcurveto
          41 48 -25 27 -80 -36 -78 25 rlineto
          9 -24 -28 8 -21 hhcurveto
          -22 -19 -13 -22 -18 hvcurveto
          273 -125 -53 callgsubr
        </CharString>
        <CharString name="uni03060309">
          -113 691 -102 callsubr
          -3 -126 -58 callgsubr
        </CharString>
        <CharString name="uni03060309.case">
          -94 810 -103 callsubr
          173 1 -53 callgsubr
        </CharString>
        <CharString name="uni0307">
          -14 -26 callgsubr
          endchar
        </CharString>
        <CharString name="uni0307.case">
          5 -39 callgsubr
          endchar
        </CharString>
        <CharString name="uni0308">
          -207 589 -81 callsubr
          endchar
        </CharString>
        <CharString name="uni0308.case">
          -205 698 -77 callsubr
          endchar
        </CharString>
        <CharString name="uni030A">
          -46 562 -40 callgsubr
          endchar
        </CharString>
        <CharString name="uni030A.case">
          -32 662 -31 callsubr
          13 -7 -23 -35 -10 -16 -26 hvcurveto
          endchar
        </CharString>
        <CharString name="uni030B">
          -225 556 rmoveto
          73 15 callgsubr
          -20 19 -43 -27 callsubr
          endchar
        </CharString>
        <CharString name="uni030B.case">
          -211 -18 callsubr
          endchar
        </CharString>
        <CharString name="uni030C">
          -217 698 -76 callgsubr
          endchar
        </CharString>
        <CharString name="uni030C.case">
          -70 685 -73 callgsubr
          endchar
        </CharString>
        <CharString name="uni030F">
          -162 -79 callgsubr
          endchar
        </CharString>
        <CharString name="uni030F.case">
          -139 -80 callsubr
          endchar
        </CharString>
        <CharString name="uni0311">
          -210 -74 callsubr
          endchar
        </CharString>
        <CharString name="uni0311.case">
          -228 -74 callgsubr
          endchar
        </CharString>
        <CharString name="uni031B">
          -183 307 rmoveto
          155 81 45 69 47 vvcurveto
          41 -22 13 -10 8 vhcurveto
          -61 -42 rlineto
          -15 vlineto
          12 -8 7 -8 -16 vvcurveto
          -54 -74 -53 -54 -30 vhcurveto
          endchar
        </CharString>
        <CharString name="uni0326">
          -164 -185 -5 callsubr
          -22 20 -32 -26 -16 28 callgsubr
          -7 16 -18 -30 vvcurveto
          -40 -37 31 callgsubr
        </CharString>
        <CharString name="uni0327">
          -234 -25 callsubr
        </CharString>
        <CharString name="uni0328">
          -54 -8 callsubr
        </CharString>
        <CharString name="uni0335">
          -333 307 rmoveto
          317 hlineto
          8 57 rlineto
          -316 hlineto
          endchar
        </CharString>
        <CharString name="uni0336">
          -23 487 rmoveto
          -569 hlineto
          -8 -56 rlineto
          568 hlineto
          endchar
        </CharString>
        <CharString name="uni0394">
          -10 callgsubr
        </CharString>
        <CharString name="uni03A9">
          -51 callgsubr
        </CharString>
        <CharString name="uni03BC">
          -55 callsubr
        </CharString>
        <CharString name="uni1E0C">
          -38 callsubr
          86 -230 -100 callgsubr
          endchar
        </CharString>
        <CharString name="uni1E0D">
          -41 310 105 -79 callsubr
          43 293 -62 callsubr
          -155 -572 -100 callgsubr
          endchar
        </CharString>
        <CharString name="uni1E24">
          -43 callgsubr
          192 -231 -100 callgsubr
          endchar
        </CharString>
        <CharString name="uni1E25">
          -18 153 623 -68 callgsubr
          136 -812 -100 callgsubr
          endchar
        </CharString>
        <CharString name="uni1E44">
          104 391 -39 callgsubr
          -380 -651 -98 callgsubr
          endchar
        </CharString>
        <CharString name="uni1E45">
          -6 323 -26 callgsubr
          -193 -158 -95 callsubr
          -165 -19 rlineto
          -44 vlineto
          endchar
        </CharString>
        <CharString name="uni1E5A">
          -12 7 hmoveto
          -21 callgsubr
          45 -4 17 -59 callgsubr
          -62 139 -18 -89 callsubr
          33 -504 -100 callgsubr
          endchar
        </CharString>
        <CharString name="uni1E5B">
          -218 130 426 -65 callgsubr
          29 -617 -100 callgsubr
          endchar
        </CharString>
        <CharString name="uni1E62">
          -97 171 -11 -82 callsubr
          4 -163 -100 callgsubr
          endchar
        </CharString>
        <CharString name="uni1E63">
          -146 159 -10 -89 callgsubr
          -14 -164 -100 callgsubr
          endchar
        </CharString>
        <CharString name="uni1E6C">
          -23 callsubr
          23 -231 -100 callgsubr
          endchar
        </CharString>
        <CharString name="uni1E6D">
          -27 callgsubr
          78 -620 -100 callgsubr
          endchar
        </CharString>
        <CharString name="uni1E92">
          -44 -9 51 -70 callsubr
          -186 -748 -100 callgsubr
          endchar
        </CharString>
        <CharString name="uni1E93">
          -150 266 386 -91 callgsubr
          -122 -570 -100 callgsubr
          endchar
        </CharString>
        <CharString name="uni1E9E">
          135 406 -11 rmoveto
          139 83 76 111 93 -66 51 -99 17 hvcurveto
          -3 7 183 247 -32 52 rlineto
          9 -47 -86 10 -56 hhcurveto
          -195 -115 -130 -190 -26 hvcurveto
          -39 -285 -71 -14 -5 -43 rlineto
          214 hlineto
          4 43 -47 14 43 313 rlineto
          141 19 45 87 149 hhcurveto
          38 38 -5 -7 33 hvcurveto
          9 -16 -178 -237 21 -51 rlineto
          117 -8 64 -52 -75 vvcurveto
          -62 -33 -40 -87 -39 -36 14 15 -14 vhcurveto
          -11 114 rlineto
          -56 hlineto
          -16 -152 rlineto
          -18 19 69 -29 70 hhcurveto
          endchar
        </CharString>
        <CharString name="uni1EA0">
          -26 -47 43 -107 callgsubr
          -74 -659 -100 callgsubr
          endchar
        </CharString>
        <CharString name="uni1EA1">
          -44 303 105 -107 callsubr
          -150 -572 -100 callgsubr
          endchar
        </CharString>
        <CharString name="uni1EA2">
          -26 294 676 -103 callsubr
          -341 -633 -107 callgsubr
          endchar
        </CharString>
        <CharString name="uni1EA3">
          -44 264 536 -102 callsubr
          39 -431 -107 callsubr
          endchar
        </CharString>
        <CharString name="uni1EA4">
          -26 396 812 -90 callgsubr
          -191 -127 -101 callgsubr
          -307 -740 -107 callgsubr
          endchar
        </CharString>
        <CharString name="uni1EA5">
          -44 371 687 -86 callsubr
          25 -162 -102 callgsubr
          34 -530 -107 callsubr
          endchar
        </CharString>
        <CharString name="uni1EA6">
          -26 342 866 -80 callgsubr
          -162 -142 -101 callgsubr
          -304 -740 -107 callgsubr
          endchar
        </CharString>
        <CharString name="uni1EA7">
          -44 356 747 -82 callgsubr
          41 -188 -102 callgsubr
          6 -530 -107 callsubr
          endchar
        </CharString>
        <CharString name="uni1EA8">
          -26 401 797 -103 callsubr
          -237 -73 -101 callgsubr
          -288 -740 -107 callgsubr
          endchar
        </CharString>
        <CharString name="uni1EA9">
          -44 385 666 -102 callsubr
          -8 -107 -102 callgsubr
          26 -530 -107 callsubr
          endchar
        </CharString>
        <CharString name="uni1EAA">
          -26 163 -75 callgsubr
          -307 -740 -107 callgsubr
          endchar
        </CharString>
        <CharString name="uni1EAB">
          -44 390 -77 callgsubr
          9 -530 -107 callsubr
          endchar
        </CharString>
        <CharString name="uni1EAC">
          -26 191 724 -101 callgsubr
          -315 -740 -107 callgsubr
          -74 -659 -100 callgsubr
          endchar
        </CharString>
        <CharString name="uni1EAD">
          -44 404 559 -102 callgsubr
          -1 -530 -107 callsubr
          -150 -572 -100 callgsubr
          endchar
        </CharString>
        <CharString name="uni1EAE">
          -26 315 823 -90 callgsubr
          196 -51 -95 callgsubr
          -536 -768 -107 callgsubr
          endchar
        </CharString>
        <CharString name="uni1EAF">
          -44 309 712 -86 callsubr
          8 -181 -98 callsubr
          13 -460 -107 callsubr
          endchar
        </CharString>
        <CharString name="uni1EB0">
          -26 262 877 -80 callgsubr
          234 -66 -95 callgsubr
          -543 -768 -107 callgsubr
          endchar
        </CharString>
        <CharString name="uni1EB1">
          -44 272 772 -82 callgsubr
          24 -207 -98 callsubr
          7 -460 -107 callsubr
          endchar
        </CharString>
        <CharString name="uni1EB2">
          -26 322 810 -103 callsubr
          173 1 -95 callgsubr
          -542 -768 -107 callgsubr
          endchar
        </CharString>
        <CharString name="uni1EB3">
          -44 298 691 -102 callsubr
          -3 -126 -98 callsubr
          8 -460 -107 callsubr
          endchar
        </CharString>
        <CharString name="uni1EB4">
          -26 163 889 rmoveto
          25 -26 81 36 77 -26 rlineto
          -8 24 28 -10 22 hhcurveto
          21 19 15 20 18 hvcurveto
          41 48 -25 27 -80 -36 -78 25 rlineto
          9 -24 -28 8 -21 hhcurveto
          -22 -19 -13 -22 -18 hvcurveto
          273 -125 -95 callgsubr
          -524 -768 -107 callgsubr
          endchar
        </CharString>
        <CharString name="uni1EB5">
          -44 389 758 rmoveto
          20 18 17 22 19 hvcurveto
          39 44 -21 22 -73 -35 -77 25 rlineto
          7 -22 -23 8 -18 hhcurveto
          -22 -16 -13 -24 -18 hvcurveto
          -39 -45 22 -22 72 34 72 -23 rlineto
          -8 21 25 -9 21 hhcurveto
          -115 -193 -98 callsubr
          29 -460 -107 callsubr
          endchar
        </CharString>
        <CharString name="uni1EB6">
          -26 486 811 -95 callgsubr
          -533 -768 -107 callgsubr
          -74 -659 -100 callgsubr
          endchar
        </CharString>
        <CharString name="uni1EB7">
          -44 284 565 -98 callsubr
          19 -460 -107 callsubr
          -150 -572 -100 callgsubr
          endchar
        </CharString>
        <CharString name="uni1EB8">
          -29 13 43 -106 callgsubr
          120 -231 -100 callgsubr
          endchar
        </CharString>
        <CharString name="uni1EB9">
          -148 186 -9 rmoveto
          -105 callgsubr
          27 -424 -100 callgsubr
          endchar
        </CharString>
        <CharString name="uni1EBA">
          -29 293 676 -103 callsubr
          -280 -633 -106 callgsubr
          endchar
        </CharString>
        <CharString name="uni1EBB">
          -148 232 536 -102 callsubr
          -46 -545 rmoveto
          -105 callgsubr
          endchar
        </CharString>
        <CharString name="uni1EBC">
          -29 152 -86 callgsubr
          -180 -740 -106 callgsubr
          endchar
        </CharString>
        <CharString name="uni1EBD">
          -148 344 -88 callsubr
          -158 -598 rmoveto
          -105 callgsubr
          endchar
        </CharString>
        <CharString name="uni1EBE">
          -29 395 812 -90 callgsubr
          -191 -127 -101 callgsubr
          -246 -740 -106 callgsubr
          endchar
        </CharString>
        <CharString name="uni1EBF">
          -148 339 687 -86 callsubr
          25 -162 -102 callgsubr
          -51 -644 rmoveto
          -105 callgsubr
          endchar
        </CharString>
        <CharString name="uni1EC0">
          -29 341 866 -80 callgsubr
          -162 -142 -101 callgsubr
          -243 -740 -106 callgsubr
          endchar
        </CharString>
        <CharString name="uni1EC1">
          -148 324 747 -82 callgsubr
          41 -188 -102 callgsubr
          -79 -644 rmoveto
          -105 callgsubr
          endchar
        </CharString>
        <CharString name="uni1EC2">
          -29 400 797 -103 callsubr
          -237 -73 -101 callgsubr
          -227 -740 -106 callgsubr
          endchar
        </CharString>
        <CharString name="uni1EC3">
          -148 353 666 -102 callsubr
          -8 -107 -102 callgsubr
          -59 -644 rmoveto
          -105 callgsubr
          endchar
        </CharString>
        <CharString name="uni1EC4">
          -29 162 -75 callgsubr
          -246 -740 -106 callgsubr
          endchar
        </CharString>
        <CharString name="uni1EC5">
          -148 358 -77 callgsubr
          -76 -644 rmoveto
          -105 callgsubr
          endchar
        </CharString>
        <CharString name="uni1EC6">
          -29 190 724 -101 callgsubr
          -254 -740 -106 callgsubr
          120 -231 -100 callgsubr
          endchar
        </CharString>
        <CharString name="uni1EC7">
          -148 372 559 -102 callgsubr
          -86 -644 rmoveto
          -105 callgsubr
          27 -424 -100 callgsubr
          endchar
        </CharString>
        <CharString name="uni1EC8">
          -217 196 676 -103 callsubr
          -183 -633 rmoveto
          -85 callsubr
          -75 -534 rlineto
          endchar
        </CharString>
        <CharString name="uni1EC9">
          -254 159 536 -102 callsubr
          -30 -110 -91 callsubr
        </CharString>
        <CharString name="uni1ECA">
          -217 13 43 rmoveto
          -85 callsubr
          -75 -534 rlineto
          24 -231 -100 callgsubr
          endchar
        </CharString>
        <CharString name="uni1ECB">
          -32 callgsubr
          42 -617 -100 callgsubr
          endchar
        </CharString>
        <CharString name="uni1ECC">
          105 277 -11 -105 callsubr
          -32 -218 -100 callgsubr
          endchar
        </CharString>
        <CharString name="uni1ECD">
          -82 185 -10 -106 callsubr
          -44 -227 -100 callgsubr
          endchar
        </CharString>
        <CharString name="uni1ECE">
          105 345 676 -103 callsubr
          -68 -687 -105 callsubr
          endchar
        </CharString>
        <CharString name="uni1ECF">
          -82 257 536 -102 callsubr
          -72 -546 -106 callsubr
          endchar
        </CharString>
        <CharString name="uni1ED0">
          105 447 812 -90 callgsubr
          -191 -127 -101 callgsubr
          -34 -794 -105 callsubr
          endchar
        </CharString>
        <CharString name="uni1ED1">
          -82 364 687 -86 callsubr
          25 -162 -102 callgsubr
          -77 -645 -106 callsubr
          endchar
        </CharString>
        <CharString name="uni1ED2">
          105 393 866 -80 callgsubr
          -162 -142 -101 callgsubr
          -31 -794 -105 callsubr
          endchar
        </CharString>
        <CharString name="uni1ED3">
          -82 349 747 -82 callgsubr
          41 -188 -102 callgsubr
          -105 -645 -106 callsubr
          endchar
        </CharString>
        <CharString name="uni1ED4">
          105 452 797 -103 callsubr
          -237 -73 -101 callgsubr
          -15 -794 -105 callsubr
          endchar
        </CharString>
        <CharString name="uni1ED5">
          -82 378 666 -102 callsubr
          -8 -107 -102 callgsubr
          -85 -645 -106 callsubr
          endchar
        </CharString>
        <CharString name="uni1ED6">
          105 214 -75 callgsubr
          -34 -794 -105 callsubr
          endchar
        </CharString>
        <CharString name="uni1ED7">
          -82 383 -77 callgsubr
          -102 -645 -106 callsubr
          endchar
        </CharString>
        <CharString name="uni1ED8">
          105 242 724 -101 callgsubr
          -42 -794 -105 callsubr
          -32 -218 -100 callgsubr
          endchar
        </CharString>
        <CharString name="uni1ED9">
          -82 397 559 -102 callgsubr
          -112 -645 -106 callsubr
          -44 -227 -100 callgsubr
          endchar
        </CharString>
        <CharString name="uni1EDA">
          105 481 733 rmoveto
          34 14 15 13 -70 callgsubr
          22 -39 rlineto
          420 -21 -93 callgsubr
        </CharString>
        <CharString name="uni1EDB">
          -82 372 -13 callgsubr
          282 -53 -97 callsubr
          endchar
        </CharString>
        <CharString name="uni1EDC">
          105 283 733 -80 callgsubr
          480 -75 -93 callgsubr
        </CharString>
        <CharString name="uni1EDD">
          -82 230 617 -82 callgsubr
          325 -113 -97 callsubr
          endchar
        </CharString>
        <CharString name="uni1EDE">
          105 380 784 rmoveto
          29 13 -8 -11 -11 -10 -11 -27 -11 hvcurveto
          -34 -12 -10 -11 -16 vvcurveto
          -5 2 -6 2 -6 vhcurveto
          57 2 1 12 3 6 24 8 rlinecurve
          40 13 31 24 37 vvcurveto
          41 -47 22 -74 -56 -15 -18 -17 -7 2 -11 6 -12 vhcurveto
          5 21 22 3 20 hhcurveto
          383 -126 -93 callgsubr
        </CharString>
        <CharString name="uni1EDF">
          -82 291 670 rmoveto
          30 12 -7 -16 -17 -12 -9 -25 -12 hvcurveto
          -33 -15 -12 -12 -19 vvcurveto
          -8 3 -8 3 -11 vhcurveto
          54 6 rlineto
          20 4 4 27 12 vhcurveto
          42 19 27 21 38 vvcurveto
          48 -44 24 -75 -53 -17 -12 -27 -8 1 -8 6 -11 vhcurveto
          5 21 23 3 18 hhcurveto
          264 -166 -97 callsubr
          endchar
        </CharString>
        <CharString name="uni1EE0">
          105 310 743 rmoveto
          77 -27 rlineto
          -9 24 28 -10 22 hhcurveto
          21 19 15 38 callsubr
          51 -25 28 -80 -38 -78 27 rlineto
          9 -24 -28 9 -21 hhcurveto
          -22 17 callgsubr
          -41 -50 25 -28 rlineto
          534 -47 -93 callgsubr
        </CharString>
        <CharString name="uni1EE1">
          -82 230 -17 callgsubr
          397 -91 -97 callsubr
          endchar
        </CharString>
        <CharString name="uni1EE2">
          105 763 658 rmoveto
          41 -22 13 -10 8 vhcurveto
          -61 -42 rlineto
          -15 vlineto
          12 -8 7 -8 -16 vvcurveto
          -43 -48 -43 -46 -31 vhcurveto
          90 -32 -75 56 -122 hhcurveto
          -199 -127 -180 -232 -165 92 -94 145 227 108 192 221 29 -3 27 -6 25 hvcurveto
          123 72 37 60 43 vvcurveto
          -460 -614 rmoveto
          -112 -43 62 157 216 58 126 141 108 48 -56 -151 -222 -52 -132 -148 hvcurveto
          -23 -88 -7 callsubr
        </CharString>
        <CharString name="uni1EE3">
          -82 555 504 -97 callsubr
          -96 -110 -7 callsubr
        </CharString>
        <CharString name="uni1EE4">
          79 124 591 -104 callgsubr
          201 -779 -100 callgsubr
          endchar
        </CharString>
        <CharString name="uni1EE5">
          -16 123 427 -104 callsubr
          166 -618 -100 callgsubr
          endchar
        </CharString>
        <CharString name="uni1EE6">
          79 346 676 -103 callsubr
          -222 -85 -104 callgsubr
          endchar
        </CharString>
        <CharString name="uni1EE7">
          -16 279 536 -102 callsubr
          -156 -109 -104 callsubr
          endchar
        </CharString>
        <CharString name="uni1EE8">
          79 344 679 -90 callgsubr
          392 -3 -97 callgsubr
          endchar
        </CharString>
        <CharString name="uni1EE9">
          -16 394 -13 callgsubr
          326 -53 -99 callgsubr
          endchar
        </CharString>
        <CharString name="uni1EEA">
          79 284 733 -80 callgsubr
          430 -18 -97 callgsubr
          endchar
        </CharString>
        <CharString name="uni1EEB">
          -16 252 617 -82 callgsubr
          369 -113 -99 callgsubr
          endchar
        </CharString>
        <CharString name="uni1EEC">
          79 346 676 -103 callsubr
          368 39 -97 callgsubr
          endchar
        </CharString>
        <CharString name="uni1EED">
          -16 313 670 rmoveto
          30 12 -7 -16 -17 -12 -9 -25 -12 hvcurveto
          -33 -15 -12 -12 -19 vvcurveto
          -8 3 -8 3 -11 vhcurveto
          54 6 rlineto
          20 4 4 27 12 vhcurveto
          42 19 27 21 38 vvcurveto
          48 -44 24 -75 -53 -17 -12 -27 -8 1 -8 6 -11 vhcurveto
          5 21 23 3 18 hhcurveto
          308 -166 -99 callgsubr
          endchar
        </CharString>
        <CharString name="uni1EEE">
          79 205 -86 callgsubr
          468 -68 -97 callgsubr
          endchar
        </CharString>
        <CharString name="uni1EEF">
          -16 252 -17 callgsubr
          441 -91 -99 callgsubr
          endchar
        </CharString>
        <CharString name="uni1EF0">
          79 714 715 -97 callgsubr
          -457 -889 -100 callgsubr
          endchar
        </CharString>
        <CharString name="uni1EF1">
          -16 621 504 -99 callgsubr
          -401 -548 -7 callsubr
        </CharString>
        <CharString name="uni1EF4">
          -60 103 41 -93 callsubr
          20 -229 -100 callgsubr
          endchar
        </CharString>
        <CharString name="uni1EF5">
          -133 22 -171 -96 callgsubr
          233 -3 -100 callgsubr
          endchar
        </CharString>
        <CharString name="uni1EF6">
          -60 278 676 -103 callsubr
          -175 -635 -93 callsubr
          endchar
        </CharString>
        <CharString name="uni1EF7">
          -133 220 536 -102 callsubr
          -198 -707 -96 callgsubr
          endchar
        </CharString>
        <CharString name="uni1EF8">
          -60 137 -86 callgsubr
          -75 -742 -93 callsubr
          endchar
        </CharString>
        <CharString name="uni1EF8.loclGUA">
          92 205 -86 callgsubr
          153 -135 -101 callsubr
        </CharString>
        <CharString name="uni1EF9">
          -133 332 -88 callsubr
          -310 -760 -96 callgsubr
          endchar
        </CharString>
        <CharString name="uni1EF9.loclGUA">
          -48 392 -88 callsubr
          -244 -757 -100 callsubr
        </CharString>
        <CharString name="uni20B2">
          28 320 288 rmoveto
          106 -18 -26 -186 rlineto
          -11 -22 -34 -19 -52 hhcurveto
          -97 -45 58 144 241 86 98 113 65 42 -24 -5 8 hvcurveto
          6 -93 rlineto
          50 hlineto
          22 156 -8 2 -54 14 -70 4 rlinecurve
          13 116 -56 9 -31 -126 rlineto
          -191 -19 -102 -187 -201 vvcurveto
          -140 62 -78 104 -19 vhcurveto
          -13 -120 55 -9 30 124 64 4 34 20 21 13 rlinecurve
          8 hlineto
          20 -26 rlineto
          50 hlineto
          43 325 rlineto
          -196 hlineto
          endchar
        </CharString>
        <CharString name="uni20B2.osf">
          28 302 230 rmoveto
          107 -18 -22 -138 rlineto
          -15 -26 -32 -15 -45 hhcurveto
          -93 -41 47 122 185 78 78 104 41 42 -10 -18 31 hvcurveto
          6 -94 rlineto
          50 hlineto
          22 156 -36 10 -48 8 -49 3 rlinecurve
          12 108 -56 10 -29 -120 rlineto
          -177 -21 -98 -134 -179 vvcurveto
          -121 67 -68 98 -15 vhcurveto
          -12 -107 55 -9 27 114 63 5 27 20 20 12 rlinecurve
          7 hlineto
          21 -26 rlineto
          49 hlineto
          38 277 rlineto
          -196 hlineto
          endchar
        </CharString>
        <CharString name="uni2113">
          -130 195 -12 rmoveto
          91 80 69 -1 hhcurveto
          -11 34 rlineto
          -1 -1 -58 -31 -49 hhcurveto
          -48 -19 9 45 10 0 13 3 15 hvcurveto
          6 52 rlineto
          96 62 138 113 120 vvcurveto
          69 -35 39 -73 -132 -52 -122 -162 -20 vhcurveto
          -15 -112 -84 -62 22 -41 17 11 18 11 18 11 rlinecurve
          -3 -29 -2 -17 -16 vvcurveto
          -63 33 -27 81 vhcurveto
          3 291 rmoveto
          13 102 rlineto
          125 17 21 52 45 hhcurveto
          31 14 -21 -40 -68 -54 -80 -87 -70 hvcurveto
          endchar
        </CharString>
        <CharString name="uni2126">
          -51 callgsubr
        </CharString>
        <CharString name="uni2206">
          -10 callgsubr
        </CharString>
        <CharString name="uni2215">
          18 callsubr
        </CharString>
        <CharString name="uni2219">
          -354 89 196 rmoveto
          46 27 -38 callgsubr
        </CharString>
</ttFont>
